%TF.GenerationSoftware,KiCad,Pcbnew,7.0.9-7.0.9~ubuntu22.04.1*%
%TF.CreationDate,2023-12-18T16:27:13+02:00*%
%TF.ProjectId,VGA2HDMI_Rev_C,56474132-4844-44d4-995f-5265765f432e,C*%
%TF.SameCoordinates,PX5f5e100PY7270e00*%
%TF.FileFunction,Copper,L2,Inr*%
%TF.FilePolarity,Positive*%
%FSLAX46Y46*%
G04 Gerber Fmt 4.6, Leading zero omitted, Abs format (unit mm)*
G04 Created by KiCad (PCBNEW 7.0.9-7.0.9~ubuntu22.04.1) date 2023-12-18 16:27:13*
%MOMM*%
%LPD*%
G01*
G04 APERTURE LIST*
%TA.AperFunction,ComponentPad*%
%ADD10O,1.300000X2.300000*%
%TD*%
%TA.AperFunction,ComponentPad*%
%ADD11O,1.300000X2.700000*%
%TD*%
%TA.AperFunction,ComponentPad*%
%ADD12O,1.200000X2.200000*%
%TD*%
%TA.AperFunction,ComponentPad*%
%ADD13O,1.300000X2.000000*%
%TD*%
%TA.AperFunction,ComponentPad*%
%ADD14C,1.778000*%
%TD*%
%TA.AperFunction,ComponentPad*%
%ADD15C,1.200000*%
%TD*%
%TA.AperFunction,ComponentPad*%
%ADD16C,6.300000*%
%TD*%
%TA.AperFunction,ComponentPad*%
%ADD17C,1.000000*%
%TD*%
%TA.AperFunction,ComponentPad*%
%ADD18C,1.800000*%
%TD*%
%TA.AperFunction,ComponentPad*%
%ADD19C,1.600000*%
%TD*%
%TA.AperFunction,ComponentPad*%
%ADD20O,4.800000X2.800000*%
%TD*%
%TA.AperFunction,ViaPad*%
%ADD21C,1.000000*%
%TD*%
%TA.AperFunction,ViaPad*%
%ADD22C,0.800000*%
%TD*%
%TA.AperFunction,Conductor*%
%ADD23C,1.016000*%
%TD*%
G04 APERTURE END LIST*
D10*
X1000000Y53200000D03*
D11*
X1000000Y47150000D03*
D10*
X15600000Y53200000D03*
D11*
X15600000Y47150000D03*
D12*
X20480000Y48970000D03*
X29120000Y48970000D03*
D13*
X20480000Y53150000D03*
X29120000Y53150000D03*
D14*
X16967000Y13574000D03*
D15*
X1087000Y14500000D03*
X1849000Y16151000D03*
X1849000Y12722000D03*
X3500000Y16913000D03*
D16*
X3500000Y14500000D03*
D15*
X3500000Y12087000D03*
X5151000Y16151000D03*
X5151000Y12849000D03*
X5913000Y14500000D03*
D14*
X20142000Y13574000D03*
D17*
X8950000Y25400000D03*
X10950000Y25400000D03*
X8950000Y26500000D03*
X10950000Y26500000D03*
D18*
X9950000Y27500000D03*
D17*
X8950000Y28500000D03*
X10950000Y28500000D03*
X8950000Y29600000D03*
X10950000Y29600000D03*
D14*
X13792000Y13574000D03*
D19*
X19780000Y7090000D03*
X17490000Y7090000D03*
X15200000Y7090000D03*
X12910000Y7090000D03*
X10620000Y7090000D03*
X20925000Y5110000D03*
X18635000Y5110000D03*
X16345000Y5110000D03*
X14055000Y5110000D03*
X11765000Y5110000D03*
X19780000Y3130000D03*
X17490000Y3130000D03*
X15200000Y3130000D03*
X12910000Y3130000D03*
X10620000Y3130000D03*
D20*
X3005000Y5110000D03*
X27995000Y5110000D03*
D15*
X25087000Y38500000D03*
X25849000Y40151000D03*
X25849000Y36722000D03*
X27500000Y40913000D03*
D16*
X27500000Y38500000D03*
D15*
X27500000Y36087000D03*
X29151000Y40151000D03*
X29151000Y36849000D03*
X29913000Y38500000D03*
D21*
X15189000Y35164000D03*
X17094000Y35164000D03*
X5918000Y1255000D03*
D22*
X4267000Y47864000D03*
D21*
X5156000Y36180000D03*
D22*
X11506000Y36053000D03*
X7315000Y47864000D03*
X15824000Y29322000D03*
X20904000Y12050000D03*
X16332000Y8494000D03*
D21*
X15697000Y37958000D03*
D22*
X1015800Y31735000D03*
D21*
X13030000Y40879000D03*
X4521000Y34656000D03*
X4775000Y37958000D03*
D22*
X7950000Y36053000D03*
X5791000Y47864000D03*
D21*
X13373500Y23898500D03*
X1092000Y44054000D03*
D22*
X15062000Y41260000D03*
X17475000Y23099000D03*
X8839000Y47864000D03*
D21*
X23698000Y8113000D03*
D22*
X6680000Y8367000D03*
D21*
X14300000Y39355000D03*
X2743000Y44054000D03*
X1092000Y41260000D03*
X1600000Y1255000D03*
D22*
X3378000Y35545000D03*
D21*
X15189000Y33513000D03*
X14300000Y36942000D03*
X29032000Y1255000D03*
X13538000Y20686000D03*
D22*
X2260400Y26350200D03*
X24079000Y49642000D03*
X11379000Y47864000D03*
D21*
X20523000Y28433000D03*
X21031000Y25639000D03*
X1092000Y28052000D03*
X19253000Y17384000D03*
D22*
X2362000Y31735000D03*
X18364000Y14717000D03*
D21*
X19315500Y41260000D03*
D22*
X12903000Y11415000D03*
D21*
X17094000Y33513000D03*
D22*
X14173000Y8875000D03*
X7950000Y12050000D03*
D21*
X13665000Y31100000D03*
X20523000Y35545000D03*
X24460000Y1255000D03*
D22*
X18618000Y8494000D03*
X18491000Y11415000D03*
D21*
X3378000Y39355000D03*
X2743000Y41260000D03*
X17094000Y36942000D03*
D22*
X3886000Y20813000D03*
X1092000Y35545000D03*
D21*
X29413000Y23861000D03*
X27381000Y16114000D03*
D22*
X7950000Y33640000D03*
D21*
X27381000Y10018000D03*
X19634000Y23353000D03*
X27127000Y18273000D03*
X27127000Y21067000D03*
X29413000Y26147000D03*
X25095000Y21067000D03*
X25095000Y18273000D03*
X25603000Y10018000D03*
X22047000Y13955000D03*
X23825000Y13955000D03*
X29159000Y16114000D03*
X25603000Y11923000D03*
X26111000Y22464000D03*
X22047000Y16114000D03*
X14173000Y16495000D03*
X25603000Y13955000D03*
X29159000Y13955000D03*
D22*
X4709992Y26842636D03*
D21*
X19634000Y22083000D03*
D22*
X11506000Y33640000D03*
D21*
X29413000Y18273000D03*
X26111000Y19670000D03*
X27381000Y11923000D03*
X27127000Y23861000D03*
X27381000Y13955000D03*
X27127000Y26147000D03*
X23825000Y11923000D03*
X23825000Y10018000D03*
X23825000Y16114000D03*
X25603000Y16114000D03*
X25095000Y23861000D03*
D22*
X16205000Y23099000D03*
X11887000Y22210000D03*
X4648000Y21702000D03*
D21*
X20523000Y30084000D03*
X26111000Y32751000D03*
X25095000Y34148000D03*
X25095000Y31354000D03*
X22047000Y17384000D03*
X27127000Y31354000D03*
X20523000Y31354000D03*
D22*
X5918000Y31989000D03*
X3251000Y8748000D03*
D21*
X20777000Y17384000D03*
X25095000Y28560000D03*
X29413000Y28560000D03*
D22*
X27889000Y42276000D03*
D21*
X29413000Y34148000D03*
D22*
X3886000Y36942000D03*
D21*
X27127000Y28560000D03*
X27127000Y34148000D03*
X26111000Y29957000D03*
X27635000Y43673000D03*
X23825000Y26909000D03*
X27635000Y44943000D03*
X20904000Y44562000D03*
X20904000Y45832000D03*
D22*
X7442000Y18781000D03*
D21*
X25095000Y26909000D03*
X21920000Y45197000D03*
D22*
X12268000Y43800000D03*
X19151400Y27036000D03*
X13665000Y43800000D03*
X16840000Y27289500D03*
X17983000Y26782000D03*
X15062000Y43800000D03*
X4140141Y19670000D03*
X1727000Y8748000D03*
X20015000Y38593000D03*
X7188000Y22845000D03*
X22174000Y6589000D03*
D23*
X11765000Y5110000D02*
X10027000Y5110000D01*
X22047000Y17384000D02*
X20777000Y17384000D01*
%TA.AperFunction,Conductor*%
G36*
X14770858Y54725498D02*
G01*
X14817351Y54671842D01*
X14827455Y54601568D01*
X14797961Y54536988D01*
X14787622Y54526385D01*
X14740565Y54483488D01*
X14740563Y54483486D01*
X14611231Y54312221D01*
X14611227Y54312216D01*
X14515573Y54120116D01*
X14515570Y54120110D01*
X14456840Y53913693D01*
X14456840Y53913689D01*
X14442000Y53753541D01*
X14442000Y53708000D01*
X15200000Y53708000D01*
X15200000Y52668519D01*
X15214835Y52574852D01*
X15272359Y52461955D01*
X15361955Y52372359D01*
X15474852Y52314835D01*
X15600000Y52295014D01*
X15725148Y52314835D01*
X15838045Y52372359D01*
X15927641Y52461955D01*
X15985165Y52574852D01*
X16000000Y52668519D01*
X16000000Y52692000D01*
X16108000Y52692000D01*
X16108000Y51654942D01*
X16118378Y51658962D01*
X16300843Y51771939D01*
X16459437Y51916517D01*
X16588768Y52087780D01*
X16588772Y52087785D01*
X16684426Y52279885D01*
X16684429Y52279891D01*
X16743159Y52486308D01*
X16743159Y52486312D01*
X16757587Y52642000D01*
X19331679Y52642000D01*
X19336840Y52586311D01*
X19336840Y52586307D01*
X19395570Y52379891D01*
X19395573Y52379885D01*
X19491227Y52187785D01*
X19491231Y52187780D01*
X19620562Y52016517D01*
X19779156Y51871939D01*
X19961621Y51758962D01*
X19972000Y51754942D01*
X19972000Y52642000D01*
X19331679Y52642000D01*
X16757587Y52642000D01*
X16758000Y52646460D01*
X16758000Y52692000D01*
X16108000Y52692000D01*
X16000000Y52692000D01*
X16000000Y53708000D01*
X16758000Y53708000D01*
X16758000Y53753541D01*
X16743159Y53913689D01*
X16743159Y53913693D01*
X16684429Y54120110D01*
X16684426Y54120116D01*
X16588772Y54312216D01*
X16588768Y54312221D01*
X16459436Y54483486D01*
X16459434Y54483488D01*
X16412378Y54526385D01*
X16375511Y54587059D01*
X16377300Y54658033D01*
X16417176Y54716773D01*
X16482479Y54744630D01*
X16497263Y54745500D01*
X19848994Y54745500D01*
X19917115Y54725498D01*
X19963608Y54671842D01*
X19973712Y54601568D01*
X19944218Y54536988D01*
X19915324Y54512372D01*
X19779156Y54428062D01*
X19620562Y54283484D01*
X19491231Y54112221D01*
X19491227Y54112216D01*
X19395573Y53920116D01*
X19395570Y53920110D01*
X19336840Y53713694D01*
X19336840Y53713690D01*
X19331679Y53658000D01*
X20137050Y53658000D01*
X20094835Y53575148D01*
X20080000Y53481481D01*
X20080000Y52818519D01*
X20094835Y52724852D01*
X20152359Y52611955D01*
X20241955Y52522359D01*
X20354852Y52464835D01*
X20480000Y52445014D01*
X20605148Y52464835D01*
X20718045Y52522359D01*
X20807641Y52611955D01*
X20822950Y52642000D01*
X20988000Y52642000D01*
X20988000Y51754942D01*
X20998378Y51758962D01*
X21180843Y51871939D01*
X21339437Y52016517D01*
X21468768Y52187780D01*
X21468772Y52187785D01*
X21564426Y52379885D01*
X21564429Y52379891D01*
X21623159Y52586307D01*
X21623159Y52586311D01*
X21628321Y52642000D01*
X27971679Y52642000D01*
X27976840Y52586311D01*
X27976840Y52586307D01*
X28035570Y52379891D01*
X28035573Y52379885D01*
X28131227Y52187785D01*
X28131231Y52187780D01*
X28260562Y52016517D01*
X28419156Y51871939D01*
X28601621Y51758962D01*
X28612000Y51754942D01*
X28612000Y52642000D01*
X27971679Y52642000D01*
X21628321Y52642000D01*
X20988000Y52642000D01*
X20822950Y52642000D01*
X20865165Y52724852D01*
X20880000Y52818519D01*
X20880000Y53481481D01*
X20865165Y53575148D01*
X20822950Y53658000D01*
X21628320Y53658000D01*
X21623159Y53713690D01*
X21623159Y53713694D01*
X21564429Y53920110D01*
X21564426Y53920116D01*
X21468772Y54112216D01*
X21468768Y54112221D01*
X21339437Y54283484D01*
X21180843Y54428062D01*
X21044676Y54512372D01*
X20997288Y54565239D01*
X20986005Y54635334D01*
X21014409Y54700401D01*
X21073481Y54739783D01*
X21111006Y54745500D01*
X28488994Y54745500D01*
X28557115Y54725498D01*
X28603608Y54671842D01*
X28613712Y54601568D01*
X28584218Y54536988D01*
X28555324Y54512372D01*
X28419156Y54428062D01*
X28260562Y54283484D01*
X28131231Y54112221D01*
X28131227Y54112216D01*
X28035573Y53920116D01*
X28035570Y53920110D01*
X27976840Y53713694D01*
X27976840Y53713690D01*
X27971679Y53658000D01*
X28777050Y53658000D01*
X28734835Y53575148D01*
X28720000Y53481481D01*
X28720000Y52818519D01*
X28734835Y52724852D01*
X28792359Y52611955D01*
X28881955Y52522359D01*
X28994852Y52464835D01*
X29120000Y52445014D01*
X29245148Y52464835D01*
X29358045Y52522359D01*
X29447641Y52611955D01*
X29462950Y52642000D01*
X29628000Y52642000D01*
X29628000Y51754942D01*
X29638378Y51758962D01*
X29820843Y51871939D01*
X29979437Y52016517D01*
X30108768Y52187780D01*
X30108772Y52187785D01*
X30204426Y52379885D01*
X30204429Y52379891D01*
X30263159Y52586307D01*
X30263159Y52586311D01*
X30268321Y52642000D01*
X29628000Y52642000D01*
X29462950Y52642000D01*
X29505165Y52724852D01*
X29520000Y52818519D01*
X29520000Y53481481D01*
X29505165Y53575148D01*
X29462950Y53658000D01*
X30268320Y53658000D01*
X30263159Y53713690D01*
X30263159Y53713694D01*
X30204429Y53920110D01*
X30204426Y53920116D01*
X30108772Y54112216D01*
X30108768Y54112221D01*
X29979437Y54283484D01*
X29820843Y54428062D01*
X29684676Y54512372D01*
X29637288Y54565239D01*
X29626005Y54635334D01*
X29654409Y54700401D01*
X29713481Y54739783D01*
X29751006Y54745500D01*
X30619500Y54745500D01*
X30687621Y54725498D01*
X30734114Y54671842D01*
X30745500Y54619500D01*
X30745500Y35600300D01*
X30725498Y35532179D01*
X30671842Y35485686D01*
X30619500Y35474300D01*
X28423061Y35474300D01*
X28413277Y35473770D01*
X28406284Y35473390D01*
X28369800Y35469424D01*
X28362477Y35468627D01*
X28345904Y35465910D01*
X28345905Y35465910D01*
X28345893Y35465908D01*
X28012887Y35392607D01*
X28006153Y35391504D01*
X27679442Y35355971D01*
X27673920Y35355370D01*
X27667103Y35355000D01*
X27332904Y35355000D01*
X27326087Y35355370D01*
X26993849Y35391503D01*
X26987112Y35392607D01*
X26654113Y35465907D01*
X26654111Y35465907D01*
X26654106Y35465908D01*
X26646176Y35467208D01*
X26637523Y35468627D01*
X26637525Y35468626D01*
X26637513Y35468628D01*
X26593717Y35473390D01*
X26586723Y35473770D01*
X26576940Y35474300D01*
X26576933Y35474300D01*
X21792000Y35474300D01*
X21791992Y35474300D01*
X21733371Y35467997D01*
X21726043Y35467209D01*
X21726039Y35467209D01*
X21726038Y35467208D01*
X21711006Y35463939D01*
X21673701Y35455823D01*
X21634892Y35444694D01*
X21536455Y35387125D01*
X21536450Y35387121D01*
X21482798Y35340631D01*
X21439955Y35295192D01*
X21388269Y35193538D01*
X21368271Y35125430D01*
X21368266Y35125409D01*
X21360928Y35074368D01*
X21331435Y35009787D01*
X21271709Y34971404D01*
X21236211Y34966300D01*
X19886992Y34966300D01*
X19828371Y34959997D01*
X19821043Y34959209D01*
X19768701Y34947823D01*
X19729892Y34936694D01*
X19631455Y34879125D01*
X19631450Y34879121D01*
X19577798Y34832631D01*
X19534955Y34787192D01*
X19483269Y34685538D01*
X19463271Y34617430D01*
X19463269Y34617421D01*
X19450700Y34529998D01*
X19450700Y29447993D01*
X19457791Y29382045D01*
X19457792Y29382039D01*
X19469177Y29329702D01*
X19469177Y29329701D01*
X19480306Y29290893D01*
X19480307Y29290892D01*
X19537876Y29192455D01*
X19584369Y29138799D01*
X19629808Y29095956D01*
X19731458Y29044271D01*
X19799579Y29024269D01*
X19887000Y29011700D01*
X21102700Y29011700D01*
X21170821Y28991698D01*
X21217314Y28938042D01*
X21228700Y28885700D01*
X21228700Y27923993D01*
X21235791Y27858045D01*
X21235792Y27858039D01*
X21247177Y27805702D01*
X21247177Y27805701D01*
X21258306Y27766893D01*
X21315875Y27668456D01*
X21315879Y27668451D01*
X21362369Y27614799D01*
X21407808Y27571956D01*
X21509458Y27520271D01*
X21577579Y27500269D01*
X21665000Y27487700D01*
X23069560Y27487700D01*
X23137681Y27467698D01*
X23184174Y27414042D01*
X23194278Y27343768D01*
X23176247Y27294664D01*
X23140919Y27238441D01*
X23140918Y27238438D01*
X23109635Y27149035D01*
X23084763Y27077954D01*
X23065726Y26909000D01*
X23084763Y26740046D01*
X23130135Y26610379D01*
X23133753Y26539476D01*
X23098464Y26477871D01*
X23086714Y26467898D01*
X23028454Y26424286D01*
X23028445Y26424278D01*
X21223614Y24619445D01*
X21223609Y24619440D01*
X21212502Y24607076D01*
X21195717Y24586247D01*
X21190389Y24579635D01*
X21185957Y24574006D01*
X21185953Y24574000D01*
X21134272Y24472356D01*
X21134270Y24472351D01*
X21114271Y24404241D01*
X21114269Y24404232D01*
X21101700Y24316809D01*
X21101700Y18323288D01*
X21105713Y18285968D01*
X21093107Y18216100D01*
X21044729Y18164138D01*
X20980435Y18146500D01*
X20732585Y18146500D01*
X20599958Y18130999D01*
X20599956Y18130998D01*
X20432463Y18070036D01*
X20432457Y18070033D01*
X20283542Y17972090D01*
X20161216Y17842433D01*
X20072094Y17688069D01*
X20038012Y17574228D01*
X20020972Y17517308D01*
X20010608Y17339363D01*
X20038870Y17179082D01*
X20041561Y17163820D01*
X20041561Y17163819D01*
X20112156Y17000161D01*
X20112157Y17000160D01*
X20112159Y17000158D01*
X20112160Y17000155D01*
X20218602Y16857178D01*
X20218604Y16857177D01*
X20218605Y16857175D01*
X20257618Y16824440D01*
X20355147Y16742604D01*
X20355151Y16742602D01*
X20514427Y16662609D01*
X20514430Y16662608D01*
X20514434Y16662606D01*
X20687877Y16621500D01*
X20981708Y16621500D01*
X21049829Y16601498D01*
X21096322Y16547842D01*
X21106426Y16477569D01*
X21101700Y16444698D01*
X21101700Y14531824D01*
X21081698Y14463703D01*
X21028042Y14417210D01*
X20957768Y14407106D01*
X20893188Y14436600D01*
X20890814Y14438709D01*
X20834066Y14490442D01*
X20653891Y14602002D01*
X20653886Y14602004D01*
X20653885Y14602005D01*
X20456277Y14678559D01*
X20456278Y14678559D01*
X20456275Y14678560D01*
X20456274Y14678560D01*
X20247961Y14717500D01*
X20036039Y14717500D01*
X19827726Y14678560D01*
X19827721Y14678559D01*
X19630119Y14602007D01*
X19630108Y14602002D01*
X19449933Y14490442D01*
X19293324Y14347674D01*
X19165612Y14178556D01*
X19071150Y13988850D01*
X19071147Y13988842D01*
X19013154Y13785017D01*
X18993601Y13574005D01*
X18993601Y13573996D01*
X19013154Y13362984D01*
X19018764Y13343266D01*
X19071150Y13159150D01*
X19165611Y12969446D01*
X19165612Y12969445D01*
X19293324Y12800327D01*
X19449933Y12657559D01*
X19630108Y12545999D01*
X19630110Y12545999D01*
X19630115Y12545995D01*
X19827726Y12469440D01*
X20036039Y12430500D01*
X20036041Y12430500D01*
X20247959Y12430500D01*
X20247961Y12430500D01*
X20456274Y12469440D01*
X20653885Y12545995D01*
X20834065Y12657558D01*
X20979094Y12789771D01*
X21042907Y12820880D01*
X21113414Y12812551D01*
X21168224Y12767425D01*
X21174561Y12757046D01*
X21176560Y12753385D01*
X21176563Y12753381D01*
X21229490Y12682681D01*
X21445795Y12466376D01*
X21479819Y12404066D01*
X21482699Y12377282D01*
X21482699Y9509005D01*
X21482700Y9508993D01*
X21488215Y9457701D01*
X21489791Y9443043D01*
X21498610Y9402500D01*
X21501177Y9390702D01*
X21501177Y9390701D01*
X21512306Y9351893D01*
X21548154Y9290598D01*
X21569876Y9253455D01*
X21616369Y9199799D01*
X21661808Y9156956D01*
X21763458Y9105271D01*
X21831579Y9085269D01*
X21919000Y9072700D01*
X21919003Y9072700D01*
X30619500Y9072700D01*
X30687621Y9052698D01*
X30734114Y8999042D01*
X30745500Y8946700D01*
X30745500Y380500D01*
X30725498Y312379D01*
X30671842Y265886D01*
X30619500Y254500D01*
X380500Y254500D01*
X312379Y274502D01*
X265886Y328158D01*
X254500Y380500D01*
X254500Y3129997D01*
X9560398Y3129997D01*
X9580756Y2923289D01*
X9641055Y2724508D01*
X9738974Y2541314D01*
X9870747Y2380748D01*
X10031313Y2248976D01*
X10031313Y2248975D01*
X10031317Y2248973D01*
X10214508Y2151055D01*
X10413282Y2090758D01*
X10413286Y2090758D01*
X10413288Y2090757D01*
X10619997Y2070398D01*
X10620000Y2070398D01*
X10620003Y2070398D01*
X10826711Y2090757D01*
X10826712Y2090758D01*
X10826718Y2090758D01*
X11025492Y2151055D01*
X11208683Y2248973D01*
X11208684Y2248975D01*
X11208686Y2248975D01*
X11208686Y2248976D01*
X11369252Y2380748D01*
X11501027Y2541317D01*
X11598945Y2724508D01*
X11644426Y2874442D01*
X11683340Y2933821D01*
X11748181Y2962736D01*
X11818362Y2952006D01*
X11871601Y2905037D01*
X11885572Y2874444D01*
X11931055Y2724508D01*
X12028974Y2541314D01*
X12160747Y2380748D01*
X12321313Y2248976D01*
X12321313Y2248975D01*
X12321317Y2248973D01*
X12504508Y2151055D01*
X12703282Y2090758D01*
X12703286Y2090758D01*
X12703288Y2090757D01*
X12909997Y2070398D01*
X12910000Y2070398D01*
X12910003Y2070398D01*
X13116711Y2090757D01*
X13116712Y2090758D01*
X13116718Y2090758D01*
X13315492Y2151055D01*
X13498683Y2248973D01*
X13498684Y2248975D01*
X13498686Y2248975D01*
X13498686Y2248976D01*
X13659252Y2380748D01*
X13791027Y2541317D01*
X13888945Y2724508D01*
X13934426Y2874442D01*
X13973340Y2933821D01*
X14038181Y2962736D01*
X14108362Y2952006D01*
X14161601Y2905037D01*
X14175572Y2874444D01*
X14221055Y2724508D01*
X14318974Y2541314D01*
X14450747Y2380748D01*
X14611313Y2248976D01*
X14611313Y2248975D01*
X14611317Y2248973D01*
X14794508Y2151055D01*
X14993282Y2090758D01*
X14993286Y2090758D01*
X14993288Y2090757D01*
X15199997Y2070398D01*
X15200000Y2070398D01*
X15200003Y2070398D01*
X15406711Y2090757D01*
X15406712Y2090758D01*
X15406718Y2090758D01*
X15605492Y2151055D01*
X15788683Y2248973D01*
X15788684Y2248975D01*
X15788686Y2248975D01*
X15788686Y2248976D01*
X15949252Y2380748D01*
X16081027Y2541317D01*
X16178945Y2724508D01*
X16224426Y2874442D01*
X16263340Y2933821D01*
X16328181Y2962736D01*
X16398362Y2952006D01*
X16451601Y2905037D01*
X16465572Y2874444D01*
X16511055Y2724508D01*
X16608974Y2541314D01*
X16740747Y2380748D01*
X16901313Y2248976D01*
X16901313Y2248975D01*
X16901317Y2248973D01*
X17084508Y2151055D01*
X17283282Y2090758D01*
X17283286Y2090758D01*
X17283288Y2090757D01*
X17489997Y2070398D01*
X17490000Y2070398D01*
X17490003Y2070398D01*
X17696711Y2090757D01*
X17696712Y2090758D01*
X17696718Y2090758D01*
X17895492Y2151055D01*
X18078683Y2248973D01*
X18078684Y2248975D01*
X18078686Y2248975D01*
X18078686Y2248976D01*
X18239252Y2380748D01*
X18371027Y2541317D01*
X18468945Y2724508D01*
X18514426Y2874442D01*
X18553340Y2933821D01*
X18618181Y2962736D01*
X18688362Y2952006D01*
X18741601Y2905037D01*
X18755572Y2874444D01*
X18801055Y2724508D01*
X18898974Y2541314D01*
X19030747Y2380748D01*
X19191313Y2248976D01*
X19191313Y2248975D01*
X19191317Y2248973D01*
X19374508Y2151055D01*
X19573282Y2090758D01*
X19573286Y2090758D01*
X19573288Y2090757D01*
X19779997Y2070398D01*
X19780000Y2070398D01*
X19780003Y2070398D01*
X19986711Y2090757D01*
X19986712Y2090758D01*
X19986718Y2090758D01*
X20185492Y2151055D01*
X20368683Y2248973D01*
X20368684Y2248975D01*
X20368686Y2248975D01*
X20368686Y2248976D01*
X20529252Y2380748D01*
X20661027Y2541317D01*
X20758945Y2724508D01*
X20819242Y2923282D01*
X20839602Y3130000D01*
X20819242Y3336718D01*
X20758945Y3535492D01*
X20713838Y3619880D01*
X20699367Y3689385D01*
X20724771Y3755681D01*
X20781984Y3797719D01*
X20835943Y3804796D01*
X20925000Y3797005D01*
X21153002Y3816952D01*
X21374068Y3876187D01*
X21374071Y3876188D01*
X21419301Y3897279D01*
X21419301Y3897280D01*
X20295675Y5020906D01*
X20286280Y5038111D01*
X20425000Y5038111D01*
X20465507Y4900156D01*
X20543239Y4779202D01*
X20651900Y4685048D01*
X20782685Y4625320D01*
X20889237Y4610000D01*
X20960763Y4610000D01*
X21067315Y4625320D01*
X21198100Y4685048D01*
X21306761Y4779202D01*
X21384493Y4900156D01*
X21425000Y5038111D01*
X21425000Y5181889D01*
X21384493Y5319844D01*
X21306761Y5440798D01*
X21198100Y5534952D01*
X21067315Y5594680D01*
X20960763Y5610000D01*
X20889237Y5610000D01*
X20782685Y5594680D01*
X20651900Y5534952D01*
X20543239Y5440798D01*
X20465507Y5319844D01*
X20425000Y5181889D01*
X20425000Y5038111D01*
X20286280Y5038111D01*
X20261649Y5083218D01*
X20266714Y5154033D01*
X20295675Y5199096D01*
X20835904Y5739325D01*
X20898216Y5773351D01*
X20969031Y5768286D01*
X21014094Y5739325D01*
X22137720Y4615699D01*
X22137721Y4615699D01*
X22158812Y4660929D01*
X22158813Y4660932D01*
X22218048Y4881998D01*
X22237995Y5110000D01*
X22218048Y5338003D01*
X22158813Y5559069D01*
X22158811Y5559074D01*
X22067333Y5755250D01*
X22056672Y5825442D01*
X22085652Y5890254D01*
X22145072Y5929111D01*
X22181528Y5934500D01*
X22253470Y5934500D01*
X22253471Y5934500D01*
X22407793Y5972537D01*
X22548529Y6046401D01*
X22667498Y6151799D01*
X22757787Y6282605D01*
X22814149Y6431218D01*
X22814149Y6431219D01*
X22814150Y6431221D01*
X22833307Y6588997D01*
X22833307Y6589004D01*
X22814150Y6746780D01*
X22800538Y6782669D01*
X22757787Y6895395D01*
X22667498Y7026201D01*
X22548529Y7131599D01*
X22548528Y7131600D01*
X22548525Y7131602D01*
X22407797Y7205461D01*
X22407795Y7205462D01*
X22407793Y7205463D01*
X22407791Y7205464D01*
X22407790Y7205464D01*
X22253472Y7243500D01*
X22253471Y7243500D01*
X22094529Y7243500D01*
X22094527Y7243500D01*
X21940209Y7205464D01*
X21940202Y7205461D01*
X21799474Y7131602D01*
X21799469Y7131598D01*
X21680501Y7026200D01*
X21590215Y6895399D01*
X21590212Y6895393D01*
X21533849Y6746780D01*
X21514693Y6589004D01*
X21514693Y6588996D01*
X21527709Y6481794D01*
X21516064Y6411759D01*
X21468403Y6359138D01*
X21399859Y6340637D01*
X21370017Y6344900D01*
X21153000Y6403049D01*
X21153004Y6403049D01*
X20924999Y6422996D01*
X20835941Y6415205D01*
X20766337Y6429195D01*
X20715345Y6478595D01*
X20699155Y6547721D01*
X20713837Y6600119D01*
X20758945Y6684508D01*
X20819242Y6883282D01*
X20820436Y6895399D01*
X20839602Y7089997D01*
X20839602Y7090004D01*
X20819243Y7296712D01*
X20819242Y7296714D01*
X20819242Y7296718D01*
X20758945Y7495492D01*
X20661027Y7678683D01*
X20661025Y7678687D01*
X20529252Y7839253D01*
X20368686Y7971025D01*
X20368686Y7971026D01*
X20185492Y8068945D01*
X19986711Y8129244D01*
X19780003Y8149602D01*
X19779997Y8149602D01*
X19573288Y8129244D01*
X19374507Y8068945D01*
X19191313Y7971026D01*
X19191313Y7971025D01*
X19030747Y7839253D01*
X18898975Y7678687D01*
X18898974Y7678687D01*
X18801055Y7495493D01*
X18755575Y7345562D01*
X18716660Y7286180D01*
X18651818Y7257265D01*
X18581637Y7267995D01*
X18528399Y7314964D01*
X18514425Y7345562D01*
X18468945Y7495492D01*
X18371027Y7678683D01*
X18371025Y7678687D01*
X18239252Y7839253D01*
X18078686Y7971025D01*
X18078686Y7971026D01*
X17895492Y8068945D01*
X17696711Y8129244D01*
X17490003Y8149602D01*
X17489997Y8149602D01*
X17283288Y8129244D01*
X17084507Y8068945D01*
X16901313Y7971026D01*
X16901313Y7971025D01*
X16740747Y7839253D01*
X16608975Y7678687D01*
X16608974Y7678687D01*
X16511055Y7495493D01*
X16465575Y7345562D01*
X16426660Y7286180D01*
X16361818Y7257265D01*
X16291637Y7267995D01*
X16238399Y7314964D01*
X16224425Y7345562D01*
X16178945Y7495492D01*
X16081027Y7678683D01*
X16081025Y7678687D01*
X15949252Y7839253D01*
X15788686Y7971025D01*
X15788686Y7971026D01*
X15605492Y8068945D01*
X15406711Y8129244D01*
X15200003Y8149602D01*
X15199997Y8149602D01*
X14993288Y8129244D01*
X14794507Y8068945D01*
X14611313Y7971026D01*
X14611313Y7971025D01*
X14450747Y7839253D01*
X14318975Y7678687D01*
X14318974Y7678687D01*
X14221055Y7495493D01*
X14175575Y7345562D01*
X14136660Y7286180D01*
X14071818Y7257265D01*
X14001637Y7267995D01*
X13948399Y7314964D01*
X13934425Y7345562D01*
X13888945Y7495492D01*
X13791027Y7678683D01*
X13791025Y7678687D01*
X13659252Y7839253D01*
X13498686Y7971025D01*
X13498686Y7971026D01*
X13315492Y8068945D01*
X13116711Y8129244D01*
X12910003Y8149602D01*
X12909997Y8149602D01*
X12703288Y8129244D01*
X12504507Y8068945D01*
X12321313Y7971026D01*
X12321313Y7971025D01*
X12160747Y7839253D01*
X12028975Y7678687D01*
X12028974Y7678686D01*
X12009020Y7641355D01*
X11959267Y7590708D01*
X11890030Y7574999D01*
X11876020Y7576667D01*
X11832720Y7584302D01*
X10620000Y6371579D01*
X10125698Y5877280D01*
X10125698Y5877279D01*
X10170928Y5856188D01*
X10391999Y5796952D01*
X10391995Y5796952D01*
X10453045Y5791611D01*
X10519164Y5765748D01*
X10560803Y5708244D01*
X10564744Y5637357D01*
X10556259Y5612842D01*
X10531192Y5559084D01*
X10531186Y5559069D01*
X10471951Y5338003D01*
X10452004Y5110000D01*
X10471951Y4881998D01*
X10531186Y4660932D01*
X10531188Y4660927D01*
X10627912Y4453502D01*
X10676650Y4383897D01*
X10699338Y4316623D01*
X10682053Y4247763D01*
X10630283Y4199178D01*
X10585787Y4186233D01*
X10413288Y4169244D01*
X10214507Y4108945D01*
X10031313Y4011026D01*
X10031313Y4011025D01*
X9870747Y3879253D01*
X9738975Y3718687D01*
X9738974Y3718687D01*
X9641055Y3535493D01*
X9580756Y3336712D01*
X9560398Y3130004D01*
X9560398Y3129997D01*
X254500Y3129997D01*
X254500Y7090000D01*
X9307004Y7090000D01*
X9326951Y6861998D01*
X9386186Y6640932D01*
X9386188Y6640926D01*
X9407277Y6595700D01*
X9407278Y6595699D01*
X9829690Y7018111D01*
X10120000Y7018111D01*
X10160507Y6880156D01*
X10238239Y6759202D01*
X10346900Y6665048D01*
X10477685Y6605320D01*
X10584237Y6590000D01*
X10655763Y6590000D01*
X10762315Y6605320D01*
X10893100Y6665048D01*
X11001761Y6759202D01*
X11079493Y6880156D01*
X11120000Y7018111D01*
X11120000Y7161889D01*
X11079493Y7299844D01*
X11001761Y7420798D01*
X10893100Y7514952D01*
X10762315Y7574680D01*
X10655763Y7590000D01*
X10584237Y7590000D01*
X10477685Y7574680D01*
X10346900Y7514952D01*
X10238239Y7420798D01*
X10160507Y7299844D01*
X10120000Y7161889D01*
X10120000Y7018111D01*
X9829690Y7018111D01*
X9901580Y7090001D01*
X9407279Y7584302D01*
X9407276Y7584302D01*
X9386187Y7539075D01*
X9326951Y7318003D01*
X9307004Y7090000D01*
X254500Y7090000D01*
X254500Y8747997D01*
X1067693Y8747997D01*
X1086849Y8590221D01*
X1135447Y8462081D01*
X1143213Y8441605D01*
X1233502Y8310799D01*
X1352471Y8205401D01*
X1352472Y8205401D01*
X1352474Y8205399D01*
X1427200Y8166180D01*
X1493207Y8131537D01*
X1647529Y8093500D01*
X1647530Y8093500D01*
X1806470Y8093500D01*
X1806471Y8093500D01*
X1960793Y8131537D01*
X2101529Y8205401D01*
X2220498Y8310799D01*
X2310787Y8441605D01*
X2367149Y8590218D01*
X2367148Y8590218D01*
X2369852Y8597345D01*
X2371582Y8596689D01*
X2402382Y8649591D01*
X2465604Y8681894D01*
X2536254Y8674888D01*
X2591902Y8630799D01*
X2607321Y8597032D01*
X2608148Y8597345D01*
X2610851Y8590218D01*
X2667213Y8441605D01*
X2757502Y8310799D01*
X2876471Y8205401D01*
X2876472Y8205401D01*
X2876474Y8205399D01*
X2951200Y8166180D01*
X3017207Y8131537D01*
X3171529Y8093500D01*
X3171530Y8093500D01*
X3330470Y8093500D01*
X3330471Y8093500D01*
X3484793Y8131537D01*
X3625529Y8205401D01*
X3735380Y8302721D01*
X10125698Y8302721D01*
X10619999Y7808420D01*
X10620000Y7808420D01*
X11114301Y8302722D01*
X11114300Y8302723D01*
X11069074Y8323812D01*
X11069068Y8323814D01*
X10848000Y8383049D01*
X10848004Y8383049D01*
X10620000Y8402996D01*
X10391997Y8383049D01*
X10170925Y8323813D01*
X10125698Y8302724D01*
X10125698Y8302721D01*
X3735380Y8302721D01*
X3744498Y8310799D01*
X3834787Y8441605D01*
X3891149Y8590218D01*
X3891149Y8590219D01*
X3891150Y8590221D01*
X3910307Y8747997D01*
X3910307Y8748004D01*
X3891150Y8905780D01*
X3875631Y8946700D01*
X3834787Y9054395D01*
X3744498Y9185201D01*
X3625529Y9290599D01*
X3625528Y9290600D01*
X3625525Y9290602D01*
X3484797Y9364461D01*
X3484795Y9364462D01*
X3484793Y9364463D01*
X3484791Y9364464D01*
X3484790Y9364464D01*
X3330472Y9402500D01*
X3330471Y9402500D01*
X3171529Y9402500D01*
X3171527Y9402500D01*
X3017209Y9364464D01*
X3017202Y9364461D01*
X2876474Y9290602D01*
X2876469Y9290598D01*
X2757501Y9185200D01*
X2667215Y9054399D01*
X2667212Y9054393D01*
X2608148Y8898655D01*
X2606418Y8899311D01*
X2575614Y8846406D01*
X2512391Y8814106D01*
X2441741Y8821115D01*
X2386095Y8865207D01*
X2370677Y8898968D01*
X2369852Y8898655D01*
X2351631Y8946700D01*
X2310787Y9054395D01*
X2220498Y9185201D01*
X2101529Y9290599D01*
X2101528Y9290600D01*
X2101525Y9290602D01*
X1960797Y9364461D01*
X1960795Y9364462D01*
X1960793Y9364463D01*
X1960791Y9364464D01*
X1960790Y9364464D01*
X1806472Y9402500D01*
X1806471Y9402500D01*
X1647529Y9402500D01*
X1647527Y9402500D01*
X1493209Y9364464D01*
X1493202Y9364461D01*
X1352474Y9290602D01*
X1352469Y9290598D01*
X1233501Y9185200D01*
X1143215Y9054399D01*
X1143212Y9054393D01*
X1086849Y8905780D01*
X1067693Y8748004D01*
X1067693Y8747997D01*
X254500Y8747997D01*
X254500Y12291056D01*
X13227474Y12291056D01*
X13228907Y12290280D01*
X13228910Y12290279D01*
X13447876Y12215108D01*
X13447885Y12215106D01*
X13676245Y12177000D01*
X13907755Y12177000D01*
X14136114Y12215106D01*
X14136123Y12215108D01*
X14355088Y12290279D01*
X14356523Y12291056D01*
X13792000Y12855580D01*
X13791999Y12855580D01*
X13227474Y12291056D01*
X254500Y12291056D01*
X254500Y13574000D01*
X12390212Y13574000D01*
X12409332Y13343266D01*
X12466163Y13118844D01*
X12466166Y13118837D01*
X12512586Y13013009D01*
X13001689Y13502111D01*
X13292000Y13502111D01*
X13332507Y13364156D01*
X13410239Y13243202D01*
X13518900Y13149048D01*
X13649685Y13089320D01*
X13756237Y13074000D01*
X13827763Y13074000D01*
X13934315Y13089320D01*
X14065100Y13149048D01*
X14173761Y13243202D01*
X14251493Y13364156D01*
X14292000Y13502111D01*
X14292000Y13574001D01*
X14510419Y13574001D01*
X15071412Y13013010D01*
X15117834Y13118840D01*
X15117835Y13118842D01*
X15174667Y13343266D01*
X15193787Y13573996D01*
X15818601Y13573996D01*
X15838154Y13362984D01*
X15843764Y13343266D01*
X15896150Y13159150D01*
X15990611Y12969446D01*
X15990612Y12969445D01*
X16118324Y12800327D01*
X16274933Y12657559D01*
X16455108Y12545999D01*
X16455110Y12545999D01*
X16455115Y12545995D01*
X16652726Y12469440D01*
X16861039Y12430500D01*
X16861041Y12430500D01*
X17072959Y12430500D01*
X17072961Y12430500D01*
X17281274Y12469440D01*
X17478885Y12545995D01*
X17659065Y12657558D01*
X17815677Y12800329D01*
X17943389Y12969446D01*
X18037850Y13159150D01*
X18095845Y13362982D01*
X18102363Y13433322D01*
X18115399Y13573996D01*
X18115399Y13574005D01*
X18095845Y13785017D01*
X18061764Y13904798D01*
X18037850Y13988850D01*
X17943389Y14178554D01*
X17815677Y14347671D01*
X17815675Y14347674D01*
X17659066Y14490442D01*
X17478891Y14602002D01*
X17478886Y14602004D01*
X17478885Y14602005D01*
X17281277Y14678559D01*
X17281278Y14678559D01*
X17281275Y14678560D01*
X17281274Y14678560D01*
X17072961Y14717500D01*
X16861039Y14717500D01*
X16652726Y14678560D01*
X16652721Y14678559D01*
X16455119Y14602007D01*
X16455108Y14602002D01*
X16274933Y14490442D01*
X16118324Y14347674D01*
X15990612Y14178556D01*
X15896150Y13988850D01*
X15896147Y13988842D01*
X15838154Y13785017D01*
X15818601Y13574005D01*
X15818601Y13573996D01*
X15193787Y13573996D01*
X15193787Y13574000D01*
X15174667Y13804735D01*
X15117835Y14029159D01*
X15117833Y14029166D01*
X15071412Y14134993D01*
X15071411Y14134993D01*
X14510419Y13574001D01*
X14292000Y13574001D01*
X14292000Y13645889D01*
X14251493Y13783844D01*
X14173761Y13904798D01*
X14065100Y13998952D01*
X13934315Y14058680D01*
X13827763Y14074000D01*
X13756237Y14074000D01*
X13649685Y14058680D01*
X13518900Y13998952D01*
X13410239Y13904798D01*
X13332507Y13783844D01*
X13292000Y13645889D01*
X13292000Y13502111D01*
X13001689Y13502111D01*
X13073579Y13574001D01*
X12512587Y14134993D01*
X12466166Y14029164D01*
X12466163Y14029157D01*
X12409332Y13804735D01*
X12390212Y13574000D01*
X254500Y13574000D01*
X254500Y14856946D01*
X13227474Y14856946D01*
X13791999Y14292421D01*
X13792000Y14292421D01*
X14356523Y14856946D01*
X14355091Y14857721D01*
X14136123Y14932893D01*
X14136114Y14932895D01*
X13907755Y14971000D01*
X13676245Y14971000D01*
X13447885Y14932895D01*
X13447876Y14932893D01*
X13228905Y14857720D01*
X13227474Y14856947D01*
X13227474Y14856946D01*
X254500Y14856946D01*
X254500Y16495000D01*
X13413726Y16495000D01*
X13432763Y16326046D01*
X13432764Y16326044D01*
X13488918Y16165563D01*
X13488919Y16165561D01*
X13579375Y16021601D01*
X13579377Y16021598D01*
X13699597Y15901378D01*
X13699600Y15901376D01*
X13843563Y15810918D01*
X14004046Y15754763D01*
X14173000Y15735726D01*
X14341954Y15754763D01*
X14502437Y15810918D01*
X14646400Y15901376D01*
X14766624Y16021600D01*
X14857082Y16165563D01*
X14913237Y16326046D01*
X14932274Y16495000D01*
X14913237Y16663954D01*
X14857082Y16824437D01*
X14766624Y16968400D01*
X14766622Y16968403D01*
X14646402Y17088623D01*
X14646399Y17088625D01*
X14502439Y17179081D01*
X14502437Y17179082D01*
X14341954Y17235237D01*
X14173000Y17254274D01*
X14004046Y17235237D01*
X14004043Y17235237D01*
X14004043Y17235236D01*
X13843562Y17179082D01*
X13843560Y17179081D01*
X13699600Y17088625D01*
X13699597Y17088623D01*
X13579377Y16968403D01*
X13579375Y16968400D01*
X13488919Y16824440D01*
X13488918Y16824438D01*
X13460283Y16742602D01*
X13432763Y16663954D01*
X13413726Y16495000D01*
X254500Y16495000D01*
X254500Y18780997D01*
X6782693Y18780997D01*
X6801849Y18623221D01*
X6850447Y18495081D01*
X6858213Y18474605D01*
X6948502Y18343799D01*
X7067471Y18238401D01*
X7067472Y18238401D01*
X7067474Y18238399D01*
X7109962Y18216100D01*
X7208207Y18164537D01*
X7362529Y18126500D01*
X7362530Y18126500D01*
X7521470Y18126500D01*
X7521471Y18126500D01*
X7675793Y18164537D01*
X7816529Y18238401D01*
X7935498Y18343799D01*
X8025787Y18474605D01*
X8082149Y18623218D01*
X8082149Y18623219D01*
X8082150Y18623221D01*
X8101307Y18780997D01*
X8101307Y18781004D01*
X8082150Y18938780D01*
X8053053Y19015501D01*
X8025787Y19087395D01*
X7935498Y19218201D01*
X7816529Y19323599D01*
X7816528Y19323600D01*
X7816525Y19323602D01*
X7675797Y19397461D01*
X7675795Y19397462D01*
X7675793Y19397463D01*
X7675791Y19397464D01*
X7675790Y19397464D01*
X7521472Y19435500D01*
X7521471Y19435500D01*
X7362529Y19435500D01*
X7362527Y19435500D01*
X7208209Y19397464D01*
X7208202Y19397461D01*
X7067474Y19323602D01*
X7067469Y19323598D01*
X6948501Y19218200D01*
X6858215Y19087399D01*
X6858212Y19087393D01*
X6801849Y18938780D01*
X6782693Y18781004D01*
X6782693Y18780997D01*
X254500Y18780997D01*
X254500Y19669997D01*
X3480834Y19669997D01*
X3499990Y19512221D01*
X3543513Y19397464D01*
X3556354Y19363605D01*
X3646643Y19232799D01*
X3765612Y19127401D01*
X3765613Y19127401D01*
X3765615Y19127399D01*
X3840341Y19088180D01*
X3906348Y19053537D01*
X4060670Y19015500D01*
X4060671Y19015500D01*
X4219611Y19015500D01*
X4219612Y19015500D01*
X4373934Y19053537D01*
X4514670Y19127401D01*
X4633639Y19232799D01*
X4723928Y19363605D01*
X4780290Y19512218D01*
X4780290Y19512219D01*
X4780291Y19512221D01*
X4799448Y19669997D01*
X4799448Y19670004D01*
X4780291Y19827780D01*
X4766679Y19863669D01*
X4723928Y19976395D01*
X4633639Y20107201D01*
X4514670Y20212599D01*
X4514669Y20212600D01*
X4514666Y20212602D01*
X4373938Y20286461D01*
X4373936Y20286462D01*
X4373934Y20286463D01*
X4373932Y20286464D01*
X4373931Y20286464D01*
X4219613Y20324500D01*
X4219612Y20324500D01*
X4060670Y20324500D01*
X4060668Y20324500D01*
X3906350Y20286464D01*
X3906343Y20286461D01*
X3765615Y20212602D01*
X3765610Y20212598D01*
X3646642Y20107200D01*
X3556356Y19976399D01*
X3556353Y19976393D01*
X3499990Y19827780D01*
X3480834Y19670004D01*
X3480834Y19669997D01*
X254500Y19669997D01*
X254500Y21701997D01*
X3988693Y21701997D01*
X4007849Y21544221D01*
X4028649Y21489378D01*
X4064213Y21395605D01*
X4154502Y21264799D01*
X4273471Y21159401D01*
X4273472Y21159401D01*
X4273474Y21159399D01*
X4348200Y21120180D01*
X4414207Y21085537D01*
X4568529Y21047500D01*
X4568530Y21047500D01*
X4727470Y21047500D01*
X4727471Y21047500D01*
X4881793Y21085537D01*
X5022529Y21159401D01*
X5141498Y21264799D01*
X5231787Y21395605D01*
X5288149Y21544218D01*
X5288149Y21544219D01*
X5288150Y21544221D01*
X5307307Y21701997D01*
X5307307Y21702004D01*
X5288150Y21859780D01*
X5267569Y21914046D01*
X5231787Y22008395D01*
X5141498Y22139201D01*
X5022529Y22244599D01*
X5022528Y22244600D01*
X5022525Y22244602D01*
X4881797Y22318461D01*
X4881795Y22318462D01*
X4881793Y22318463D01*
X4881791Y22318464D01*
X4881790Y22318464D01*
X4727472Y22356500D01*
X4727471Y22356500D01*
X4568529Y22356500D01*
X4568527Y22356500D01*
X4414209Y22318464D01*
X4414202Y22318461D01*
X4273474Y22244602D01*
X4273469Y22244598D01*
X4154501Y22139200D01*
X4064215Y22008399D01*
X4064212Y22008393D01*
X4007849Y21859780D01*
X3988693Y21702004D01*
X3988693Y21701997D01*
X254500Y21701997D01*
X254500Y22844997D01*
X6528693Y22844997D01*
X6547849Y22687221D01*
X6569966Y22628905D01*
X6604213Y22538605D01*
X6694502Y22407799D01*
X6813471Y22302401D01*
X6813472Y22302401D01*
X6813474Y22302399D01*
X6888200Y22263180D01*
X6954207Y22228537D01*
X7108529Y22190500D01*
X7108530Y22190500D01*
X7267470Y22190500D01*
X7267471Y22190500D01*
X7346573Y22209997D01*
X11227693Y22209997D01*
X11246849Y22052221D01*
X11295447Y21924081D01*
X11303213Y21903605D01*
X11393502Y21772799D01*
X11512471Y21667401D01*
X11512472Y21667401D01*
X11512474Y21667399D01*
X11587200Y21628180D01*
X11653207Y21593537D01*
X11807529Y21555500D01*
X11807530Y21555500D01*
X11966470Y21555500D01*
X11966471Y21555500D01*
X12120793Y21593537D01*
X12261529Y21667401D01*
X12380498Y21772799D01*
X12470787Y21903605D01*
X12527149Y22052218D01*
X12527149Y22052219D01*
X12527150Y22052221D01*
X12530887Y22083000D01*
X18874726Y22083000D01*
X18893763Y21914046D01*
X18943186Y21772801D01*
X18949918Y21753563D01*
X18949919Y21753561D01*
X19040375Y21609601D01*
X19040377Y21609598D01*
X19160597Y21489378D01*
X19160600Y21489376D01*
X19304563Y21398918D01*
X19465046Y21342763D01*
X19634000Y21323726D01*
X19802954Y21342763D01*
X19963437Y21398918D01*
X20107400Y21489376D01*
X20227624Y21609600D01*
X20318082Y21753563D01*
X20374237Y21914046D01*
X20393274Y22083000D01*
X20374237Y22251954D01*
X20318082Y22412437D01*
X20227624Y22556400D01*
X20227623Y22556401D01*
X20227622Y22556403D01*
X20155120Y22628905D01*
X20121094Y22691217D01*
X20126159Y22762032D01*
X20155120Y22807095D01*
X20227622Y22879598D01*
X20227624Y22879600D01*
X20318082Y23023563D01*
X20374237Y23184046D01*
X20393274Y23353000D01*
X20374237Y23521954D01*
X20318082Y23682437D01*
X20227624Y23826400D01*
X20227622Y23826403D01*
X20107402Y23946623D01*
X20107399Y23946625D01*
X19963439Y24037081D01*
X19963437Y24037082D01*
X19802954Y24093237D01*
X19634000Y24112274D01*
X19465046Y24093237D01*
X19465043Y24093237D01*
X19465043Y24093236D01*
X19304562Y24037082D01*
X19304560Y24037081D01*
X19160600Y23946625D01*
X19160597Y23946623D01*
X19040377Y23826403D01*
X19040375Y23826400D01*
X18949919Y23682440D01*
X18949918Y23682438D01*
X18949918Y23682437D01*
X18893763Y23521954D01*
X18874726Y23353000D01*
X18893763Y23184046D01*
X18893764Y23184044D01*
X18949918Y23023563D01*
X18949919Y23023561D01*
X19040375Y22879601D01*
X19040377Y22879598D01*
X19112880Y22807095D01*
X19146906Y22744783D01*
X19141841Y22673968D01*
X19112880Y22628905D01*
X19040377Y22556403D01*
X19040375Y22556400D01*
X18949919Y22412440D01*
X18949918Y22412438D01*
X18911416Y22302403D01*
X18893763Y22251954D01*
X18874726Y22083000D01*
X12530887Y22083000D01*
X12546307Y22209997D01*
X12546307Y22210004D01*
X12527150Y22367780D01*
X12498053Y22444501D01*
X12470787Y22516395D01*
X12380498Y22647201D01*
X12261529Y22752599D01*
X12261528Y22752600D01*
X12261525Y22752602D01*
X12120797Y22826461D01*
X12120795Y22826462D01*
X12120793Y22826463D01*
X12120791Y22826464D01*
X12120790Y22826464D01*
X11966472Y22864500D01*
X11966471Y22864500D01*
X11807529Y22864500D01*
X11807527Y22864500D01*
X11653209Y22826464D01*
X11653202Y22826461D01*
X11512474Y22752602D01*
X11512469Y22752598D01*
X11393501Y22647200D01*
X11303215Y22516399D01*
X11303212Y22516393D01*
X11246849Y22367780D01*
X11227693Y22210004D01*
X11227693Y22209997D01*
X7346573Y22209997D01*
X7421793Y22228537D01*
X7562529Y22302401D01*
X7681498Y22407799D01*
X7771787Y22538605D01*
X7828149Y22687218D01*
X7828149Y22687219D01*
X7828150Y22687221D01*
X7847307Y22844997D01*
X7847307Y22845004D01*
X7828150Y23002780D01*
X7791659Y23098997D01*
X15545693Y23098997D01*
X15564849Y22941221D01*
X15601340Y22845004D01*
X15621213Y22792605D01*
X15711502Y22661799D01*
X15830471Y22556401D01*
X15830472Y22556401D01*
X15830474Y22556399D01*
X15864378Y22538605D01*
X15971207Y22482537D01*
X16125529Y22444500D01*
X16125530Y22444500D01*
X16284470Y22444500D01*
X16284471Y22444500D01*
X16438793Y22482537D01*
X16579529Y22556401D01*
X16698498Y22661799D01*
X16788787Y22792605D01*
X16845149Y22941218D01*
X16845149Y22941219D01*
X16845150Y22941221D01*
X16864307Y23098997D01*
X16864307Y23099004D01*
X16845150Y23256780D01*
X16808658Y23353000D01*
X16788787Y23405395D01*
X16698498Y23536201D01*
X16579529Y23641599D01*
X16579528Y23641600D01*
X16579525Y23641602D01*
X16438797Y23715461D01*
X16438795Y23715462D01*
X16438793Y23715463D01*
X16438791Y23715464D01*
X16438790Y23715464D01*
X16284472Y23753500D01*
X16284471Y23753500D01*
X16125529Y23753500D01*
X16125527Y23753500D01*
X15971209Y23715464D01*
X15971202Y23715461D01*
X15830474Y23641602D01*
X15830469Y23641598D01*
X15711501Y23536200D01*
X15621215Y23405399D01*
X15621212Y23405393D01*
X15564849Y23256780D01*
X15545693Y23099004D01*
X15545693Y23098997D01*
X7791659Y23098997D01*
X7791656Y23099004D01*
X7771787Y23151395D01*
X7681498Y23282201D01*
X7562529Y23387599D01*
X7562528Y23387600D01*
X7562525Y23387602D01*
X7421797Y23461461D01*
X7421795Y23461462D01*
X7421793Y23461463D01*
X7421791Y23461464D01*
X7421790Y23461464D01*
X7267472Y23499500D01*
X7267471Y23499500D01*
X7108529Y23499500D01*
X7108527Y23499500D01*
X6954209Y23461464D01*
X6954202Y23461461D01*
X6813474Y23387602D01*
X6813469Y23387598D01*
X6694501Y23282200D01*
X6604215Y23151399D01*
X6604212Y23151393D01*
X6547849Y23002780D01*
X6528693Y22845004D01*
X6528693Y22844997D01*
X254500Y22844997D01*
X254500Y26842633D01*
X4050685Y26842633D01*
X4069841Y26684857D01*
X4109775Y26579563D01*
X4126205Y26536241D01*
X4216494Y26405435D01*
X4335463Y26300037D01*
X4335464Y26300037D01*
X4335466Y26300035D01*
X4410192Y26260816D01*
X4476199Y26226173D01*
X4630521Y26188136D01*
X4630522Y26188136D01*
X4789462Y26188136D01*
X4789463Y26188136D01*
X4943785Y26226173D01*
X5084521Y26300037D01*
X5203490Y26405435D01*
X5293779Y26536241D01*
X5350141Y26684854D01*
X5350141Y26684855D01*
X5350142Y26684857D01*
X5369299Y26842633D01*
X5369299Y26842640D01*
X5350142Y27000416D01*
X5320734Y27077957D01*
X5293779Y27149031D01*
X5203490Y27279837D01*
X5192586Y27289497D01*
X16180693Y27289497D01*
X16199849Y27131721D01*
X16248447Y27003581D01*
X16256213Y26983105D01*
X16346502Y26852299D01*
X16465471Y26746901D01*
X16465472Y26746901D01*
X16465474Y26746899D01*
X16498431Y26729602D01*
X16606207Y26673037D01*
X16760529Y26635000D01*
X16760530Y26635000D01*
X16919470Y26635000D01*
X16919471Y26635000D01*
X17073793Y26673037D01*
X17159526Y26718034D01*
X17229137Y26731980D01*
X17295240Y26706077D01*
X17336845Y26648548D01*
X17340833Y26631572D01*
X17341026Y26631619D01*
X17342848Y26624224D01*
X17376218Y26536238D01*
X17399213Y26475605D01*
X17489502Y26344799D01*
X17608471Y26239401D01*
X17608472Y26239401D01*
X17608474Y26239399D01*
X17683200Y26200180D01*
X17749207Y26165537D01*
X17903529Y26127500D01*
X17903530Y26127500D01*
X18062470Y26127500D01*
X18062471Y26127500D01*
X18216793Y26165537D01*
X18357529Y26239401D01*
X18476498Y26344799D01*
X18566787Y26475605D01*
X18566787Y26475606D01*
X18571116Y26481877D01*
X18573014Y26480567D01*
X18614447Y26523404D01*
X18683560Y26539650D01*
X18750485Y26515952D01*
X18760219Y26508153D01*
X18776871Y26493401D01*
X18776872Y26493401D01*
X18776874Y26493399D01*
X18810778Y26475605D01*
X18917607Y26419537D01*
X19071929Y26381500D01*
X19071930Y26381500D01*
X19230870Y26381500D01*
X19230871Y26381500D01*
X19385193Y26419537D01*
X19525929Y26493401D01*
X19644898Y26598799D01*
X19735187Y26729605D01*
X19791549Y26878218D01*
X19791549Y26878219D01*
X19791550Y26878221D01*
X19810707Y27035997D01*
X19810707Y27036004D01*
X19791550Y27193780D01*
X19759475Y27278353D01*
X19735187Y27342395D01*
X19644898Y27473201D01*
X19525929Y27578599D01*
X19525928Y27578600D01*
X19525925Y27578602D01*
X19385197Y27652461D01*
X19385195Y27652462D01*
X19385193Y27652463D01*
X19385191Y27652464D01*
X19385190Y27652464D01*
X19230872Y27690500D01*
X19230871Y27690500D01*
X19071929Y27690500D01*
X19071927Y27690500D01*
X18917609Y27652464D01*
X18917602Y27652461D01*
X18776874Y27578602D01*
X18776869Y27578598D01*
X18657901Y27473200D01*
X18640011Y27447282D01*
X18575256Y27353467D01*
X18563284Y27336123D01*
X18561391Y27337430D01*
X18519915Y27294576D01*
X18450796Y27278353D01*
X18383880Y27302074D01*
X18374178Y27309850D01*
X18357534Y27324595D01*
X18357525Y27324602D01*
X18216797Y27398461D01*
X18216795Y27398462D01*
X18216793Y27398463D01*
X18216791Y27398464D01*
X18216790Y27398464D01*
X18062472Y27436500D01*
X18062471Y27436500D01*
X17903529Y27436500D01*
X17903527Y27436500D01*
X17749209Y27398464D01*
X17749205Y27398462D01*
X17663473Y27353467D01*
X17593860Y27339521D01*
X17527758Y27365425D01*
X17486154Y27422954D01*
X17482167Y27439929D01*
X17481974Y27439881D01*
X17480151Y27447277D01*
X17472406Y27467698D01*
X17423787Y27595895D01*
X17333498Y27726701D01*
X17214529Y27832099D01*
X17214528Y27832100D01*
X17214525Y27832102D01*
X17073797Y27905961D01*
X17073795Y27905962D01*
X17073793Y27905963D01*
X17073791Y27905964D01*
X17073790Y27905964D01*
X16919472Y27944000D01*
X16919471Y27944000D01*
X16760529Y27944000D01*
X16760527Y27944000D01*
X16606209Y27905964D01*
X16606202Y27905961D01*
X16465474Y27832102D01*
X16465469Y27832098D01*
X16346501Y27726700D01*
X16256215Y27595899D01*
X16256212Y27595893D01*
X16199849Y27447280D01*
X16180693Y27289504D01*
X16180693Y27289497D01*
X5192586Y27289497D01*
X5084521Y27385235D01*
X5084520Y27385236D01*
X5084517Y27385238D01*
X4943789Y27459097D01*
X4943787Y27459098D01*
X4943785Y27459099D01*
X4943783Y27459100D01*
X4943782Y27459100D01*
X4789464Y27497136D01*
X4789463Y27497136D01*
X4630521Y27497136D01*
X4630519Y27497136D01*
X4476201Y27459100D01*
X4476194Y27459097D01*
X4335466Y27385238D01*
X4335461Y27385234D01*
X4216493Y27279836D01*
X4126207Y27149035D01*
X4126204Y27149029D01*
X4069841Y27000416D01*
X4050685Y26842640D01*
X4050685Y26842633D01*
X254500Y26842633D01*
X254500Y31988997D01*
X5258693Y31988997D01*
X5277849Y31831221D01*
X5326447Y31703081D01*
X5334213Y31682605D01*
X5424502Y31551799D01*
X5543471Y31446401D01*
X5543472Y31446401D01*
X5543474Y31446399D01*
X5618200Y31407180D01*
X5684207Y31372537D01*
X5838529Y31334500D01*
X5838530Y31334500D01*
X5997470Y31334500D01*
X5997471Y31334500D01*
X6151793Y31372537D01*
X6292529Y31446401D01*
X6411498Y31551799D01*
X6501787Y31682605D01*
X6558149Y31831218D01*
X6558149Y31831219D01*
X6558150Y31831221D01*
X6577307Y31988997D01*
X6577307Y31989004D01*
X6558150Y32146780D01*
X6544538Y32182669D01*
X6501787Y32295395D01*
X6411498Y32426201D01*
X6292529Y32531599D01*
X6292528Y32531600D01*
X6292525Y32531602D01*
X6151797Y32605461D01*
X6151795Y32605462D01*
X6151793Y32605463D01*
X6151791Y32605464D01*
X6151790Y32605464D01*
X5997472Y32643500D01*
X5997471Y32643500D01*
X5838529Y32643500D01*
X5838527Y32643500D01*
X5684209Y32605464D01*
X5684202Y32605461D01*
X5543474Y32531602D01*
X5543469Y32531598D01*
X5424501Y32426200D01*
X5334215Y32295399D01*
X5334212Y32295393D01*
X5277849Y32146780D01*
X5258693Y31989004D01*
X5258693Y31988997D01*
X254500Y31988997D01*
X254500Y33639997D01*
X7290693Y33639997D01*
X7309849Y33482221D01*
X7358447Y33354081D01*
X7366213Y33333605D01*
X7456502Y33202799D01*
X7575471Y33097401D01*
X7575472Y33097401D01*
X7575474Y33097399D01*
X7650200Y33058180D01*
X7716207Y33023537D01*
X7870529Y32985500D01*
X7870530Y32985500D01*
X8029470Y32985500D01*
X8029471Y32985500D01*
X8183793Y33023537D01*
X8324529Y33097401D01*
X8443498Y33202799D01*
X8533787Y33333605D01*
X8590149Y33482218D01*
X8590149Y33482219D01*
X8590150Y33482221D01*
X8609307Y33639997D01*
X10846693Y33639997D01*
X10865849Y33482221D01*
X10914447Y33354081D01*
X10922213Y33333605D01*
X11012502Y33202799D01*
X11131471Y33097401D01*
X11131472Y33097401D01*
X11131474Y33097399D01*
X11206200Y33058180D01*
X11272207Y33023537D01*
X11426529Y32985500D01*
X11426530Y32985500D01*
X11585470Y32985500D01*
X11585471Y32985500D01*
X11739793Y33023537D01*
X11880529Y33097401D01*
X11999498Y33202799D01*
X12089787Y33333605D01*
X12146149Y33482218D01*
X12146149Y33482219D01*
X12146150Y33482221D01*
X12165307Y33639997D01*
X12165307Y33640004D01*
X12146150Y33797780D01*
X12132538Y33833669D01*
X12089787Y33946395D01*
X11999498Y34077201D01*
X11880529Y34182599D01*
X11880528Y34182600D01*
X11880525Y34182602D01*
X11739797Y34256461D01*
X11739795Y34256462D01*
X11739793Y34256463D01*
X11739791Y34256464D01*
X11739790Y34256464D01*
X11585472Y34294500D01*
X11585471Y34294500D01*
X11426529Y34294500D01*
X11426527Y34294500D01*
X11272209Y34256464D01*
X11272202Y34256461D01*
X11131474Y34182602D01*
X11131469Y34182598D01*
X11012501Y34077200D01*
X10922215Y33946399D01*
X10922212Y33946393D01*
X10865849Y33797780D01*
X10846693Y33640004D01*
X10846693Y33639997D01*
X8609307Y33639997D01*
X8609307Y33640004D01*
X8590150Y33797780D01*
X8576538Y33833669D01*
X8533787Y33946395D01*
X8443498Y34077201D01*
X8324529Y34182599D01*
X8324528Y34182600D01*
X8324525Y34182602D01*
X8183797Y34256461D01*
X8183795Y34256462D01*
X8183793Y34256463D01*
X8183791Y34256464D01*
X8183790Y34256464D01*
X8029472Y34294500D01*
X8029471Y34294500D01*
X7870529Y34294500D01*
X7870527Y34294500D01*
X7716209Y34256464D01*
X7716202Y34256461D01*
X7575474Y34182602D01*
X7575469Y34182598D01*
X7456501Y34077200D01*
X7366215Y33946399D01*
X7366212Y33946393D01*
X7309849Y33797780D01*
X7290693Y33640004D01*
X7290693Y33639997D01*
X254500Y33639997D01*
X254500Y36941997D01*
X3226693Y36941997D01*
X3245849Y36784221D01*
X3294447Y36656081D01*
X3302213Y36635605D01*
X3392502Y36504799D01*
X3511471Y36399401D01*
X3511472Y36399401D01*
X3511474Y36399399D01*
X3586200Y36360180D01*
X3652207Y36325537D01*
X3806529Y36287500D01*
X3806530Y36287500D01*
X3965470Y36287500D01*
X3965471Y36287500D01*
X4119793Y36325537D01*
X4260529Y36399401D01*
X4379498Y36504799D01*
X4469787Y36635605D01*
X4526149Y36784218D01*
X4526149Y36784219D01*
X4526150Y36784221D01*
X4545307Y36941997D01*
X4545307Y36942004D01*
X4526150Y37099780D01*
X4512538Y37135669D01*
X4469787Y37248395D01*
X4379498Y37379201D01*
X4260529Y37484599D01*
X4260528Y37484600D01*
X4260525Y37484602D01*
X4119797Y37558461D01*
X4119795Y37558462D01*
X4119793Y37558463D01*
X4119791Y37558464D01*
X4119790Y37558464D01*
X3965472Y37596500D01*
X3965471Y37596500D01*
X3806529Y37596500D01*
X3806527Y37596500D01*
X3652209Y37558464D01*
X3652202Y37558461D01*
X3511474Y37484602D01*
X3511469Y37484598D01*
X3392501Y37379200D01*
X3302215Y37248399D01*
X3302212Y37248393D01*
X3245849Y37099780D01*
X3226693Y36942004D01*
X3226693Y36941997D01*
X254500Y36941997D01*
X254500Y38592997D01*
X19355693Y38592997D01*
X19374849Y38435221D01*
X19423447Y38307081D01*
X19431213Y38286605D01*
X19521502Y38155799D01*
X19640471Y38050401D01*
X19640472Y38050401D01*
X19640474Y38050399D01*
X19715200Y38011180D01*
X19781207Y37976537D01*
X19935529Y37938500D01*
X19935530Y37938500D01*
X20094470Y37938500D01*
X20094471Y37938500D01*
X20248793Y37976537D01*
X20389529Y38050401D01*
X20508498Y38155799D01*
X20598787Y38286605D01*
X20655149Y38435218D01*
X20655149Y38435219D01*
X20655150Y38435221D01*
X20674307Y38592997D01*
X20674307Y38593004D01*
X20655150Y38750780D01*
X20641538Y38786669D01*
X20598787Y38899395D01*
X20508498Y39030201D01*
X20389529Y39135599D01*
X20389528Y39135600D01*
X20389525Y39135602D01*
X20248797Y39209461D01*
X20248795Y39209462D01*
X20248793Y39209463D01*
X20248791Y39209464D01*
X20248790Y39209464D01*
X20094472Y39247500D01*
X20094471Y39247500D01*
X19935529Y39247500D01*
X19935527Y39247500D01*
X19781209Y39209464D01*
X19781202Y39209461D01*
X19640474Y39135602D01*
X19640469Y39135598D01*
X19521501Y39030200D01*
X19431215Y38899399D01*
X19431212Y38899393D01*
X19374849Y38750780D01*
X19355693Y38593004D01*
X19355693Y38592997D01*
X254500Y38592997D01*
X254500Y43799997D01*
X11608693Y43799997D01*
X11627849Y43642221D01*
X11676447Y43514081D01*
X11684213Y43493605D01*
X11774502Y43362799D01*
X11893471Y43257401D01*
X11893472Y43257401D01*
X11893474Y43257399D01*
X11968200Y43218180D01*
X12034207Y43183537D01*
X12188529Y43145500D01*
X12188530Y43145500D01*
X12347470Y43145500D01*
X12347471Y43145500D01*
X12501793Y43183537D01*
X12642529Y43257401D01*
X12761498Y43362799D01*
X12851787Y43493605D01*
X12851790Y43493615D01*
X12854932Y43499599D01*
X12904300Y43550621D01*
X12973416Y43566854D01*
X13040337Y43543143D01*
X13078068Y43499599D01*
X13081211Y43493608D01*
X13081213Y43493605D01*
X13171502Y43362799D01*
X13290471Y43257401D01*
X13290472Y43257401D01*
X13290474Y43257399D01*
X13365200Y43218180D01*
X13431207Y43183537D01*
X13585529Y43145500D01*
X13585530Y43145500D01*
X13744470Y43145500D01*
X13744471Y43145500D01*
X13898793Y43183537D01*
X14039529Y43257401D01*
X14158498Y43362799D01*
X14248787Y43493605D01*
X14248790Y43493615D01*
X14251932Y43499599D01*
X14301300Y43550621D01*
X14370416Y43566854D01*
X14437337Y43543143D01*
X14475068Y43499599D01*
X14478211Y43493608D01*
X14478213Y43493605D01*
X14568502Y43362799D01*
X14687471Y43257401D01*
X14687472Y43257401D01*
X14687474Y43257399D01*
X14762200Y43218180D01*
X14828207Y43183537D01*
X14982529Y43145500D01*
X14982530Y43145500D01*
X15141470Y43145500D01*
X15141471Y43145500D01*
X15295793Y43183537D01*
X15436529Y43257401D01*
X15555498Y43362799D01*
X15645787Y43493605D01*
X15702149Y43642218D01*
X15702149Y43642219D01*
X15702150Y43642221D01*
X15705887Y43673000D01*
X26875726Y43673000D01*
X26894763Y43504046D01*
X26944186Y43362801D01*
X26950918Y43343563D01*
X26950919Y43343561D01*
X27041375Y43199601D01*
X27041377Y43199598D01*
X27161597Y43079378D01*
X27161600Y43079376D01*
X27305563Y42988918D01*
X27390528Y42959188D01*
X27448217Y42917812D01*
X27474380Y42851812D01*
X27460708Y42782144D01*
X27432466Y42745949D01*
X27395501Y42713201D01*
X27305215Y42582399D01*
X27305212Y42582393D01*
X27248849Y42433780D01*
X27229693Y42276004D01*
X27229693Y42275997D01*
X27248849Y42118221D01*
X27297447Y41990081D01*
X27305213Y41969605D01*
X27395502Y41838799D01*
X27514471Y41733401D01*
X27514472Y41733401D01*
X27514474Y41733399D01*
X27589200Y41694180D01*
X27655207Y41659537D01*
X27809529Y41621500D01*
X27809530Y41621500D01*
X27968470Y41621500D01*
X27968471Y41621500D01*
X28122793Y41659537D01*
X28263529Y41733401D01*
X28382498Y41838799D01*
X28472787Y41969605D01*
X28529149Y42118218D01*
X28529149Y42118219D01*
X28529150Y42118221D01*
X28548307Y42275997D01*
X28548307Y42276004D01*
X28529150Y42433780D01*
X28515538Y42469669D01*
X28472787Y42582395D01*
X28382498Y42713201D01*
X28263529Y42818599D01*
X28263528Y42818600D01*
X28263525Y42818602D01*
X28142399Y42882173D01*
X28091376Y42931541D01*
X28075144Y43000657D01*
X28098855Y43067577D01*
X28111853Y43082830D01*
X28228624Y43199600D01*
X28319082Y43343563D01*
X28375237Y43504046D01*
X28394274Y43673000D01*
X28375237Y43841954D01*
X28319082Y44002437D01*
X28228624Y44146400D01*
X28228622Y44146403D01*
X28156120Y44218905D01*
X28122094Y44281217D01*
X28127159Y44352032D01*
X28156120Y44397095D01*
X28228622Y44469598D01*
X28228624Y44469600D01*
X28319082Y44613563D01*
X28375237Y44774046D01*
X28394274Y44943000D01*
X28375237Y45111954D01*
X28319082Y45272437D01*
X28228624Y45416400D01*
X28228622Y45416403D01*
X28108402Y45536623D01*
X28108399Y45536625D01*
X27964439Y45627081D01*
X27964437Y45627082D01*
X27803954Y45683237D01*
X27635000Y45702274D01*
X27466046Y45683237D01*
X27466043Y45683237D01*
X27466043Y45683236D01*
X27305562Y45627082D01*
X27305560Y45627081D01*
X27161600Y45536625D01*
X27161597Y45536623D01*
X27041377Y45416403D01*
X27041375Y45416400D01*
X26950919Y45272440D01*
X26950918Y45272438D01*
X26910044Y45155624D01*
X26894763Y45111954D01*
X26875726Y44943000D01*
X26894763Y44774046D01*
X26950918Y44613563D01*
X26950919Y44613561D01*
X27041375Y44469601D01*
X27041377Y44469598D01*
X27113880Y44397095D01*
X27147906Y44334783D01*
X27142841Y44263968D01*
X27113880Y44218905D01*
X27041377Y44146403D01*
X27041375Y44146400D01*
X26950919Y44002440D01*
X26950918Y44002438D01*
X26907347Y43877918D01*
X26894763Y43841954D01*
X26875726Y43673000D01*
X15705887Y43673000D01*
X15721307Y43799997D01*
X15721307Y43800004D01*
X15702150Y43957780D01*
X15685212Y44002440D01*
X15645787Y44106395D01*
X15555498Y44237201D01*
X15436529Y44342599D01*
X15436528Y44342600D01*
X15436525Y44342602D01*
X15295797Y44416461D01*
X15295795Y44416462D01*
X15295793Y44416463D01*
X15295791Y44416464D01*
X15295790Y44416464D01*
X15141472Y44454500D01*
X15141471Y44454500D01*
X14982529Y44454500D01*
X14982527Y44454500D01*
X14828209Y44416464D01*
X14828202Y44416461D01*
X14687474Y44342602D01*
X14687469Y44342598D01*
X14568501Y44237200D01*
X14478212Y44106395D01*
X14475066Y44100399D01*
X14425696Y44049378D01*
X14356579Y44033147D01*
X14289660Y44056861D01*
X14251934Y44100399D01*
X14248787Y44106395D01*
X14248784Y44106399D01*
X14158498Y44237201D01*
X14039529Y44342599D01*
X14039528Y44342600D01*
X14039525Y44342602D01*
X13898797Y44416461D01*
X13898795Y44416462D01*
X13898793Y44416463D01*
X13898791Y44416464D01*
X13898790Y44416464D01*
X13744472Y44454500D01*
X13744471Y44454500D01*
X13585529Y44454500D01*
X13585527Y44454500D01*
X13431209Y44416464D01*
X13431202Y44416461D01*
X13290474Y44342602D01*
X13290469Y44342598D01*
X13171501Y44237200D01*
X13081212Y44106395D01*
X13078066Y44100399D01*
X13028696Y44049378D01*
X12959579Y44033147D01*
X12892660Y44056861D01*
X12854934Y44100399D01*
X12851787Y44106395D01*
X12851784Y44106399D01*
X12761498Y44237201D01*
X12642529Y44342599D01*
X12642528Y44342600D01*
X12642525Y44342602D01*
X12501797Y44416461D01*
X12501795Y44416462D01*
X12501793Y44416463D01*
X12501791Y44416464D01*
X12501790Y44416464D01*
X12347472Y44454500D01*
X12347471Y44454500D01*
X12188529Y44454500D01*
X12188527Y44454500D01*
X12034209Y44416464D01*
X12034202Y44416461D01*
X11893474Y44342602D01*
X11893469Y44342598D01*
X11774501Y44237200D01*
X11684215Y44106399D01*
X11684212Y44106393D01*
X11627849Y43957780D01*
X11608693Y43800004D01*
X11608693Y43799997D01*
X254500Y43799997D01*
X254500Y44562000D01*
X20144726Y44562000D01*
X20163763Y44393046D01*
X20184150Y44334783D01*
X20219918Y44232563D01*
X20219919Y44232561D01*
X20310375Y44088601D01*
X20310377Y44088598D01*
X20430597Y43968378D01*
X20430600Y43968376D01*
X20574563Y43877918D01*
X20735046Y43821763D01*
X20904000Y43802726D01*
X21072954Y43821763D01*
X21233437Y43877918D01*
X21377400Y43968376D01*
X21497624Y44088600D01*
X21588082Y44232563D01*
X21636552Y44371085D01*
X21677929Y44428773D01*
X21743929Y44454936D01*
X21769575Y44454676D01*
X21920000Y44437726D01*
X22088954Y44456763D01*
X22249437Y44512918D01*
X22393400Y44603376D01*
X22513624Y44723600D01*
X22604082Y44867563D01*
X22660237Y45028046D01*
X22679274Y45197000D01*
X22660237Y45365954D01*
X22604082Y45526437D01*
X22513624Y45670400D01*
X22513622Y45670403D01*
X22393402Y45790623D01*
X22393399Y45790625D01*
X22249439Y45881081D01*
X22249437Y45881082D01*
X22088954Y45937237D01*
X21920000Y45956274D01*
X21919999Y45956274D01*
X21878296Y45951575D01*
X21769587Y45939327D01*
X21699656Y45951575D01*
X21647448Y45999688D01*
X21636551Y46022919D01*
X21588082Y46161437D01*
X21497624Y46305400D01*
X21497622Y46305403D01*
X21377402Y46425623D01*
X21377399Y46425625D01*
X21233439Y46516081D01*
X21233437Y46516082D01*
X21072954Y46572237D01*
X20904000Y46591274D01*
X20735046Y46572237D01*
X20735043Y46572237D01*
X20735043Y46572236D01*
X20574562Y46516082D01*
X20574560Y46516081D01*
X20430600Y46425625D01*
X20430597Y46425623D01*
X20310377Y46305403D01*
X20310375Y46305400D01*
X20219919Y46161440D01*
X20219918Y46161438D01*
X20219918Y46161437D01*
X20163763Y46000954D01*
X20144726Y45832000D01*
X20163763Y45663046D01*
X20163764Y45663044D01*
X20219918Y45502563D01*
X20219919Y45502561D01*
X20310375Y45358601D01*
X20310377Y45358598D01*
X20382880Y45286095D01*
X20416906Y45223783D01*
X20411841Y45152968D01*
X20382880Y45107905D01*
X20310377Y45035403D01*
X20310375Y45035400D01*
X20219919Y44891440D01*
X20219918Y44891438D01*
X20219918Y44891437D01*
X20163763Y44730954D01*
X20144726Y44562000D01*
X254500Y44562000D01*
X254500Y45323376D01*
X274502Y45391497D01*
X328158Y45437990D01*
X398432Y45448094D01*
X446831Y45430503D01*
X481620Y45408963D01*
X492000Y45404942D01*
X492000Y46418519D01*
X600000Y46418519D01*
X614835Y46324852D01*
X672359Y46211955D01*
X761955Y46122359D01*
X874852Y46064835D01*
X1000000Y46045014D01*
X1125148Y46064835D01*
X1238045Y46122359D01*
X1327641Y46211955D01*
X1385165Y46324852D01*
X1400000Y46418519D01*
X1400000Y46642000D01*
X1508000Y46642000D01*
X1508000Y45404942D01*
X1518378Y45408962D01*
X1700843Y45521939D01*
X1859437Y45666517D01*
X1988768Y45837780D01*
X1988772Y45837785D01*
X2084426Y46029885D01*
X2084429Y46029891D01*
X2143159Y46236308D01*
X2143159Y46236312D01*
X2158000Y46396460D01*
X2158000Y46642000D01*
X14442000Y46642000D01*
X14442000Y46396460D01*
X14456840Y46236312D01*
X14456840Y46236308D01*
X14515570Y46029891D01*
X14515573Y46029885D01*
X14611227Y45837785D01*
X14611231Y45837780D01*
X14740562Y45666517D01*
X14899156Y45521939D01*
X15081621Y45408962D01*
X15092000Y45404942D01*
X15092000Y46418519D01*
X15200000Y46418519D01*
X15214835Y46324852D01*
X15272359Y46211955D01*
X15361955Y46122359D01*
X15474852Y46064835D01*
X15600000Y46045014D01*
X15725148Y46064835D01*
X15838045Y46122359D01*
X15927641Y46211955D01*
X15985165Y46324852D01*
X16000000Y46418519D01*
X16000000Y46642000D01*
X16108000Y46642000D01*
X16108000Y45404942D01*
X16118378Y45408962D01*
X16300843Y45521939D01*
X16459437Y45666517D01*
X16588768Y45837780D01*
X16588772Y45837785D01*
X16684426Y46029885D01*
X16684429Y46029891D01*
X16743159Y46236308D01*
X16743159Y46236312D01*
X16758000Y46396460D01*
X16758000Y46642000D01*
X16108000Y46642000D01*
X16000000Y46642000D01*
X16000000Y47881481D01*
X15985165Y47975148D01*
X15927641Y48088045D01*
X15838045Y48177641D01*
X15725148Y48235165D01*
X15600000Y48254986D01*
X15474852Y48235165D01*
X15361955Y48177641D01*
X15272359Y48088045D01*
X15214835Y47975148D01*
X15200000Y47881481D01*
X15200000Y46418519D01*
X15092000Y46418519D01*
X15092000Y46642000D01*
X14442000Y46642000D01*
X2158000Y46642000D01*
X1508000Y46642000D01*
X1400000Y46642000D01*
X1400000Y47881481D01*
X1385165Y47975148D01*
X1327641Y48088045D01*
X1238045Y48177641D01*
X1125148Y48235165D01*
X1000000Y48254986D01*
X874852Y48235165D01*
X761955Y48177641D01*
X672359Y48088045D01*
X614835Y47975148D01*
X600000Y47881481D01*
X600000Y46418519D01*
X492000Y46418519D01*
X492000Y48895060D01*
X1508000Y48895060D01*
X1508000Y47658000D01*
X2158000Y47658000D01*
X14442000Y47658000D01*
X15092000Y47658000D01*
X15092000Y48895060D01*
X16108000Y48895060D01*
X16108000Y47658000D01*
X16758000Y47658000D01*
X16758000Y47903541D01*
X16743159Y48063689D01*
X16743159Y48063693D01*
X16684429Y48270110D01*
X16684426Y48270116D01*
X16588880Y48462000D01*
X19372000Y48462000D01*
X19372000Y48417221D01*
X19372001Y48417200D01*
X19387072Y48259367D01*
X19387075Y48259352D01*
X19446689Y48056323D01*
X19543650Y47868246D01*
X19674455Y47701915D01*
X19674460Y47701909D01*
X19834373Y47563345D01*
X19972000Y47483887D01*
X19972000Y48462000D01*
X19372000Y48462000D01*
X16588880Y48462000D01*
X16588772Y48462216D01*
X16588768Y48462221D01*
X16568909Y48488519D01*
X20080000Y48488519D01*
X20094835Y48394852D01*
X20152359Y48281955D01*
X20241955Y48192359D01*
X20354852Y48134835D01*
X20480000Y48115014D01*
X20605148Y48134835D01*
X20718045Y48192359D01*
X20807641Y48281955D01*
X20865165Y48394852D01*
X20880000Y48488519D01*
X20880000Y49451481D01*
X20865165Y49545148D01*
X20807641Y49658045D01*
X20718045Y49747641D01*
X20605148Y49805165D01*
X20480000Y49824986D01*
X20354852Y49805165D01*
X20241955Y49747641D01*
X20152359Y49658045D01*
X20094835Y49545148D01*
X20080000Y49451481D01*
X20080000Y48488519D01*
X16568909Y48488519D01*
X16459437Y48633484D01*
X16300840Y48778064D01*
X16300839Y48778065D01*
X16118385Y48891036D01*
X16118378Y48891039D01*
X16108000Y48895060D01*
X15092000Y48895060D01*
X15081621Y48891039D01*
X15081614Y48891036D01*
X14899160Y48778065D01*
X14899159Y48778064D01*
X14740562Y48633484D01*
X14611231Y48462221D01*
X14611227Y48462216D01*
X14515573Y48270116D01*
X14515570Y48270110D01*
X14456840Y48063693D01*
X14456840Y48063689D01*
X14442000Y47903541D01*
X14442000Y47658000D01*
X2158000Y47658000D01*
X2158000Y47903541D01*
X2143159Y48063689D01*
X2143159Y48063693D01*
X2084429Y48270110D01*
X2084426Y48270116D01*
X1988772Y48462216D01*
X1988768Y48462221D01*
X1859437Y48633484D01*
X1700840Y48778064D01*
X1700839Y48778065D01*
X1518385Y48891036D01*
X1518378Y48891039D01*
X1508000Y48895060D01*
X492000Y48895060D01*
X481621Y48891039D01*
X481617Y48891037D01*
X446829Y48869497D01*
X378382Y48850643D01*
X310607Y48871787D01*
X265023Y48926217D01*
X254500Y48976625D01*
X254500Y49478000D01*
X19372000Y49478000D01*
X19972000Y49478000D01*
X19972000Y50456080D01*
X19971999Y50456081D01*
X19923483Y50433924D01*
X19751112Y50311179D01*
X19751111Y50311178D01*
X19605090Y50158036D01*
X19605089Y50158035D01*
X19490691Y49980025D01*
X19490688Y49980020D01*
X19412047Y49783586D01*
X19412046Y49783580D01*
X19372000Y49575806D01*
X19372000Y49478000D01*
X254500Y49478000D01*
X254500Y50456115D01*
X20988000Y50456115D01*
X20988000Y47483921D01*
X21036518Y47506079D01*
X21208887Y47628822D01*
X21208888Y47628823D01*
X21354909Y47781965D01*
X21354910Y47781966D01*
X21469308Y47959976D01*
X21469311Y47959981D01*
X21547952Y48156415D01*
X21547953Y48156421D01*
X21587999Y48364195D01*
X21588000Y48364204D01*
X21588000Y48818211D01*
X21608002Y48886332D01*
X21661658Y48932825D01*
X21731932Y48942929D01*
X21747987Y48939540D01*
X21780019Y48930565D01*
X21833781Y48915501D01*
X21833783Y48915501D01*
X21833786Y48915500D01*
X21833788Y48915500D01*
X21947927Y48915500D01*
X21947937Y48915501D01*
X22057531Y48930565D01*
X22061009Y48931043D01*
X22200818Y48991770D01*
X22319058Y49087966D01*
X22406961Y49212496D01*
X22458006Y49356123D01*
X22463183Y49431806D01*
X27131592Y49431806D01*
X27162604Y49282562D01*
X27230355Y49151810D01*
X27232731Y49147225D01*
X27336772Y49035824D01*
X27467010Y48956625D01*
X27467012Y48956624D01*
X27601910Y48918828D01*
X27613786Y48915500D01*
X27613788Y48915500D01*
X27727927Y48915500D01*
X27727937Y48915501D01*
X27837531Y48930565D01*
X27841009Y48931043D01*
X27841017Y48931047D01*
X27849304Y48933368D01*
X27850089Y48930565D01*
X27906248Y48937575D01*
X27970269Y48906887D01*
X28007535Y48846457D01*
X28012000Y48813213D01*
X28012000Y48417221D01*
X28012001Y48417200D01*
X28027072Y48259367D01*
X28027075Y48259352D01*
X28086689Y48056323D01*
X28183650Y47868246D01*
X28314455Y47701915D01*
X28314460Y47701909D01*
X28474373Y47563345D01*
X28612000Y47483887D01*
X28612000Y48488519D01*
X28720000Y48488519D01*
X28734835Y48394852D01*
X28792359Y48281955D01*
X28881955Y48192359D01*
X28994852Y48134835D01*
X29120000Y48115014D01*
X29245148Y48134835D01*
X29358045Y48192359D01*
X29447641Y48281955D01*
X29505165Y48394852D01*
X29515800Y48462000D01*
X29628000Y48462000D01*
X29628000Y47483921D01*
X29676518Y47506079D01*
X29848887Y47628822D01*
X29848888Y47628823D01*
X29994909Y47781965D01*
X29994910Y47781966D01*
X30109308Y47959976D01*
X30109311Y47959981D01*
X30187952Y48156415D01*
X30187953Y48156421D01*
X30227999Y48364195D01*
X30228000Y48364204D01*
X30228000Y48462000D01*
X29628000Y48462000D01*
X29515800Y48462000D01*
X29520000Y48488519D01*
X29520000Y49451481D01*
X29505165Y49545148D01*
X29447641Y49658045D01*
X29358045Y49747641D01*
X29245148Y49805165D01*
X29120000Y49824986D01*
X28994852Y49805165D01*
X28881955Y49747641D01*
X28792359Y49658045D01*
X28734835Y49545148D01*
X28720000Y49451481D01*
X28720000Y48488519D01*
X28612000Y48488519D01*
X28612000Y50456080D01*
X28611999Y50456081D01*
X28563483Y50433924D01*
X28391112Y50311179D01*
X28391111Y50311178D01*
X28245091Y50158037D01*
X28137516Y49990645D01*
X28083861Y49944152D01*
X28013587Y49934048D01*
X27966052Y49951108D01*
X27912988Y49983376D01*
X27912987Y49983377D01*
X27766220Y50024499D01*
X27766215Y50024500D01*
X27766214Y50024500D01*
X27652073Y50024500D01*
X27652062Y50024500D01*
X27538998Y50008959D01*
X27538990Y50008957D01*
X27399181Y49948230D01*
X27399178Y49948228D01*
X27280944Y49852036D01*
X27280938Y49852030D01*
X27193039Y49727506D01*
X27193037Y49727501D01*
X27141994Y49583879D01*
X27141993Y49583873D01*
X27131592Y49431806D01*
X22463183Y49431806D01*
X22468408Y49508196D01*
X22437396Y49657436D01*
X22437395Y49657438D01*
X22437395Y49657439D01*
X22401089Y49727506D01*
X22367269Y49792775D01*
X22263228Y49904176D01*
X22263227Y49904177D01*
X22132990Y49983375D01*
X22132987Y49983377D01*
X21986220Y50024499D01*
X21986215Y50024500D01*
X21986214Y50024500D01*
X21872073Y50024500D01*
X21872062Y50024500D01*
X21758998Y50008959D01*
X21758987Y50008956D01*
X21613645Y49945826D01*
X21543195Y49937033D01*
X21479175Y49967725D01*
X21451455Y50003659D01*
X21416350Y50071752D01*
X21416350Y50071754D01*
X21285544Y50238086D01*
X21285539Y50238092D01*
X21125625Y50376657D01*
X21125624Y50376658D01*
X20988000Y50456115D01*
X29628000Y50456115D01*
X29628000Y49478000D01*
X30228000Y49478000D01*
X30228000Y49522780D01*
X30227998Y49522801D01*
X30212927Y49680634D01*
X30212924Y49680649D01*
X30153310Y49883678D01*
X30056349Y50071755D01*
X29925544Y50238086D01*
X29925539Y50238092D01*
X29765625Y50376657D01*
X29765624Y50376658D01*
X29628000Y50456115D01*
X20988000Y50456115D01*
X254500Y50456115D01*
X254500Y51573376D01*
X274502Y51641497D01*
X328158Y51687990D01*
X398432Y51698094D01*
X446831Y51680503D01*
X481620Y51658963D01*
X492000Y51654942D01*
X492000Y53582000D01*
X512002Y53650121D01*
X565658Y53696614D01*
X600000Y53704085D01*
X600000Y52668519D01*
X614835Y52574852D01*
X672359Y52461955D01*
X761955Y52372359D01*
X874852Y52314835D01*
X1000000Y52295014D01*
X1125148Y52314835D01*
X1238045Y52372359D01*
X1327641Y52461955D01*
X1385165Y52574852D01*
X1400000Y52668519D01*
X1400000Y52692000D01*
X1508000Y52692000D01*
X1508000Y51654942D01*
X1518378Y51658962D01*
X1700843Y51771939D01*
X1859437Y51916517D01*
X1988768Y52087780D01*
X1988772Y52087785D01*
X2084426Y52279885D01*
X2084429Y52279891D01*
X2143159Y52486308D01*
X2143159Y52486312D01*
X2158000Y52646460D01*
X2158000Y52692000D01*
X14442000Y52692000D01*
X14442000Y52646460D01*
X14456840Y52486312D01*
X14456840Y52486308D01*
X14515570Y52279891D01*
X14515573Y52279885D01*
X14611227Y52087785D01*
X14611231Y52087780D01*
X14740562Y51916517D01*
X14899156Y51771939D01*
X15081621Y51658962D01*
X15092000Y51654942D01*
X15092000Y52692000D01*
X14442000Y52692000D01*
X2158000Y52692000D01*
X1508000Y52692000D01*
X1400000Y52692000D01*
X1400000Y53708000D01*
X2158000Y53708000D01*
X2158000Y53753541D01*
X2143159Y53913689D01*
X2143159Y53913693D01*
X2084429Y54120110D01*
X2084426Y54120116D01*
X1988772Y54312216D01*
X1988768Y54312221D01*
X1859436Y54483486D01*
X1859434Y54483488D01*
X1812378Y54526385D01*
X1775511Y54587059D01*
X1777300Y54658033D01*
X1817176Y54716773D01*
X1882479Y54744630D01*
X1897263Y54745500D01*
X14702737Y54745500D01*
X14770858Y54725498D01*
G37*
%TD.AperFunction*%
%TA.AperFunction,Conductor*%
G36*
X26595611Y35161055D02*
G01*
X26940174Y35085210D01*
X27312659Y35044700D01*
X27312667Y35044700D01*
X27687333Y35044700D01*
X27687341Y35044700D01*
X28059826Y35085210D01*
X28404388Y35161055D01*
X28431472Y35164000D01*
X30619500Y35164000D01*
X30687621Y35143998D01*
X30734114Y35090342D01*
X30745500Y35038000D01*
X30745500Y27924000D01*
X30725498Y27855879D01*
X30671842Y27809386D01*
X30619500Y27798000D01*
X21665000Y27798000D01*
X21596879Y27818002D01*
X21550386Y27871658D01*
X21539000Y27924000D01*
X21539000Y29322000D01*
X19887000Y29322000D01*
X19818879Y29342002D01*
X19772386Y29395658D01*
X19761000Y29448000D01*
X19761000Y34530000D01*
X19781002Y34598121D01*
X19834658Y34644614D01*
X19887000Y34656000D01*
X21666000Y34656000D01*
X21666000Y35038000D01*
X21686002Y35106121D01*
X21739658Y35152614D01*
X21792000Y35164000D01*
X26568528Y35164000D01*
X26595611Y35161055D01*
G37*
%TD.AperFunction*%
%TA.AperFunction,Conductor*%
G36*
X30687621Y27269998D02*
G01*
X30734114Y27216342D01*
X30745500Y27164000D01*
X30745500Y9509000D01*
X30725498Y9440879D01*
X30671842Y9394386D01*
X30619500Y9383000D01*
X21919000Y9383000D01*
X21850879Y9403002D01*
X21804386Y9456658D01*
X21793000Y9509000D01*
X21793000Y12558000D01*
X21792999Y12558002D01*
X21448905Y12902096D01*
X21414879Y12964408D01*
X21412000Y12991191D01*
X21412000Y16444700D01*
X21432002Y16512821D01*
X21485658Y16559314D01*
X21538000Y16570700D01*
X22092672Y16570700D01*
X22229121Y16586074D01*
X22402110Y16646606D01*
X22557293Y16744113D01*
X22686887Y16873707D01*
X22784394Y17028890D01*
X22844926Y17201879D01*
X22865446Y17384000D01*
X22844926Y17566121D01*
X22784394Y17739110D01*
X22686887Y17894293D01*
X22686886Y17894294D01*
X22686885Y17894296D01*
X22557295Y18023886D01*
X22402108Y18121395D01*
X22315615Y18151660D01*
X22229121Y18181926D01*
X22092672Y18197300D01*
X21538000Y18197300D01*
X21469879Y18217302D01*
X21423386Y18270958D01*
X21412000Y18323300D01*
X21412000Y24316811D01*
X21432002Y24384932D01*
X21448900Y24405901D01*
X23247867Y26204868D01*
X23310175Y26238890D01*
X23380990Y26233826D01*
X23403994Y26222457D01*
X23462409Y26185753D01*
X23473382Y26178858D01*
X23644670Y26118922D01*
X23644669Y26118922D01*
X23662929Y26116865D01*
X23825000Y26098604D01*
X24005330Y26118922D01*
X24176618Y26178858D01*
X24330274Y26275407D01*
X24370904Y26316037D01*
X24433215Y26350063D01*
X24504031Y26344999D01*
X24549096Y26316037D01*
X24589726Y26275407D01*
X24743382Y26178858D01*
X24914670Y26118922D01*
X24914669Y26118922D01*
X24932929Y26116865D01*
X25095000Y26098604D01*
X25275330Y26118922D01*
X25446618Y26178858D01*
X25600274Y26275407D01*
X25728593Y26403726D01*
X25825142Y26557382D01*
X25885078Y26728670D01*
X25905396Y26909000D01*
X25885078Y27089330D01*
X25873510Y27122387D01*
X25869893Y27193291D01*
X25905183Y27254895D01*
X25968176Y27287642D01*
X25992441Y27290000D01*
X30619500Y27290000D01*
X30687621Y27269998D01*
G37*
%TD.AperFunction*%
M02*
