%TF.GenerationSoftware,KiCad,Pcbnew,7.0.9-7.0.9~ubuntu22.04.1*%
%TF.CreationDate,2023-12-18T16:27:14+02:00*%
%TF.ProjectId,VGA2HDMI_Rev_C,56474132-4844-44d4-995f-5265765f432e,C*%
%TF.SameCoordinates,PX5f5e100PY7270e00*%
%TF.FileFunction,Soldermask,Bot*%
%TF.FilePolarity,Negative*%
%FSLAX46Y46*%
G04 Gerber Fmt 4.6, Leading zero omitted, Abs format (unit mm)*
G04 Created by KiCad (PCBNEW 7.0.9-7.0.9~ubuntu22.04.1) date 2023-12-18 16:27:14*
%MOMM*%
%LPD*%
G01*
G04 APERTURE LIST*
G04 Aperture macros list*
%AMRoundRect*
0 Rectangle with rounded corners*
0 $1 Rounding radius*
0 $2 $3 $4 $5 $6 $7 $8 $9 X,Y pos of 4 corners*
0 Add a 4 corners polygon primitive as box body*
4,1,4,$2,$3,$4,$5,$6,$7,$8,$9,$2,$3,0*
0 Add four circle primitives for the rounded corners*
1,1,$1+$1,$2,$3*
1,1,$1+$1,$4,$5*
1,1,$1+$1,$6,$7*
1,1,$1+$1,$8,$9*
0 Add four rect primitives between the rounded corners*
20,1,$1+$1,$2,$3,$4,$5,0*
20,1,$1+$1,$4,$5,$6,$7,0*
20,1,$1+$1,$6,$7,$8,$9,0*
20,1,$1+$1,$8,$9,$2,$3,0*%
G04 Aperture macros list end*
%ADD10O,1.401600X2.401600*%
%ADD11O,1.401600X2.801600*%
%ADD12C,0.701600*%
%ADD13O,1.301600X2.301600*%
%ADD14O,1.401600X2.101600*%
%ADD15C,1.879600*%
%ADD16C,1.301600*%
%ADD17C,6.401600*%
%ADD18C,1.901600*%
%ADD19C,1.701600*%
%ADD20O,4.901600X2.901600*%
%ADD21RoundRect,0.050800X0.825500X1.841500X-0.825500X1.841500X-0.825500X-1.841500X0.825500X-1.841500X0*%
G04 APERTURE END LIST*
D10*
X1000000Y53200000D03*
D11*
X1000000Y47150000D03*
D10*
X15600000Y53200000D03*
D11*
X15600000Y47150000D03*
D12*
X21910000Y49470000D03*
X27690000Y49470000D03*
D13*
X20480000Y48970000D03*
X29120000Y48970000D03*
D14*
X20480000Y53150000D03*
X29120000Y53150000D03*
D15*
X16967000Y13574000D03*
D16*
X1087000Y14500000D03*
X1849000Y16151000D03*
X1849000Y12722000D03*
X3500000Y16913000D03*
D17*
X3500000Y14500000D03*
D16*
X3500000Y12087000D03*
X5151000Y16151000D03*
X5151000Y12849000D03*
X5913000Y14500000D03*
D15*
X20142000Y13574000D03*
D18*
X9950000Y27500000D03*
D15*
X13792000Y13574000D03*
D19*
X19780000Y7090000D03*
X17490000Y7090000D03*
X15200000Y7090000D03*
X12910000Y7090000D03*
X10620000Y7090000D03*
X20925000Y5110000D03*
X18635000Y5110000D03*
X16345000Y5110000D03*
X14055000Y5110000D03*
X11765000Y5110000D03*
X19780000Y3130000D03*
X17490000Y3130000D03*
X15200000Y3130000D03*
X12910000Y3130000D03*
X10620000Y3130000D03*
D20*
X3005000Y5110000D03*
X27995000Y5110000D03*
D16*
X25087000Y38500000D03*
X25849000Y40151000D03*
X25849000Y36722000D03*
X27500000Y40913000D03*
D17*
X27500000Y38500000D03*
D16*
X27500000Y36087000D03*
X29151000Y40151000D03*
X29151000Y36849000D03*
X29913000Y38500000D03*
D21*
X26270000Y44000000D03*
X23730000Y44000000D03*
M02*
