M48
; DRILL file {KiCad 7.0.9-7.0.9~ubuntu22.04.1} date 18.12.2023 (пн) 16:27:55
; FORMAT={-:-/ absolute / metric / decimal}
; #@! TF.CreationDate,2023-12-18T16:27:55+02:00
; #@! TF.GenerationSoftware,Kicad,Pcbnew,7.0.9-7.0.9~ubuntu22.04.1
; #@! TF.FileFunction,Plated,1,4,PTH
FMAT,2
METRIC
; #@! TA.AperFunction,Plated,PTH,ViaDrill
T1C0.400
; #@! TA.AperFunction,Plated,PTH,ViaDrill
T2C0.600
; #@! TA.AperFunction,Plated,PTH,ComponentDrill
T3C0.600
; #@! TA.AperFunction,Plated,PTH,ComponentDrill
T4C0.800
; #@! TA.AperFunction,Plated,PTH,ComponentDrill
T5C1.000
; #@! TA.AperFunction,Plated,PTH,ComponentDrill
T6C1.200
; #@! TA.AperFunction,Plated,PTH,ComponentDrill
T7C1.300
; #@! TA.AperFunction,Plated,PTH,ComponentDrill
T8C3.300
%
G90
G05
T1
X1.016Y31.735
X1.092Y35.545
X1.727Y8.748
X2.26Y26.35
X2.362Y31.735
X3.251Y8.748
X3.378Y35.545
X3.886Y36.942
X3.886Y20.813
X4.14Y19.67
X4.267Y47.864
X4.648Y21.702
X4.71Y26.843
X5.791Y47.864
X5.918Y31.989
X6.68Y8.367
X7.188Y22.845
X7.315Y47.864
X7.442Y18.781
X7.95Y36.053
X7.95Y33.64
X7.95Y12.05
X8.839Y47.864
X11.379Y47.864
X11.506Y36.053
X11.506Y33.64
X11.887Y22.21
X12.268Y43.8
X12.903Y11.415
X13.665Y43.8
X14.173Y8.875
X15.062Y43.8
X15.062Y41.26
X15.824Y29.322
X16.205Y23.099
X16.332Y8.494
X16.84Y27.29
X17.475Y23.099
X17.983Y26.782
X18.364Y14.717
X18.491Y11.415
X18.618Y8.494
X19.151Y27.036
X20.015Y38.593
X20.904Y12.05
X22.174Y6.589
X24.079Y49.642
X27.889Y42.276
T2
X1.092Y44.054
X1.092Y41.26
X1.092Y28.052
X1.6Y1.255
X2.743Y44.054
X2.743Y41.26
X3.378Y39.355
X4.521Y34.656
X4.775Y37.958
X5.156Y36.18
X5.918Y1.255
X13.03Y40.879
X13.373Y23.898
X13.538Y20.686
X13.665Y31.1
X14.173Y16.495
X14.3Y39.355
X14.3Y36.942
X15.189Y35.164
X15.189Y33.513
X15.697Y37.958
X17.094Y36.942
X17.094Y35.164
X17.094Y33.513
X19.253Y17.384
X19.316Y41.26
X19.634Y23.353
X19.634Y22.083
X20.523Y35.545
X20.523Y31.354
X20.523Y30.084
X20.523Y28.433
X20.777Y17.384
X20.904Y45.832
X20.904Y44.562
X21.031Y25.639
X21.92Y45.197
X22.047Y17.384
X22.047Y16.114
X22.047Y13.955
X23.698Y8.113
X23.825Y26.909
X23.825Y16.114
X23.825Y13.955
X23.825Y11.923
X23.825Y10.018
X24.46Y1.255
X25.095Y34.148
X25.095Y31.354
X25.095Y28.56
X25.095Y26.909
X25.095Y23.861
X25.095Y21.067
X25.095Y18.273
X25.603Y16.114
X25.603Y13.955
X25.603Y11.923
X25.603Y10.018
X26.111Y32.751
X26.111Y29.957
X26.111Y22.464
X26.111Y19.67
X27.127Y34.148
X27.127Y31.354
X27.127Y28.56
X27.127Y26.147
X27.127Y23.861
X27.127Y21.067
X27.127Y18.273
X27.381Y16.114
X27.381Y13.955
X27.381Y11.923
X27.381Y10.018
X27.635Y44.943
X27.635Y43.673
X29.032Y1.255
X29.159Y16.114
X29.159Y13.955
X29.413Y34.148
X29.413Y28.56
X29.413Y26.147
X29.413Y23.861
X29.413Y18.273
T3
X1.087Y14.5
X1.849Y16.151
X1.849Y12.722
X3.5Y16.913
X3.5Y12.087
X5.151Y16.151
X5.151Y12.849
X5.913Y14.5
X8.95Y29.6
X8.95Y28.5
X8.95Y26.5
X8.95Y25.4
X10.95Y29.6
X10.95Y28.5
X10.95Y26.5
X10.95Y25.4
X25.087Y38.5
X25.849Y40.151
X25.849Y36.722
X27.5Y40.913
X27.5Y36.087
X29.151Y40.151
X29.151Y36.849
X29.913Y38.5
T5
X10.62Y7.09
X10.62Y3.13
X11.765Y5.11
X12.91Y7.09
X12.91Y3.13
X13.792Y13.574
X14.055Y5.11
X15.2Y7.09
X15.2Y3.13
X16.345Y5.11
X16.967Y13.574
X17.49Y7.09
X17.49Y3.13
X18.635Y5.11
X19.78Y7.09
X19.78Y3.13
X20.142Y13.574
X20.925Y5.11
T6
X9.95Y27.5
T8
X3.5Y14.5
X27.5Y38.5
T4
G00X1.0Y53.7
M15
G01X1.0Y52.7
M16
G05
G00X1.0Y47.85
M15
G01X1.0Y46.45
M16
G05
G00X15.6Y53.7
M15
G01X15.6Y52.7
M16
G05
G00X15.6Y47.85
M15
G01X15.6Y46.45
M16
G05
G00X20.48Y52.85
M15
G01X20.48Y53.45
M16
G05
G00X20.48Y48.52
M15
G01X20.48Y49.42
M16
G05
G00X29.12Y52.85
M15
G01X29.12Y53.45
M16
G05
G00X29.12Y48.52
M15
G01X29.12Y49.42
M16
G05
T7
G00X2.005Y5.11
M15
G01X4.005Y5.11
M16
G05
G00X26.995Y5.11
M15
G01X28.995Y5.11
M16
G05
T0
M30
