%TF.GenerationSoftware,KiCad,Pcbnew,7.0.9-7.0.9~ubuntu22.04.1*%
%TF.CreationDate,2023-12-18T16:27:13+02:00*%
%TF.ProjectId,VGA2HDMI_Rev_C,56474132-4844-44d4-995f-5265765f432e,C*%
%TF.SameCoordinates,PX5f5e100PY7270e00*%
%TF.FileFunction,Paste,Top*%
%TF.FilePolarity,Positive*%
%FSLAX46Y46*%
G04 Gerber Fmt 4.6, Leading zero omitted, Abs format (unit mm)*
G04 Created by KiCad (PCBNEW 7.0.9-7.0.9~ubuntu22.04.1) date 2023-12-18 16:27:13*
%MOMM*%
%LPD*%
G01*
G04 APERTURE LIST*
%ADD10R,0.550000X0.500000*%
%ADD11C,1.000000*%
%ADD12R,2.400000X2.800000*%
%ADD13R,2.400000X3.200000*%
%ADD14R,0.230000X1.580000*%
%ADD15R,2.100000X3.200000*%
%ADD16R,2.100000X3.000000*%
%ADD17R,1.100000X2.200000*%
%ADD18R,1.100000X2.000000*%
%ADD19R,0.280000X1.130000*%
%ADD20R,0.230000X1.130000*%
%ADD21R,1.524000X1.270000*%
%ADD22R,0.500000X0.550000*%
%ADD23R,1.016000X1.016000*%
%ADD24R,2.235200X1.219200*%
%ADD25R,2.200000X3.600000*%
%ADD26R,1.000000X1.400000*%
%ADD27R,2.400000X2.100000*%
%ADD28R,0.211000X0.886000*%
%ADD29R,0.886000X0.211000*%
%ADD30R,1.000000X1.700000*%
%ADD31R,1.600000X0.800000*%
%ADD32R,0.800000X0.800000*%
%ADD33R,1.600000X1.800000*%
G04 APERTURE END LIST*
D10*
X18999000Y45197000D03*
X18999000Y46213000D03*
X17729000Y45197000D03*
X17729000Y46213000D03*
D11*
X29500000Y10500000D03*
D12*
X450000Y53200000D03*
D13*
X450000Y47150000D03*
D12*
X16150000Y53200000D03*
D13*
X16150000Y47150000D03*
D14*
X3800000Y46200000D03*
X4300000Y46200000D03*
X4800000Y46200000D03*
X5300000Y46200000D03*
X5800000Y46200000D03*
X6300000Y46200000D03*
X6800000Y46200000D03*
X7300000Y46200000D03*
X7800000Y46200000D03*
X8300000Y46200000D03*
X8800000Y46200000D03*
X9300000Y46200000D03*
X9800000Y46200000D03*
X10300000Y46200000D03*
X10800000Y46200000D03*
X11300000Y46200000D03*
X11800000Y46200000D03*
X12300000Y46200000D03*
X12800000Y46200000D03*
D15*
X19872400Y48970000D03*
X29727600Y48970000D03*
D16*
X19872400Y53150000D03*
X29727600Y53150000D03*
D17*
X19872400Y48970000D03*
X29727600Y48970000D03*
D18*
X19872400Y53150000D03*
X29727600Y53150000D03*
D19*
X28125000Y48068000D03*
X27325000Y48068000D03*
D20*
X26050000Y48068000D03*
X25050000Y48068000D03*
X24550000Y48068000D03*
X23550000Y48068000D03*
D19*
X22275000Y48068000D03*
X21475000Y48068000D03*
X21725000Y48068000D03*
X22525000Y48068000D03*
D20*
X23050000Y48068000D03*
X24050000Y48068000D03*
X25550000Y48068000D03*
X26550000Y48068000D03*
D19*
X27075000Y48068000D03*
X27875000Y48068000D03*
D10*
X9474000Y20940000D03*
X9474000Y19924000D03*
X17856000Y28306000D03*
X17856000Y29322000D03*
D21*
X14173000Y17892000D03*
X12141000Y17892000D03*
D10*
X4775000Y30846000D03*
X4775000Y31862000D03*
X4902000Y19670000D03*
X4902000Y20686000D03*
X10617000Y19924000D03*
X10617000Y20940000D03*
X13792000Y35291000D03*
X13792000Y34275000D03*
X8966000Y11415000D03*
X8966000Y10399000D03*
D22*
X4648000Y23480000D03*
X3632000Y23480000D03*
D21*
X19507000Y20305000D03*
X17475000Y20305000D03*
D23*
X16459000Y22083000D03*
X18237000Y22083000D03*
D24*
X23012200Y23378400D03*
D25*
X29210000Y21067000D03*
D24*
X23012200Y21067000D03*
X23012200Y18755600D03*
D10*
X17602000Y11415000D03*
X17602000Y10399000D03*
D22*
X4648000Y24496000D03*
X3632000Y24496000D03*
D26*
X18298000Y40836000D03*
X16398000Y40836000D03*
X17348000Y38636000D03*
D23*
X20777000Y18527000D03*
X18999000Y18527000D03*
D27*
X2362000Y33585000D03*
X2362000Y29885000D03*
D22*
X10744000Y18908000D03*
X9728000Y18908000D03*
D10*
X16586000Y31354000D03*
X16586000Y32370000D03*
D22*
X2870000Y36434000D03*
X1854000Y36434000D03*
X4013000Y26401000D03*
X2997000Y26401000D03*
D10*
X15062000Y42022000D03*
X15062000Y43038000D03*
X5537000Y32878000D03*
X5537000Y33894000D03*
X8331000Y19924000D03*
X8331000Y20940000D03*
X13792000Y11415000D03*
X13792000Y10399000D03*
X17856000Y30338000D03*
X17856000Y31354000D03*
D22*
X24079000Y25385000D03*
X25095000Y25385000D03*
D10*
X9093000Y14717000D03*
X9093000Y13701000D03*
X7950000Y34275000D03*
X7950000Y35291000D03*
D22*
X19380000Y15225000D03*
X20396000Y15225000D03*
X16332000Y15225000D03*
X17348000Y15225000D03*
D28*
X7350000Y24062500D03*
X7750000Y24062500D03*
X8150000Y24062500D03*
X8550000Y24062500D03*
X8950000Y24062500D03*
X9350000Y24062500D03*
X9750000Y24062500D03*
X10150000Y24062500D03*
X10550000Y24062500D03*
X10950000Y24062500D03*
X11350000Y24062500D03*
X11750000Y24062500D03*
X12150000Y24062500D03*
X12550000Y24062500D03*
D29*
X6512500Y24900000D03*
X13387500Y24900000D03*
X6512500Y25300000D03*
X13387500Y25300000D03*
X6512500Y25700000D03*
X13387500Y25700000D03*
D30*
X7950000Y25850000D03*
X9950000Y25850000D03*
X11950000Y25850000D03*
D29*
X6512500Y26100000D03*
X13387500Y26100000D03*
X6512500Y26500000D03*
X13387500Y26500000D03*
X6512500Y26900000D03*
X13387500Y26900000D03*
X6512500Y27300000D03*
X13387500Y27300000D03*
D31*
X8250000Y27500000D03*
X11650000Y27500000D03*
D29*
X6512500Y27700000D03*
X13387500Y27700000D03*
X6512500Y28100000D03*
X13387500Y28100000D03*
X6512500Y28500000D03*
X13387500Y28500000D03*
X6512500Y28900000D03*
X13387500Y28900000D03*
D30*
X7950000Y29150000D03*
X9950000Y29150000D03*
X11950000Y29150000D03*
D29*
X6512500Y29300000D03*
X13387500Y29300000D03*
X6512500Y29700000D03*
X13387500Y29700000D03*
X6512500Y30100000D03*
X13387500Y30100000D03*
D28*
X7350000Y30937500D03*
X7750000Y30937500D03*
X8150000Y30937500D03*
X8550000Y30937500D03*
X8950000Y30937500D03*
X9350000Y30937500D03*
X9750000Y30937500D03*
X10150000Y30937500D03*
X10550000Y30937500D03*
X10950000Y30937500D03*
X11350000Y30937500D03*
X11750000Y30937500D03*
X12150000Y30937500D03*
X12550000Y30937500D03*
D22*
X19380000Y16241000D03*
X20396000Y16241000D03*
D10*
X14935000Y19289000D03*
X14935000Y20305000D03*
D32*
X1727000Y10145000D03*
X3251000Y10145000D03*
D22*
X11633000Y21067000D03*
X12649000Y21067000D03*
D23*
X11887000Y19670000D03*
X13665000Y19670000D03*
D10*
X7823000Y11415000D03*
X7823000Y10399000D03*
X15316000Y31354000D03*
X15316000Y32370000D03*
X7188000Y20940000D03*
X7188000Y19924000D03*
X10236000Y14717000D03*
X10236000Y13701000D03*
D23*
X22555000Y26782000D03*
X20777000Y26782000D03*
X20523000Y32624000D03*
X20523000Y34402000D03*
D10*
X12776000Y42022000D03*
X12776000Y43038000D03*
D22*
X16332000Y16241000D03*
X17348000Y16241000D03*
X22047000Y25385000D03*
X23063000Y25385000D03*
D10*
X11506000Y34275000D03*
X11506000Y35291000D03*
X16332000Y17384000D03*
X16332000Y18400000D03*
D22*
X12522000Y22210000D03*
X13538000Y22210000D03*
D10*
X14935000Y11415000D03*
X14935000Y10399000D03*
X16459000Y11415000D03*
X16459000Y10399000D03*
D22*
X4902000Y22464000D03*
X3886000Y22464000D03*
D24*
X23012200Y33665400D03*
D25*
X29210000Y31354000D03*
D24*
X23012200Y31354000D03*
X23012200Y29042600D03*
D10*
X6045000Y20940000D03*
X6045000Y19924000D03*
X16586000Y29322000D03*
X16586000Y30338000D03*
X20015000Y11415000D03*
X20015000Y10399000D03*
D22*
X16332000Y23861000D03*
X17348000Y23861000D03*
D23*
X20650000Y22845000D03*
X20650000Y24623000D03*
D10*
X17602000Y17384000D03*
X17602000Y18400000D03*
D33*
X20018000Y43038000D03*
X17218000Y43038000D03*
D32*
X1727000Y37958000D03*
X3251000Y37958000D03*
D22*
X17729000Y25766000D03*
X18745000Y25766000D03*
D32*
X22301000Y42784000D03*
X23825000Y42784000D03*
D22*
X22809000Y41260000D03*
X21793000Y41260000D03*
D10*
X21158000Y11415000D03*
X21158000Y10399000D03*
X4775000Y29703000D03*
X4775000Y28687000D03*
X13919000Y42022000D03*
X13919000Y43038000D03*
M02*
