%TF.GenerationSoftware,KiCad,Pcbnew,7.0.9-7.0.9~ubuntu22.04.1*%
%TF.CreationDate,2023-12-18T16:27:13+02:00*%
%TF.ProjectId,VGA2HDMI_Rev_C,56474132-4844-44d4-995f-5265765f432e,C*%
%TF.SameCoordinates,PX5f5e100PY7270e00*%
%TF.FileFunction,Soldermask,Top*%
%TF.FilePolarity,Negative*%
%FSLAX46Y46*%
G04 Gerber Fmt 4.6, Leading zero omitted, Abs format (unit mm)*
G04 Created by KiCad (PCBNEW 7.0.9-7.0.9~ubuntu22.04.1) date 2023-12-18 16:27:13*
%MOMM*%
%LPD*%
G01*
G04 APERTURE LIST*
G04 Aperture macros list*
%AMRoundRect*
0 Rectangle with rounded corners*
0 $1 Rounding radius*
0 $2 $3 $4 $5 $6 $7 $8 $9 X,Y pos of 4 corners*
0 Add a 4 corners polygon primitive as box body*
4,1,4,$2,$3,$4,$5,$6,$7,$8,$9,$2,$3,0*
0 Add four circle primitives for the rounded corners*
1,1,$1+$1,$2,$3*
1,1,$1+$1,$4,$5*
1,1,$1+$1,$6,$7*
1,1,$1+$1,$8,$9*
0 Add four rect primitives between the rounded corners*
20,1,$1+$1,$2,$3,$4,$5,0*
20,1,$1+$1,$4,$5,$6,$7,0*
20,1,$1+$1,$6,$7,$8,$9,0*
20,1,$1+$1,$8,$9,$2,$3,0*%
G04 Aperture macros list end*
%ADD10C,1.254000*%
%ADD11RoundRect,0.050800X-0.275000X0.250000X-0.275000X-0.250000X0.275000X-0.250000X0.275000X0.250000X0*%
%ADD12RoundRect,0.050800X0.275000X-0.250000X0.275000X0.250000X-0.275000X0.250000X-0.275000X-0.250000X0*%
%ADD13O,1.401600X2.401600*%
%ADD14O,1.401600X2.801600*%
%ADD15RoundRect,0.050800X0.125000X-0.800000X0.125000X0.800000X-0.125000X0.800000X-0.125000X-0.800000X0*%
%ADD16C,0.701600*%
%ADD17RoundRect,0.050800X0.550000X1.100000X-0.550000X1.100000X-0.550000X-1.100000X0.550000X-1.100000X0*%
%ADD18O,1.301600X2.301600*%
%ADD19RoundRect,0.050800X0.550000X1.000000X-0.550000X1.000000X-0.550000X-1.000000X0.550000X-1.000000X0*%
%ADD20O,1.401600X2.101600*%
%ADD21RoundRect,0.050800X0.150000X0.575000X-0.150000X0.575000X-0.150000X-0.575000X0.150000X-0.575000X0*%
%ADD22RoundRect,0.050800X0.125000X0.575000X-0.125000X0.575000X-0.125000X-0.575000X0.125000X-0.575000X0*%
%ADD23C,1.101600*%
%ADD24RoundRect,0.050800X-0.127000X0.254000X-0.127000X-0.254000X0.127000X-0.254000X0.127000X0.254000X0*%
%ADD25RoundRect,0.050800X0.127000X-0.254000X0.127000X0.254000X-0.127000X0.254000X-0.127000X-0.254000X0*%
%ADD26RoundRect,0.050800X0.762000X0.635000X-0.762000X0.635000X-0.762000X-0.635000X0.762000X-0.635000X0*%
%ADD27RoundRect,0.050800X-0.250000X-0.275000X0.250000X-0.275000X0.250000X0.275000X-0.250000X0.275000X0*%
%ADD28RoundRect,0.050800X0.250000X0.275000X-0.250000X0.275000X-0.250000X-0.275000X0.250000X-0.275000X0*%
%ADD29C,1.879600*%
%ADD30C,1.301600*%
%ADD31C,6.401600*%
%ADD32RoundRect,0.050800X-0.508000X-0.508000X0.508000X-0.508000X0.508000X0.508000X-0.508000X0.508000X0*%
%ADD33RoundRect,0.050800X-1.117600X0.609600X-1.117600X-0.609600X1.117600X-0.609600X1.117600X0.609600X0*%
%ADD34RoundRect,0.050800X-1.100000X1.800000X-1.100000X-1.800000X1.100000X-1.800000X1.100000X1.800000X0*%
%ADD35RoundRect,0.050800X0.500000X0.700000X-0.500000X0.700000X-0.500000X-0.700000X0.500000X-0.700000X0*%
%ADD36RoundRect,0.050800X0.508000X0.508000X-0.508000X0.508000X-0.508000X-0.508000X0.508000X-0.508000X0*%
%ADD37RoundRect,0.050800X-1.200000X1.050000X-1.200000X-1.050000X1.200000X-1.050000X1.200000X1.050000X0*%
%ADD38RoundRect,0.050800X0.437500X0.100000X-0.437500X0.100000X-0.437500X-0.100000X0.437500X-0.100000X0*%
%ADD39RoundRect,0.050800X0.100000X0.437500X-0.100000X0.437500X-0.100000X-0.437500X0.100000X-0.437500X0*%
%ADD40C,1.901600*%
%ADD41RoundRect,0.050800X1.600000X1.600000X-1.600000X1.600000X-1.600000X-1.600000X1.600000X-1.600000X0*%
%ADD42RoundRect,0.050800X2.700000X2.700000X-2.700000X2.700000X-2.700000X-2.700000X2.700000X-2.700000X0*%
%ADD43RoundRect,0.050800X0.400000X0.400000X-0.400000X0.400000X-0.400000X-0.400000X0.400000X-0.400000X0*%
%ADD44RoundRect,0.050800X0.508000X-0.508000X0.508000X0.508000X-0.508000X0.508000X-0.508000X-0.508000X0*%
%ADD45C,1.701600*%
%ADD46O,4.901600X2.901600*%
%ADD47RoundRect,0.050800X0.800000X0.900000X-0.800000X0.900000X-0.800000X-0.900000X0.800000X-0.900000X0*%
G04 APERTURE END LIST*
D10*
X5537000Y10272000D03*
X29413000Y46213000D03*
D11*
X18999000Y45197000D03*
D12*
X18999000Y46213000D03*
D11*
X17729000Y45197000D03*
D12*
X17729000Y46213000D03*
D10*
X29500000Y10500000D03*
D13*
X1000000Y53200000D03*
D14*
X1000000Y47150000D03*
D13*
X15600000Y53200000D03*
D14*
X15600000Y47150000D03*
D15*
X3800000Y46200000D03*
X4300000Y46200000D03*
X4800000Y46200000D03*
X5300000Y46200000D03*
X5800000Y46200000D03*
X6300000Y46200000D03*
X6800000Y46200000D03*
X7300000Y46200000D03*
X7800000Y46200000D03*
X8300000Y46200000D03*
X8800000Y46200000D03*
X9300000Y46200000D03*
X9800000Y46200000D03*
X10300000Y46200000D03*
X10800000Y46200000D03*
X11300000Y46200000D03*
X11800000Y46200000D03*
X12300000Y46200000D03*
X12800000Y46200000D03*
D16*
X21910000Y49470000D03*
X27690000Y49470000D03*
D17*
X19872400Y48970000D03*
D18*
X20480000Y48970000D03*
X29120000Y48970000D03*
D17*
X29727600Y48970000D03*
D19*
X19872400Y53150000D03*
D20*
X20480000Y53150000D03*
X29120000Y53150000D03*
D19*
X29727600Y53150000D03*
D21*
X28125000Y48068000D03*
X27325000Y48068000D03*
D22*
X26050000Y48068000D03*
X25050000Y48068000D03*
X24550000Y48068000D03*
X23550000Y48068000D03*
D21*
X22275000Y48068000D03*
X21475000Y48068000D03*
X21725000Y48068000D03*
X22525000Y48068000D03*
D22*
X23050000Y48068000D03*
X24050000Y48068000D03*
X25550000Y48068000D03*
X26550000Y48068000D03*
D21*
X27075000Y48068000D03*
X27875000Y48068000D03*
D23*
X10617000Y43673000D03*
D12*
X9474000Y20940000D03*
D11*
X9474000Y19924000D03*
X17856000Y28306000D03*
D24*
X17856000Y28614000D03*
D25*
X17856000Y29014000D03*
D12*
X17856000Y29322000D03*
D26*
X14173000Y17892000D03*
X12141000Y17892000D03*
D11*
X4775000Y30846000D03*
D12*
X4775000Y31862000D03*
D23*
X1092000Y25258000D03*
D11*
X4902000Y19670000D03*
D12*
X4902000Y20686000D03*
D23*
X1092000Y18400000D03*
X22174000Y12431000D03*
X29667000Y12685000D03*
D11*
X10617000Y19924000D03*
D12*
X10617000Y20940000D03*
D23*
X1092000Y22972000D03*
D12*
X13792000Y35291000D03*
D11*
X13792000Y34275000D03*
D12*
X8966000Y11415000D03*
D11*
X8966000Y10399000D03*
D23*
X19126000Y28306000D03*
D27*
X4648000Y23480000D03*
D28*
X3632000Y23480000D03*
D29*
X16967000Y13574000D03*
D26*
X19507000Y20305000D03*
X17475000Y20305000D03*
D30*
X1087000Y14500000D03*
X1849000Y16151000D03*
X1849000Y12722000D03*
X3500000Y16913000D03*
D31*
X3500000Y14500000D03*
D30*
X3500000Y12087000D03*
X5151000Y16151000D03*
X5151000Y12849000D03*
X5913000Y14500000D03*
D32*
X16459000Y22083000D03*
X18237000Y22083000D03*
D33*
X23012200Y23378400D03*
D34*
X29210000Y21067000D03*
D33*
X23012200Y21067000D03*
X23012200Y18755600D03*
D12*
X17602000Y11415000D03*
D11*
X17602000Y10399000D03*
D27*
X4648000Y24496000D03*
D28*
X3632000Y24496000D03*
D35*
X18298000Y40836000D03*
X16398000Y40836000D03*
X17348000Y38636000D03*
D36*
X20777000Y18527000D03*
X18999000Y18527000D03*
D37*
X2362000Y33585000D03*
X2362000Y29885000D03*
D27*
X10744000Y18908000D03*
D28*
X9728000Y18908000D03*
D11*
X16586000Y31354000D03*
D12*
X16586000Y32370000D03*
D27*
X2870000Y36434000D03*
D28*
X1854000Y36434000D03*
D27*
X4013000Y26401000D03*
D28*
X2997000Y26401000D03*
D11*
X15062000Y42022000D03*
D12*
X15062000Y43038000D03*
D11*
X5537000Y32878000D03*
D12*
X5537000Y33894000D03*
D11*
X8331000Y19924000D03*
D12*
X8331000Y20940000D03*
X13792000Y11415000D03*
D11*
X13792000Y10399000D03*
X17856000Y30338000D03*
D12*
X17856000Y31354000D03*
D28*
X24079000Y25385000D03*
D27*
X25095000Y25385000D03*
D12*
X9093000Y14717000D03*
D11*
X9093000Y13701000D03*
X7950000Y34275000D03*
D12*
X7950000Y35291000D03*
D28*
X19380000Y15225000D03*
D27*
X20396000Y15225000D03*
D29*
X20142000Y13574000D03*
D28*
X16332000Y15225000D03*
D27*
X17348000Y15225000D03*
D38*
X13387500Y24900000D03*
X13387500Y25300000D03*
X13387500Y25700000D03*
X13387500Y26100000D03*
X13387500Y26500000D03*
X13387500Y26900000D03*
X13387500Y27300000D03*
X13387500Y27700000D03*
X13387500Y28100000D03*
X13387500Y28500000D03*
X13387500Y28900000D03*
X13387500Y29300000D03*
X13387500Y29700000D03*
X13387500Y30100000D03*
D39*
X12550000Y30937500D03*
X12150000Y30937500D03*
X11750000Y30937500D03*
X11350000Y30937500D03*
X10950000Y30937500D03*
X10550000Y30937500D03*
X10150000Y30937500D03*
X9750000Y30937500D03*
X9350000Y30937500D03*
X8950000Y30937500D03*
X8550000Y30937500D03*
X8150000Y30937500D03*
X7750000Y30937500D03*
X7350000Y30937500D03*
D38*
X6512500Y30100000D03*
X6512500Y29700000D03*
X6512500Y29300000D03*
X6512500Y28900000D03*
X6512500Y28500000D03*
X6512500Y28100000D03*
X6512500Y27700000D03*
X6512500Y27300000D03*
X6512500Y26900000D03*
X6512500Y26500000D03*
X6512500Y26100000D03*
X6512500Y25700000D03*
X6512500Y25300000D03*
X6512500Y24900000D03*
D39*
X7350000Y24062500D03*
X7750000Y24062500D03*
X8150000Y24062500D03*
X8550000Y24062500D03*
X8950000Y24062500D03*
X9350000Y24062500D03*
X9750000Y24062500D03*
X10150000Y24062500D03*
X10550000Y24062500D03*
X10950000Y24062500D03*
X11350000Y24062500D03*
X11750000Y24062500D03*
X12150000Y24062500D03*
X12550000Y24062500D03*
D40*
X9950000Y27500000D03*
D41*
X9950000Y27500000D03*
D42*
X9950000Y27500000D03*
D28*
X19380000Y16241000D03*
D27*
X20396000Y16241000D03*
D11*
X14935000Y19289000D03*
D12*
X14935000Y20305000D03*
D43*
X1727000Y10145000D03*
X3251000Y10145000D03*
D23*
X1092000Y20686000D03*
D28*
X11633000Y21067000D03*
D27*
X12649000Y21067000D03*
D32*
X11887000Y19670000D03*
X13665000Y19670000D03*
D12*
X7823000Y11415000D03*
D11*
X7823000Y10399000D03*
X15316000Y31354000D03*
D12*
X15316000Y32370000D03*
X7188000Y20940000D03*
D11*
X7188000Y19924000D03*
D12*
X10236000Y14717000D03*
D11*
X10236000Y13701000D03*
D36*
X22555000Y26782000D03*
X20777000Y26782000D03*
D44*
X20523000Y32624000D03*
X20523000Y34402000D03*
D11*
X12776000Y42022000D03*
D12*
X12776000Y43038000D03*
D28*
X16332000Y16241000D03*
D27*
X17348000Y16241000D03*
D28*
X22047000Y25385000D03*
D27*
X23063000Y25385000D03*
D11*
X11506000Y34275000D03*
D12*
X11506000Y35291000D03*
D11*
X16332000Y17384000D03*
D12*
X16332000Y18400000D03*
D28*
X12522000Y22210000D03*
D27*
X13538000Y22210000D03*
D29*
X13792000Y13574000D03*
D12*
X14935000Y11415000D03*
D11*
X14935000Y10399000D03*
D12*
X16459000Y11415000D03*
D11*
X16459000Y10399000D03*
D27*
X4902000Y22464000D03*
D28*
X3886000Y22464000D03*
D33*
X23012200Y33665400D03*
D34*
X29210000Y31354000D03*
D33*
X23012200Y31354000D03*
X23012200Y29042600D03*
D23*
X1854000Y39736000D03*
D45*
X19780000Y7090000D03*
X17490000Y7090000D03*
X15200000Y7090000D03*
X12910000Y7090000D03*
X10620000Y7090000D03*
X20925000Y5110000D03*
X18635000Y5110000D03*
X16345000Y5110000D03*
X14055000Y5110000D03*
X11765000Y5110000D03*
X19780000Y3130000D03*
X17490000Y3130000D03*
X15200000Y3130000D03*
X12910000Y3130000D03*
X10620000Y3130000D03*
D46*
X3005000Y5110000D03*
X27995000Y5110000D03*
D12*
X6045000Y20940000D03*
D11*
X6045000Y19924000D03*
X16586000Y29322000D03*
D12*
X16586000Y30338000D03*
X20015000Y11415000D03*
D11*
X20015000Y10399000D03*
D28*
X16332000Y23861000D03*
D27*
X17348000Y23861000D03*
D44*
X20650000Y22845000D03*
X20650000Y24623000D03*
D11*
X17602000Y17384000D03*
D12*
X17602000Y18400000D03*
D47*
X20018000Y43038000D03*
X17218000Y43038000D03*
D43*
X1727000Y37958000D03*
X3251000Y37958000D03*
D28*
X17729000Y25766000D03*
D27*
X18745000Y25766000D03*
D43*
X22301000Y42784000D03*
X23825000Y42784000D03*
D27*
X22809000Y41260000D03*
D28*
X21793000Y41260000D03*
D23*
X16713000Y25004000D03*
D12*
X21158000Y11415000D03*
D11*
X21158000Y10399000D03*
D12*
X4775000Y29703000D03*
D11*
X4775000Y28687000D03*
X13919000Y42022000D03*
D12*
X13919000Y43038000D03*
D23*
X29921000Y43927000D03*
D30*
X25087000Y38500000D03*
X25849000Y40151000D03*
X25849000Y36722000D03*
X27500000Y40913000D03*
D31*
X27500000Y38500000D03*
D30*
X27500000Y36087000D03*
X29151000Y40151000D03*
X29151000Y36849000D03*
X29913000Y38500000D03*
M02*
