%TF.GenerationSoftware,KiCad,Pcbnew,7.0.9-7.0.9~ubuntu22.04.1*%
%TF.CreationDate,2023-12-18T16:27:13+02:00*%
%TF.ProjectId,VGA2HDMI_Rev_C,56474132-4844-44d4-995f-5265765f432e,C*%
%TF.SameCoordinates,PX5f5e100PY7270e00*%
%TF.FileFunction,Legend,Bot*%
%TF.FilePolarity,Positive*%
%FSLAX46Y46*%
G04 Gerber Fmt 4.6, Leading zero omitted, Abs format (unit mm)*
G04 Created by KiCad (PCBNEW 7.0.9-7.0.9~ubuntu22.04.1) date 2023-12-18 16:27:13*
%MOMM*%
%LPD*%
G01*
G04 APERTURE LIST*
%ADD10C,0.444500*%
%ADD11C,0.317500*%
%ADD12C,0.254000*%
%ADD13C,0.180000*%
%ADD14C,0.500000*%
%ADD15C,0.350000*%
%ADD16C,0.300000*%
%ADD17C,0.700000*%
%ADD18C,0.100000*%
%ADD19C,0.400000*%
%ADD20C,0.150000*%
%ADD21C,0.370000*%
%ADD22C,0.380000*%
%ADD23C,1.000000*%
%ADD24C,0.420000*%
%ADD25C,0.200000*%
%ADD26C,0.127000*%
%ADD27C,0.508000*%
%ADD28C,0.762000*%
G04 APERTURE END LIST*
D10*
X14553999Y54176577D02*
X13961333Y52398577D01*
X13961333Y52398577D02*
X13368666Y54176577D01*
X11844666Y54091910D02*
X12013999Y54176577D01*
X12013999Y54176577D02*
X12267999Y54176577D01*
X12267999Y54176577D02*
X12521999Y54091910D01*
X12521999Y54091910D02*
X12691333Y53922577D01*
X12691333Y53922577D02*
X12775999Y53753243D01*
X12775999Y53753243D02*
X12860666Y53414577D01*
X12860666Y53414577D02*
X12860666Y53160577D01*
X12860666Y53160577D02*
X12775999Y52821910D01*
X12775999Y52821910D02*
X12691333Y52652577D01*
X12691333Y52652577D02*
X12521999Y52483243D01*
X12521999Y52483243D02*
X12267999Y52398577D01*
X12267999Y52398577D02*
X12098666Y52398577D01*
X12098666Y52398577D02*
X11844666Y52483243D01*
X11844666Y52483243D02*
X11759999Y52567910D01*
X11759999Y52567910D02*
X11759999Y53160577D01*
X11759999Y53160577D02*
X12098666Y53160577D01*
X11082666Y52906577D02*
X10235999Y52906577D01*
X11251999Y52398577D02*
X10659333Y54176577D01*
X10659333Y54176577D02*
X10066666Y52398577D01*
X9558666Y54007243D02*
X9473999Y54091910D01*
X9473999Y54091910D02*
X9304666Y54176577D01*
X9304666Y54176577D02*
X8881333Y54176577D01*
X8881333Y54176577D02*
X8711999Y54091910D01*
X8711999Y54091910D02*
X8627333Y54007243D01*
X8627333Y54007243D02*
X8542666Y53837910D01*
X8542666Y53837910D02*
X8542666Y53668577D01*
X8542666Y53668577D02*
X8627333Y53414577D01*
X8627333Y53414577D02*
X9643333Y52398577D01*
X9643333Y52398577D02*
X8542666Y52398577D01*
X7780666Y52398577D02*
X7780666Y54176577D01*
X7780666Y53329910D02*
X6764666Y53329910D01*
X6764666Y52398577D02*
X6764666Y54176577D01*
X5917999Y52398577D02*
X5917999Y54176577D01*
X5917999Y54176577D02*
X5494666Y54176577D01*
X5494666Y54176577D02*
X5240666Y54091910D01*
X5240666Y54091910D02*
X5071333Y53922577D01*
X5071333Y53922577D02*
X4986666Y53753243D01*
X4986666Y53753243D02*
X4901999Y53414577D01*
X4901999Y53414577D02*
X4901999Y53160577D01*
X4901999Y53160577D02*
X4986666Y52821910D01*
X4986666Y52821910D02*
X5071333Y52652577D01*
X5071333Y52652577D02*
X5240666Y52483243D01*
X5240666Y52483243D02*
X5494666Y52398577D01*
X5494666Y52398577D02*
X5917999Y52398577D01*
X4139999Y52398577D02*
X4139999Y54176577D01*
X4139999Y54176577D02*
X3547333Y52906577D01*
X3547333Y52906577D02*
X2954666Y54176577D01*
X2954666Y54176577D02*
X2954666Y52398577D01*
X2107999Y52398577D02*
X2107999Y54176577D01*
D11*
X23069046Y1657651D02*
X22827141Y810984D01*
X22827141Y810984D02*
X22585236Y1415746D01*
X22585236Y1415746D02*
X22343332Y810984D01*
X22343332Y810984D02*
X22101427Y1657651D01*
X21738570Y1657651D02*
X21496665Y810984D01*
X21496665Y810984D02*
X21254760Y1415746D01*
X21254760Y1415746D02*
X21012856Y810984D01*
X21012856Y810984D02*
X20770951Y1657651D01*
X20408094Y1657651D02*
X20166189Y810984D01*
X20166189Y810984D02*
X19924284Y1415746D01*
X19924284Y1415746D02*
X19682380Y810984D01*
X19682380Y810984D02*
X19440475Y1657651D01*
X18956666Y931937D02*
X18896189Y871460D01*
X18896189Y871460D02*
X18956666Y810984D01*
X18956666Y810984D02*
X19017142Y871460D01*
X19017142Y871460D02*
X18956666Y931937D01*
X18956666Y931937D02*
X18956666Y810984D01*
X18170475Y810984D02*
X18291427Y871460D01*
X18291427Y871460D02*
X18351904Y931937D01*
X18351904Y931937D02*
X18412380Y1052889D01*
X18412380Y1052889D02*
X18412380Y1415746D01*
X18412380Y1415746D02*
X18351904Y1536699D01*
X18351904Y1536699D02*
X18291427Y1597175D01*
X18291427Y1597175D02*
X18170475Y1657651D01*
X18170475Y1657651D02*
X17989046Y1657651D01*
X17989046Y1657651D02*
X17868094Y1597175D01*
X17868094Y1597175D02*
X17807618Y1536699D01*
X17807618Y1536699D02*
X17747142Y1415746D01*
X17747142Y1415746D02*
X17747142Y1052889D01*
X17747142Y1052889D02*
X17807618Y931937D01*
X17807618Y931937D02*
X17868094Y871460D01*
X17868094Y871460D02*
X17989046Y810984D01*
X17989046Y810984D02*
X18170475Y810984D01*
X17021427Y810984D02*
X17142379Y871460D01*
X17142379Y871460D02*
X17202856Y992413D01*
X17202856Y992413D02*
X17202856Y2080984D01*
X16537618Y810984D02*
X16537618Y1657651D01*
X16537618Y2080984D02*
X16598094Y2020508D01*
X16598094Y2020508D02*
X16537618Y1960032D01*
X16537618Y1960032D02*
X16477141Y2020508D01*
X16477141Y2020508D02*
X16537618Y2080984D01*
X16537618Y2080984D02*
X16537618Y1960032D01*
X15932856Y810984D02*
X15932856Y1657651D01*
X15932856Y1536699D02*
X15872379Y1597175D01*
X15872379Y1597175D02*
X15751427Y1657651D01*
X15751427Y1657651D02*
X15569998Y1657651D01*
X15569998Y1657651D02*
X15449046Y1597175D01*
X15449046Y1597175D02*
X15388570Y1476222D01*
X15388570Y1476222D02*
X15388570Y810984D01*
X15388570Y1476222D02*
X15328094Y1597175D01*
X15328094Y1597175D02*
X15207141Y1657651D01*
X15207141Y1657651D02*
X15025713Y1657651D01*
X15025713Y1657651D02*
X14904760Y1597175D01*
X14904760Y1597175D02*
X14844284Y1476222D01*
X14844284Y1476222D02*
X14844284Y810984D01*
X13755713Y871460D02*
X13876665Y810984D01*
X13876665Y810984D02*
X14118570Y810984D01*
X14118570Y810984D02*
X14239523Y871460D01*
X14239523Y871460D02*
X14299999Y992413D01*
X14299999Y992413D02*
X14299999Y1476222D01*
X14299999Y1476222D02*
X14239523Y1597175D01*
X14239523Y1597175D02*
X14118570Y1657651D01*
X14118570Y1657651D02*
X13876665Y1657651D01*
X13876665Y1657651D02*
X13755713Y1597175D01*
X13755713Y1597175D02*
X13695237Y1476222D01*
X13695237Y1476222D02*
X13695237Y1355270D01*
X13695237Y1355270D02*
X14299999Y1234318D01*
X13271904Y810984D02*
X12606666Y1657651D01*
X13271904Y1657651D02*
X12606666Y810984D01*
X12122857Y931937D02*
X12062380Y871460D01*
X12062380Y871460D02*
X12122857Y810984D01*
X12122857Y810984D02*
X12183333Y871460D01*
X12183333Y871460D02*
X12122857Y931937D01*
X12122857Y931937D02*
X12122857Y810984D01*
X10973809Y871460D02*
X11094761Y810984D01*
X11094761Y810984D02*
X11336666Y810984D01*
X11336666Y810984D02*
X11457618Y871460D01*
X11457618Y871460D02*
X11518095Y931937D01*
X11518095Y931937D02*
X11578571Y1052889D01*
X11578571Y1052889D02*
X11578571Y1415746D01*
X11578571Y1415746D02*
X11518095Y1536699D01*
X11518095Y1536699D02*
X11457618Y1597175D01*
X11457618Y1597175D02*
X11336666Y1657651D01*
X11336666Y1657651D02*
X11094761Y1657651D01*
X11094761Y1657651D02*
X10973809Y1597175D01*
X10248095Y810984D02*
X10369047Y871460D01*
X10369047Y871460D02*
X10429524Y931937D01*
X10429524Y931937D02*
X10490000Y1052889D01*
X10490000Y1052889D02*
X10490000Y1415746D01*
X10490000Y1415746D02*
X10429524Y1536699D01*
X10429524Y1536699D02*
X10369047Y1597175D01*
X10369047Y1597175D02*
X10248095Y1657651D01*
X10248095Y1657651D02*
X10066666Y1657651D01*
X10066666Y1657651D02*
X9945714Y1597175D01*
X9945714Y1597175D02*
X9885238Y1536699D01*
X9885238Y1536699D02*
X9824762Y1415746D01*
X9824762Y1415746D02*
X9824762Y1052889D01*
X9824762Y1052889D02*
X9885238Y931937D01*
X9885238Y931937D02*
X9945714Y871460D01*
X9945714Y871460D02*
X10066666Y810984D01*
X10066666Y810984D02*
X10248095Y810984D01*
X9280476Y810984D02*
X9280476Y1657651D01*
X9280476Y1536699D02*
X9219999Y1597175D01*
X9219999Y1597175D02*
X9099047Y1657651D01*
X9099047Y1657651D02*
X8917618Y1657651D01*
X8917618Y1657651D02*
X8796666Y1597175D01*
X8796666Y1597175D02*
X8736190Y1476222D01*
X8736190Y1476222D02*
X8736190Y810984D01*
X8736190Y1476222D02*
X8675714Y1597175D01*
X8675714Y1597175D02*
X8554761Y1657651D01*
X8554761Y1657651D02*
X8373333Y1657651D01*
X8373333Y1657651D02*
X8252380Y1597175D01*
X8252380Y1597175D02*
X8191904Y1476222D01*
X8191904Y1476222D02*
X8191904Y810984D01*
X15364380Y49705984D02*
X15787714Y50310746D01*
X16090095Y49705984D02*
X16090095Y50975984D01*
X16090095Y50975984D02*
X15606285Y50975984D01*
X15606285Y50975984D02*
X15485333Y50915508D01*
X15485333Y50915508D02*
X15424856Y50855032D01*
X15424856Y50855032D02*
X15364380Y50734080D01*
X15364380Y50734080D02*
X15364380Y50552651D01*
X15364380Y50552651D02*
X15424856Y50431699D01*
X15424856Y50431699D02*
X15485333Y50371222D01*
X15485333Y50371222D02*
X15606285Y50310746D01*
X15606285Y50310746D02*
X16090095Y50310746D01*
X14336285Y49766460D02*
X14457237Y49705984D01*
X14457237Y49705984D02*
X14699142Y49705984D01*
X14699142Y49705984D02*
X14820095Y49766460D01*
X14820095Y49766460D02*
X14880571Y49887413D01*
X14880571Y49887413D02*
X14880571Y50371222D01*
X14880571Y50371222D02*
X14820095Y50492175D01*
X14820095Y50492175D02*
X14699142Y50552651D01*
X14699142Y50552651D02*
X14457237Y50552651D01*
X14457237Y50552651D02*
X14336285Y50492175D01*
X14336285Y50492175D02*
X14275809Y50371222D01*
X14275809Y50371222D02*
X14275809Y50250270D01*
X14275809Y50250270D02*
X14880571Y50129318D01*
X13852476Y50552651D02*
X13550095Y49705984D01*
X13550095Y49705984D02*
X13247714Y50552651D01*
X12763905Y49826937D02*
X12703428Y49766460D01*
X12703428Y49766460D02*
X12763905Y49705984D01*
X12763905Y49705984D02*
X12824381Y49766460D01*
X12824381Y49766460D02*
X12763905Y49826937D01*
X12763905Y49826937D02*
X12763905Y49705984D01*
X11433428Y49826937D02*
X11493904Y49766460D01*
X11493904Y49766460D02*
X11675333Y49705984D01*
X11675333Y49705984D02*
X11796285Y49705984D01*
X11796285Y49705984D02*
X11977714Y49766460D01*
X11977714Y49766460D02*
X12098666Y49887413D01*
X12098666Y49887413D02*
X12159143Y50008365D01*
X12159143Y50008365D02*
X12219619Y50250270D01*
X12219619Y50250270D02*
X12219619Y50431699D01*
X12219619Y50431699D02*
X12159143Y50673603D01*
X12159143Y50673603D02*
X12098666Y50794556D01*
X12098666Y50794556D02*
X11977714Y50915508D01*
X11977714Y50915508D02*
X11796285Y50975984D01*
X11796285Y50975984D02*
X11675333Y50975984D01*
X11675333Y50975984D02*
X11493904Y50915508D01*
X11493904Y50915508D02*
X11433428Y50855032D01*
X8621285Y49222175D02*
X8681762Y49282651D01*
X8681762Y49282651D02*
X8802714Y49464080D01*
X8802714Y49464080D02*
X8863190Y49585032D01*
X8863190Y49585032D02*
X8923666Y49766460D01*
X8923666Y49766460D02*
X8984143Y50068841D01*
X8984143Y50068841D02*
X8984143Y50310746D01*
X8984143Y50310746D02*
X8923666Y50613127D01*
X8923666Y50613127D02*
X8863190Y50794556D01*
X8863190Y50794556D02*
X8802714Y50915508D01*
X8802714Y50915508D02*
X8681762Y51096937D01*
X8681762Y51096937D02*
X8621285Y51157413D01*
X7411761Y49826937D02*
X7472237Y49766460D01*
X7472237Y49766460D02*
X7653666Y49705984D01*
X7653666Y49705984D02*
X7774618Y49705984D01*
X7774618Y49705984D02*
X7956047Y49766460D01*
X7956047Y49766460D02*
X8076999Y49887413D01*
X8076999Y49887413D02*
X8137476Y50008365D01*
X8137476Y50008365D02*
X8197952Y50250270D01*
X8197952Y50250270D02*
X8197952Y50431699D01*
X8197952Y50431699D02*
X8137476Y50673603D01*
X8137476Y50673603D02*
X8076999Y50794556D01*
X8076999Y50794556D02*
X7956047Y50915508D01*
X7956047Y50915508D02*
X7774618Y50975984D01*
X7774618Y50975984D02*
X7653666Y50975984D01*
X7653666Y50975984D02*
X7472237Y50915508D01*
X7472237Y50915508D02*
X7411761Y50855032D01*
X6988428Y49222175D02*
X6927952Y49282651D01*
X6927952Y49282651D02*
X6806999Y49464080D01*
X6806999Y49464080D02*
X6746523Y49585032D01*
X6746523Y49585032D02*
X6686047Y49766460D01*
X6686047Y49766460D02*
X6625571Y50068841D01*
X6625571Y50068841D02*
X6625571Y50310746D01*
X6625571Y50310746D02*
X6686047Y50613127D01*
X6686047Y50613127D02*
X6746523Y50794556D01*
X6746523Y50794556D02*
X6806999Y50915508D01*
X6806999Y50915508D02*
X6927952Y51096937D01*
X6927952Y51096937D02*
X6988428Y51157413D01*
X5113666Y50855032D02*
X5053190Y50915508D01*
X5053190Y50915508D02*
X4932237Y50975984D01*
X4932237Y50975984D02*
X4629856Y50975984D01*
X4629856Y50975984D02*
X4508904Y50915508D01*
X4508904Y50915508D02*
X4448428Y50855032D01*
X4448428Y50855032D02*
X4387951Y50734080D01*
X4387951Y50734080D02*
X4387951Y50613127D01*
X4387951Y50613127D02*
X4448428Y50431699D01*
X4448428Y50431699D02*
X5174142Y49705984D01*
X5174142Y49705984D02*
X4387951Y49705984D01*
X3601761Y50975984D02*
X3480808Y50975984D01*
X3480808Y50975984D02*
X3359856Y50915508D01*
X3359856Y50915508D02*
X3299380Y50855032D01*
X3299380Y50855032D02*
X3238904Y50734080D01*
X3238904Y50734080D02*
X3178427Y50492175D01*
X3178427Y50492175D02*
X3178427Y50189794D01*
X3178427Y50189794D02*
X3238904Y49947889D01*
X3238904Y49947889D02*
X3299380Y49826937D01*
X3299380Y49826937D02*
X3359856Y49766460D01*
X3359856Y49766460D02*
X3480808Y49705984D01*
X3480808Y49705984D02*
X3601761Y49705984D01*
X3601761Y49705984D02*
X3722713Y49766460D01*
X3722713Y49766460D02*
X3783189Y49826937D01*
X3783189Y49826937D02*
X3843666Y49947889D01*
X3843666Y49947889D02*
X3904142Y50189794D01*
X3904142Y50189794D02*
X3904142Y50492175D01*
X3904142Y50492175D02*
X3843666Y50734080D01*
X3843666Y50734080D02*
X3783189Y50855032D01*
X3783189Y50855032D02*
X3722713Y50915508D01*
X3722713Y50915508D02*
X3601761Y50975984D01*
X2694618Y50855032D02*
X2634142Y50915508D01*
X2634142Y50915508D02*
X2513189Y50975984D01*
X2513189Y50975984D02*
X2210808Y50975984D01*
X2210808Y50975984D02*
X2089856Y50915508D01*
X2089856Y50915508D02*
X2029380Y50855032D01*
X2029380Y50855032D02*
X1968903Y50734080D01*
X1968903Y50734080D02*
X1968903Y50613127D01*
X1968903Y50613127D02*
X2029380Y50431699D01*
X2029380Y50431699D02*
X2755094Y49705984D01*
X2755094Y49705984D02*
X1968903Y49705984D01*
X1545570Y50975984D02*
X759379Y50975984D01*
X759379Y50975984D02*
X1182713Y50492175D01*
X1182713Y50492175D02*
X1001284Y50492175D01*
X1001284Y50492175D02*
X880332Y50431699D01*
X880332Y50431699D02*
X819856Y50371222D01*
X819856Y50371222D02*
X759379Y50250270D01*
X759379Y50250270D02*
X759379Y49947889D01*
X759379Y49947889D02*
X819856Y49826937D01*
X819856Y49826937D02*
X880332Y49766460D01*
X880332Y49766460D02*
X1001284Y49705984D01*
X1001284Y49705984D02*
X1364141Y49705984D01*
X1364141Y49705984D02*
X1485094Y49766460D01*
X1485094Y49766460D02*
X1545570Y49826937D01*
X28753809Y42569794D02*
X27786190Y42569794D01*
X28269999Y42085984D02*
X28269999Y43053603D01*
X21436190Y42617207D02*
X22403810Y42617207D01*
D12*
X20516297Y36842568D02*
X20621059Y36894948D01*
X20621059Y36894948D02*
X20673440Y36947329D01*
X20673440Y36947329D02*
X20725821Y37052091D01*
X20725821Y37052091D02*
X20725821Y37366377D01*
X20725821Y37366377D02*
X20673440Y37471139D01*
X20673440Y37471139D02*
X20621059Y37523520D01*
X20621059Y37523520D02*
X20516297Y37575901D01*
X20516297Y37575901D02*
X20359154Y37575901D01*
X20359154Y37575901D02*
X20254392Y37523520D01*
X20254392Y37523520D02*
X20202011Y37471139D01*
X20202011Y37471139D02*
X20149630Y37366377D01*
X20149630Y37366377D02*
X20149630Y37052091D01*
X20149630Y37052091D02*
X20202011Y36947329D01*
X20202011Y36947329D02*
X20254392Y36894948D01*
X20254392Y36894948D02*
X20359154Y36842568D01*
X20359154Y36842568D02*
X20516297Y36842568D01*
X19678202Y37575901D02*
X19678202Y36475901D01*
X19678202Y37523520D02*
X19573440Y37575901D01*
X19573440Y37575901D02*
X19363916Y37575901D01*
X19363916Y37575901D02*
X19259154Y37523520D01*
X19259154Y37523520D02*
X19206773Y37471139D01*
X19206773Y37471139D02*
X19154392Y37366377D01*
X19154392Y37366377D02*
X19154392Y37052091D01*
X19154392Y37052091D02*
X19206773Y36947329D01*
X19206773Y36947329D02*
X19259154Y36894948D01*
X19259154Y36894948D02*
X19363916Y36842568D01*
X19363916Y36842568D02*
X19573440Y36842568D01*
X19573440Y36842568D02*
X19678202Y36894948D01*
X18263916Y36894948D02*
X18368678Y36842568D01*
X18368678Y36842568D02*
X18578202Y36842568D01*
X18578202Y36842568D02*
X18682964Y36894948D01*
X18682964Y36894948D02*
X18735345Y36999710D01*
X18735345Y36999710D02*
X18735345Y37418758D01*
X18735345Y37418758D02*
X18682964Y37523520D01*
X18682964Y37523520D02*
X18578202Y37575901D01*
X18578202Y37575901D02*
X18368678Y37575901D01*
X18368678Y37575901D02*
X18263916Y37523520D01*
X18263916Y37523520D02*
X18211535Y37418758D01*
X18211535Y37418758D02*
X18211535Y37313996D01*
X18211535Y37313996D02*
X18735345Y37209234D01*
X17740107Y37575901D02*
X17740107Y36842568D01*
X17740107Y37471139D02*
X17687726Y37523520D01*
X17687726Y37523520D02*
X17582964Y37575901D01*
X17582964Y37575901D02*
X17425821Y37575901D01*
X17425821Y37575901D02*
X17321059Y37523520D01*
X17321059Y37523520D02*
X17268678Y37418758D01*
X17268678Y37418758D02*
X17268678Y36842568D01*
D13*
X16200797Y36793541D02*
X16200797Y37793541D01*
X15772226Y36793541D02*
X15772226Y37317351D01*
X15772226Y37317351D02*
X15819845Y37412589D01*
X15819845Y37412589D02*
X15915083Y37460208D01*
X15915083Y37460208D02*
X16057940Y37460208D01*
X16057940Y37460208D02*
X16153178Y37412589D01*
X16153178Y37412589D02*
X16200797Y37364970D01*
X14867464Y36793541D02*
X14867464Y37317351D01*
X14867464Y37317351D02*
X14915083Y37412589D01*
X14915083Y37412589D02*
X15010321Y37460208D01*
X15010321Y37460208D02*
X15200797Y37460208D01*
X15200797Y37460208D02*
X15296035Y37412589D01*
X14867464Y36841160D02*
X14962702Y36793541D01*
X14962702Y36793541D02*
X15200797Y36793541D01*
X15200797Y36793541D02*
X15296035Y36841160D01*
X15296035Y36841160D02*
X15343654Y36936399D01*
X15343654Y36936399D02*
X15343654Y37031637D01*
X15343654Y37031637D02*
X15296035Y37126875D01*
X15296035Y37126875D02*
X15200797Y37174494D01*
X15200797Y37174494D02*
X14962702Y37174494D01*
X14962702Y37174494D02*
X14867464Y37222113D01*
X14391273Y36793541D02*
X14391273Y37460208D01*
X14391273Y37269732D02*
X14343654Y37364970D01*
X14343654Y37364970D02*
X14296035Y37412589D01*
X14296035Y37412589D02*
X14200797Y37460208D01*
X14200797Y37460208D02*
X14105559Y37460208D01*
X13343654Y36793541D02*
X13343654Y37793541D01*
X13343654Y36841160D02*
X13438892Y36793541D01*
X13438892Y36793541D02*
X13629368Y36793541D01*
X13629368Y36793541D02*
X13724606Y36841160D01*
X13724606Y36841160D02*
X13772225Y36888780D01*
X13772225Y36888780D02*
X13819844Y36984018D01*
X13819844Y36984018D02*
X13819844Y37269732D01*
X13819844Y37269732D02*
X13772225Y37364970D01*
X13772225Y37364970D02*
X13724606Y37412589D01*
X13724606Y37412589D02*
X13629368Y37460208D01*
X13629368Y37460208D02*
X13438892Y37460208D01*
X13438892Y37460208D02*
X13343654Y37412589D01*
X12962701Y37460208D02*
X12772225Y36793541D01*
X12772225Y36793541D02*
X12581749Y37269732D01*
X12581749Y37269732D02*
X12391273Y36793541D01*
X12391273Y36793541D02*
X12200797Y37460208D01*
X11391273Y36793541D02*
X11391273Y37317351D01*
X11391273Y37317351D02*
X11438892Y37412589D01*
X11438892Y37412589D02*
X11534130Y37460208D01*
X11534130Y37460208D02*
X11724606Y37460208D01*
X11724606Y37460208D02*
X11819844Y37412589D01*
X11391273Y36841160D02*
X11486511Y36793541D01*
X11486511Y36793541D02*
X11724606Y36793541D01*
X11724606Y36793541D02*
X11819844Y36841160D01*
X11819844Y36841160D02*
X11867463Y36936399D01*
X11867463Y36936399D02*
X11867463Y37031637D01*
X11867463Y37031637D02*
X11819844Y37126875D01*
X11819844Y37126875D02*
X11724606Y37174494D01*
X11724606Y37174494D02*
X11486511Y37174494D01*
X11486511Y37174494D02*
X11391273Y37222113D01*
X10915082Y36793541D02*
X10915082Y37460208D01*
X10915082Y37269732D02*
X10867463Y37364970D01*
X10867463Y37364970D02*
X10819844Y37412589D01*
X10819844Y37412589D02*
X10724606Y37460208D01*
X10724606Y37460208D02*
X10629368Y37460208D01*
X9915082Y36841160D02*
X10010320Y36793541D01*
X10010320Y36793541D02*
X10200796Y36793541D01*
X10200796Y36793541D02*
X10296034Y36841160D01*
X10296034Y36841160D02*
X10343653Y36936399D01*
X10343653Y36936399D02*
X10343653Y37317351D01*
X10343653Y37317351D02*
X10296034Y37412589D01*
X10296034Y37412589D02*
X10200796Y37460208D01*
X10200796Y37460208D02*
X10010320Y37460208D01*
X10010320Y37460208D02*
X9915082Y37412589D01*
X9915082Y37412589D02*
X9867463Y37317351D01*
X9867463Y37317351D02*
X9867463Y37222113D01*
X9867463Y37222113D02*
X10343653Y37126875D01*
D12*
X15234268Y31576435D02*
X15234268Y33276435D01*
X15234268Y33276435D02*
X14662839Y33276435D01*
X14662839Y33276435D02*
X14519982Y33195483D01*
X14519982Y33195483D02*
X14448553Y33114530D01*
X14448553Y33114530D02*
X14377125Y32952626D01*
X14377125Y32952626D02*
X14377125Y32709768D01*
X14377125Y32709768D02*
X14448553Y32547864D01*
X14448553Y32547864D02*
X14519982Y32466911D01*
X14519982Y32466911D02*
X14662839Y32385959D01*
X14662839Y32385959D02*
X15234268Y32385959D01*
X13734268Y31576435D02*
X13734268Y33276435D01*
X13734268Y32628816D02*
X13591411Y32709768D01*
X13591411Y32709768D02*
X13305696Y32709768D01*
X13305696Y32709768D02*
X13162839Y32628816D01*
X13162839Y32628816D02*
X13091411Y32547864D01*
X13091411Y32547864D02*
X13019982Y32385959D01*
X13019982Y32385959D02*
X13019982Y31900245D01*
X13019982Y31900245D02*
X13091411Y31738340D01*
X13091411Y31738340D02*
X13162839Y31657387D01*
X13162839Y31657387D02*
X13305696Y31576435D01*
X13305696Y31576435D02*
X13591411Y31576435D01*
X13591411Y31576435D02*
X13734268Y31657387D01*
D14*
X20771634Y20020442D02*
X21438301Y20972823D01*
X21914491Y20020442D02*
X21914491Y22020442D01*
X21914491Y22020442D02*
X21152586Y22020442D01*
X21152586Y22020442D02*
X20962110Y21925204D01*
X20962110Y21925204D02*
X20866872Y21829966D01*
X20866872Y21829966D02*
X20771634Y21639490D01*
X20771634Y21639490D02*
X20771634Y21353776D01*
X20771634Y21353776D02*
X20866872Y21163300D01*
X20866872Y21163300D02*
X20962110Y21068061D01*
X20962110Y21068061D02*
X21152586Y20972823D01*
X21152586Y20972823D02*
X21914491Y20972823D01*
X19628777Y20020442D02*
X19819253Y20115680D01*
X19819253Y20115680D02*
X19914491Y20210919D01*
X19914491Y20210919D02*
X20009729Y20401395D01*
X20009729Y20401395D02*
X20009729Y20972823D01*
X20009729Y20972823D02*
X19914491Y21163300D01*
X19914491Y21163300D02*
X19819253Y21258538D01*
X19819253Y21258538D02*
X19628777Y21353776D01*
X19628777Y21353776D02*
X19343062Y21353776D01*
X19343062Y21353776D02*
X19152586Y21258538D01*
X19152586Y21258538D02*
X19057348Y21163300D01*
X19057348Y21163300D02*
X18962110Y20972823D01*
X18962110Y20972823D02*
X18962110Y20401395D01*
X18962110Y20401395D02*
X19057348Y20210919D01*
X19057348Y20210919D02*
X19152586Y20115680D01*
X19152586Y20115680D02*
X19343062Y20020442D01*
X19343062Y20020442D02*
X19628777Y20020442D01*
X18104967Y20020442D02*
X18104967Y22020442D01*
X18104967Y21068061D02*
X16962110Y21068061D01*
X16962110Y20020442D02*
X16962110Y22020442D01*
X16104967Y20115680D02*
X15819253Y20020442D01*
X15819253Y20020442D02*
X15343062Y20020442D01*
X15343062Y20020442D02*
X15152586Y20115680D01*
X15152586Y20115680D02*
X15057348Y20210919D01*
X15057348Y20210919D02*
X14962110Y20401395D01*
X14962110Y20401395D02*
X14962110Y20591871D01*
X14962110Y20591871D02*
X15057348Y20782347D01*
X15057348Y20782347D02*
X15152586Y20877585D01*
X15152586Y20877585D02*
X15343062Y20972823D01*
X15343062Y20972823D02*
X15724015Y21068061D01*
X15724015Y21068061D02*
X15914491Y21163300D01*
X15914491Y21163300D02*
X16009729Y21258538D01*
X16009729Y21258538D02*
X16104967Y21449014D01*
X16104967Y21449014D02*
X16104967Y21639490D01*
X16104967Y21639490D02*
X16009729Y21829966D01*
X16009729Y21829966D02*
X15914491Y21925204D01*
X15914491Y21925204D02*
X15724015Y22020442D01*
X15724015Y22020442D02*
X15247824Y22020442D01*
X15247824Y22020442D02*
X14962110Y21925204D01*
D15*
X21350193Y17079196D02*
X21434860Y16994529D01*
X21434860Y16994529D02*
X21688860Y16909863D01*
X21688860Y16909863D02*
X21858193Y16909863D01*
X21858193Y16909863D02*
X22112193Y16994529D01*
X22112193Y16994529D02*
X22281527Y17163863D01*
X22281527Y17163863D02*
X22366193Y17333196D01*
X22366193Y17333196D02*
X22450860Y17671863D01*
X22450860Y17671863D02*
X22450860Y17925863D01*
X22450860Y17925863D02*
X22366193Y18264529D01*
X22366193Y18264529D02*
X22281527Y18433863D01*
X22281527Y18433863D02*
X22112193Y18603196D01*
X22112193Y18603196D02*
X21858193Y18687863D01*
X21858193Y18687863D02*
X21688860Y18687863D01*
X21688860Y18687863D02*
X21434860Y18603196D01*
X21434860Y18603196D02*
X21350193Y18518529D01*
X20334193Y16909863D02*
X20503527Y16994529D01*
X20503527Y16994529D02*
X20588193Y17079196D01*
X20588193Y17079196D02*
X20672860Y17248529D01*
X20672860Y17248529D02*
X20672860Y17756529D01*
X20672860Y17756529D02*
X20588193Y17925863D01*
X20588193Y17925863D02*
X20503527Y18010529D01*
X20503527Y18010529D02*
X20334193Y18095196D01*
X20334193Y18095196D02*
X20080193Y18095196D01*
X20080193Y18095196D02*
X19910860Y18010529D01*
X19910860Y18010529D02*
X19826193Y17925863D01*
X19826193Y17925863D02*
X19741527Y17756529D01*
X19741527Y17756529D02*
X19741527Y17248529D01*
X19741527Y17248529D02*
X19826193Y17079196D01*
X19826193Y17079196D02*
X19910860Y16994529D01*
X19910860Y16994529D02*
X20080193Y16909863D01*
X20080193Y16909863D02*
X20334193Y16909863D01*
X18979526Y16909863D02*
X18979526Y18095196D01*
X18979526Y17925863D02*
X18894860Y18010529D01*
X18894860Y18010529D02*
X18725526Y18095196D01*
X18725526Y18095196D02*
X18471526Y18095196D01*
X18471526Y18095196D02*
X18302193Y18010529D01*
X18302193Y18010529D02*
X18217526Y17841196D01*
X18217526Y17841196D02*
X18217526Y16909863D01*
X18217526Y17841196D02*
X18132860Y18010529D01*
X18132860Y18010529D02*
X17963526Y18095196D01*
X17963526Y18095196D02*
X17709526Y18095196D01*
X17709526Y18095196D02*
X17540193Y18010529D01*
X17540193Y18010529D02*
X17455526Y17841196D01*
X17455526Y17841196D02*
X17455526Y16909863D01*
X16608859Y18095196D02*
X16608859Y16317196D01*
X16608859Y18010529D02*
X16439526Y18095196D01*
X16439526Y18095196D02*
X16100859Y18095196D01*
X16100859Y18095196D02*
X15931526Y18010529D01*
X15931526Y18010529D02*
X15846859Y17925863D01*
X15846859Y17925863D02*
X15762193Y17756529D01*
X15762193Y17756529D02*
X15762193Y17248529D01*
X15762193Y17248529D02*
X15846859Y17079196D01*
X15846859Y17079196D02*
X15931526Y16994529D01*
X15931526Y16994529D02*
X16100859Y16909863D01*
X16100859Y16909863D02*
X16439526Y16909863D01*
X16439526Y16909863D02*
X16608859Y16994529D01*
X14746192Y16909863D02*
X14915526Y16994529D01*
X14915526Y16994529D02*
X15000192Y17163863D01*
X15000192Y17163863D02*
X15000192Y18687863D01*
X14068859Y16909863D02*
X14068859Y18095196D01*
X14068859Y18687863D02*
X14153526Y18603196D01*
X14153526Y18603196D02*
X14068859Y18518529D01*
X14068859Y18518529D02*
X13984193Y18603196D01*
X13984193Y18603196D02*
X14068859Y18687863D01*
X14068859Y18687863D02*
X14068859Y18518529D01*
X12460192Y16909863D02*
X12460192Y17841196D01*
X12460192Y17841196D02*
X12544859Y18010529D01*
X12544859Y18010529D02*
X12714192Y18095196D01*
X12714192Y18095196D02*
X13052859Y18095196D01*
X13052859Y18095196D02*
X13222192Y18010529D01*
X12460192Y16994529D02*
X12629526Y16909863D01*
X12629526Y16909863D02*
X13052859Y16909863D01*
X13052859Y16909863D02*
X13222192Y16994529D01*
X13222192Y16994529D02*
X13306859Y17163863D01*
X13306859Y17163863D02*
X13306859Y17333196D01*
X13306859Y17333196D02*
X13222192Y17502529D01*
X13222192Y17502529D02*
X13052859Y17587196D01*
X13052859Y17587196D02*
X12629526Y17587196D01*
X12629526Y17587196D02*
X12460192Y17671863D01*
X11613525Y18095196D02*
X11613525Y16909863D01*
X11613525Y17925863D02*
X11528859Y18010529D01*
X11528859Y18010529D02*
X11359525Y18095196D01*
X11359525Y18095196D02*
X11105525Y18095196D01*
X11105525Y18095196D02*
X10936192Y18010529D01*
X10936192Y18010529D02*
X10851525Y17841196D01*
X10851525Y17841196D02*
X10851525Y16909863D01*
X10258858Y18095196D02*
X9581525Y18095196D01*
X10004858Y18687863D02*
X10004858Y17163863D01*
X10004858Y17163863D02*
X9920192Y16994529D01*
X9920192Y16994529D02*
X9750858Y16909863D01*
X9750858Y16909863D02*
X9581525Y16909863D01*
D11*
X30365016Y47495096D02*
X29095016Y47495096D01*
X29095016Y47495096D02*
X29095016Y47011286D01*
X29095016Y47011286D02*
X29155492Y46890334D01*
X29155492Y46890334D02*
X29215968Y46829857D01*
X29215968Y46829857D02*
X29336920Y46769381D01*
X29336920Y46769381D02*
X29518349Y46769381D01*
X29518349Y46769381D02*
X29639301Y46829857D01*
X29639301Y46829857D02*
X29699778Y46890334D01*
X29699778Y46890334D02*
X29760254Y47011286D01*
X29760254Y47011286D02*
X29760254Y47495096D01*
X29095016Y46346048D02*
X30365016Y46043667D01*
X30365016Y46043667D02*
X29457873Y45801762D01*
X29457873Y45801762D02*
X30365016Y45559857D01*
X30365016Y45559857D02*
X29095016Y45257476D01*
X30365016Y44047952D02*
X29760254Y44471286D01*
X30365016Y44773667D02*
X29095016Y44773667D01*
X29095016Y44773667D02*
X29095016Y44289857D01*
X29095016Y44289857D02*
X29155492Y44168905D01*
X29155492Y44168905D02*
X29215968Y44108428D01*
X29215968Y44108428D02*
X29336920Y44047952D01*
X29336920Y44047952D02*
X29518349Y44047952D01*
X29518349Y44047952D02*
X29639301Y44108428D01*
X29639301Y44108428D02*
X29699778Y44168905D01*
X29699778Y44168905D02*
X29760254Y44289857D01*
X29760254Y44289857D02*
X29760254Y44773667D01*
X30365016Y42838428D02*
X30365016Y43564143D01*
X30365016Y43201286D02*
X29095016Y43201286D01*
X29095016Y43201286D02*
X29276444Y43322238D01*
X29276444Y43322238D02*
X29397397Y43443190D01*
X29397397Y43443190D02*
X29457873Y43564143D01*
D12*
X25907142Y47718282D02*
X26632857Y47718282D01*
X26270000Y47718282D02*
X26270000Y48988282D01*
X26270000Y48988282D02*
X26390952Y48806854D01*
X26390952Y48806854D02*
X26511904Y48685901D01*
X26511904Y48685901D02*
X26632857Y48625425D01*
X24092857Y48867330D02*
X24032381Y48927806D01*
X24032381Y48927806D02*
X23911428Y48988282D01*
X23911428Y48988282D02*
X23609047Y48988282D01*
X23609047Y48988282D02*
X23488095Y48927806D01*
X23488095Y48927806D02*
X23427619Y48867330D01*
X23427619Y48867330D02*
X23367142Y48746378D01*
X23367142Y48746378D02*
X23367142Y48625425D01*
X23367142Y48625425D02*
X23427619Y48443997D01*
X23427619Y48443997D02*
X24153333Y47718282D01*
X24153333Y47718282D02*
X23367142Y47718282D01*
X6398000Y38744000D02*
X6398000Y38244000D01*
X6398000Y42244000D02*
X6398000Y41744000D01*
X4398000Y40494000D02*
X3148000Y40494000D01*
X3148000Y39994000D02*
X4398000Y39994000D01*
X3148000Y40244000D02*
X4398000Y40244000D01*
X3148000Y40494000D02*
X3148000Y39994000D01*
X2898000Y38744000D02*
X2898000Y38244000D01*
X2898000Y42244000D02*
X2898000Y41744000D01*
D16*
X6447980Y38494000D02*
G75*
G03*
X6448000Y41994000I-49980J1750000D01*
G01*
D12*
X6398000Y38744000D02*
G75*
G03*
X6398000Y41744000I0J1500000D01*
G01*
X6398000Y38244000D02*
G75*
G03*
X6398000Y42244000I0J2000000D01*
G01*
D16*
X2947980Y38494000D02*
G75*
G03*
X2948000Y41994000I-49980J1750000D01*
G01*
D12*
X2898000Y38744000D02*
G75*
G03*
X2898000Y41744000I0J1500000D01*
G01*
X2898000Y38244000D02*
G75*
G03*
X2898000Y42244000I0J2000000D01*
G01*
D17*
X24587000Y9408400D02*
X24002800Y8836900D01*
X24587000Y11376900D02*
X24587000Y11135600D01*
X24587000Y11427700D02*
X24079000Y11935700D01*
X24574300Y9395700D02*
X24574300Y10157700D01*
X24015500Y8836900D02*
X22974100Y8836900D01*
X22986800Y12011900D02*
X22351800Y11402300D01*
X22986800Y12024600D02*
X23990100Y12024600D01*
X22377200Y9446500D02*
X22936000Y8862300D01*
X22364500Y11415000D02*
X22364500Y9484600D01*
D18*
X21513600Y12367500D02*
X21513600Y9217900D01*
X21500900Y12367500D02*
X21513600Y12367500D01*
X21488200Y12367500D02*
X21500900Y12367500D01*
X21373900Y12278600D02*
X21437400Y12291300D01*
D17*
X21208800Y9294100D02*
X21208800Y12024600D01*
D18*
X21208800Y12367500D02*
X21488200Y12367500D01*
X21196100Y12367500D02*
X20891300Y12367500D01*
X21069100Y12291300D02*
X20954800Y12291300D01*
X20891300Y12367500D02*
X20891300Y9332200D01*
D17*
X20751600Y8849600D02*
X21208800Y9306800D01*
X19765800Y8849600D02*
X20751600Y8849600D01*
D18*
X19570500Y9662400D02*
X18960900Y9662400D01*
X19570500Y11681700D02*
X19570500Y9662400D01*
X19430800Y9725900D02*
X19494300Y9725900D01*
D17*
X19253000Y11567400D02*
X19253000Y9967200D01*
D18*
X19087900Y9725900D02*
X18999000Y9725900D01*
X18960900Y9662400D02*
X18935500Y9662400D01*
X18935500Y9662400D02*
X18935500Y11681700D01*
X18351300Y9319500D02*
X18351300Y12304000D01*
X18351300Y12316700D02*
X17106700Y12316700D01*
X18198900Y12253200D02*
X18275100Y12253200D01*
D17*
X18033800Y9408400D02*
X18033800Y11999200D01*
X18033800Y11999200D02*
X17195600Y11999200D01*
X17195600Y11999200D02*
X16586000Y11491200D01*
D18*
X17106700Y12316700D02*
X16522500Y11834100D01*
D17*
X16484400Y10703800D02*
X16484400Y11415000D01*
X16408200Y11491200D02*
X15773200Y11999200D01*
D18*
X15862100Y12316700D02*
X16484400Y11821400D01*
X15836700Y12316700D02*
X15862100Y12316700D01*
D17*
X15773200Y11999200D02*
X14884200Y11999200D01*
X14871500Y12011900D02*
X14871500Y9408400D01*
D18*
X14693700Y12240500D02*
X14592100Y12240500D01*
X14541300Y9294100D02*
X14541300Y12304000D01*
X14541300Y12304000D02*
X14541300Y12316700D01*
X14541300Y12316700D02*
X15836700Y12316700D01*
D17*
X13614200Y9281400D02*
X13182400Y8849600D01*
X13614200Y11516600D02*
X13614200Y9281400D01*
X13614200Y11542000D02*
X13131600Y12050000D01*
X13182400Y8849600D02*
X11861600Y8849600D01*
D18*
X13169700Y12354800D02*
X11798100Y12354800D01*
D17*
X13083500Y12024600D02*
X11861600Y12024600D01*
X12395000Y10449800D02*
X13614200Y10449800D01*
X11861600Y8849600D02*
X10718600Y9967200D01*
X11861600Y12024600D02*
X10769400Y10957800D01*
D18*
X11798100Y12354800D02*
X11747300Y12354800D01*
X11747300Y12354800D02*
X10490000Y11110200D01*
D14*
X10744000Y10843500D02*
X10185200Y10843500D01*
X10718600Y10068800D02*
X10185200Y10068800D01*
D17*
X9372400Y9154400D02*
X10210600Y9967200D01*
X9321600Y11834100D02*
X10185200Y10940400D01*
D19*
X24911747Y10653000D02*
G75*
G03*
X24911747Y10653000I-337447J0D01*
G01*
X19619324Y8875000D02*
G75*
G03*
X19619324Y8875000I-366324J0D01*
G01*
X19613818Y12100800D02*
G75*
G03*
X19613818Y12100800I-373518J0D01*
G01*
X18380759Y8900400D02*
G75*
G03*
X18380759Y8900400I-359659J0D01*
G01*
X16855318Y10170400D02*
G75*
G03*
X16855318Y10170400I-370918J0D01*
G01*
X15234729Y8887700D02*
G75*
G03*
X15234729Y8887700I-363229J0D01*
G01*
X12246659Y10449800D02*
G75*
G03*
X12246659Y10449800I-359659J0D01*
G01*
X9371666Y8798800D02*
G75*
G03*
X9371666Y8798800I-329466J0D01*
G01*
X9312735Y12189700D02*
G75*
G03*
X9312735Y12189700I-359435J0D01*
G01*
D12*
X26619000Y28814000D02*
X19507000Y28814000D01*
X24841000Y32306500D02*
X19507000Y28814000D01*
X24777500Y31290500D02*
X24777500Y30211000D01*
X24396500Y30084000D02*
X24460000Y30084000D01*
X24396500Y30084000D02*
X24396500Y31100000D01*
X24333000Y29893500D02*
X24333000Y30020500D01*
X23825000Y29893500D02*
X23672600Y29893500D01*
X23063000Y35926000D02*
X26619000Y28814000D01*
X22466100Y32370000D02*
X21285000Y32370000D01*
X21285000Y32370000D02*
X23063000Y35926000D01*
X20840500Y31481000D02*
X21285000Y32370000D01*
X20840500Y31481000D02*
X21158000Y31481000D01*
X19507000Y28814000D02*
X20840500Y31481000D01*
X24396500Y29830000D02*
G75*
G03*
X24777500Y30211000I0J381000D01*
G01*
X24777485Y31290500D02*
G75*
G03*
X24588048Y31606424I-357985J100D01*
G01*
X24269500Y31925500D02*
G75*
G03*
X24585549Y31607858I794860J474820D01*
G01*
X24587000Y29957000D02*
G75*
G03*
X24460000Y30084000I-127000J0D01*
G01*
X23697998Y31544498D02*
G75*
G03*
X24394935Y31098155I850962J561442D01*
G01*
X24333063Y29893497D02*
G75*
G03*
X24394071Y29827456I63437J-2597D01*
G01*
X24396500Y30084000D02*
G75*
G03*
X24333000Y30020500I0J-63500D01*
G01*
X23825000Y29893501D02*
G75*
G03*
X23951966Y30020400I-63500J190499D01*
G01*
X23951999Y30020500D02*
G75*
G03*
X23951067Y30337326I-317499J157480D01*
G01*
X23634500Y29893500D02*
G75*
G03*
X23062915Y30654035I-855980J-48260D01*
G01*
X23952000Y30338000D02*
G75*
G03*
X23000708Y31098834I-1236980J-571500D01*
G01*
X24269500Y31925500D02*
G75*
G03*
X22682721Y32433321I-1120140J-767080D01*
G01*
X22466100Y32369996D02*
G75*
G03*
X22681915Y32431887I33100J291804D01*
G01*
X23063000Y30655500D02*
G75*
G03*
X22623275Y30781506I-1265300J-3585300D01*
G01*
X21666000Y31290500D02*
G75*
G03*
X22488462Y30844425I970350J807850D01*
G01*
X21665995Y31290496D02*
G75*
G03*
X21157301Y31480526I-444495J-413996D01*
G01*
D20*
X19438420Y42113440D02*
X18267480Y42316640D01*
X19435880Y41117760D02*
X18364000Y40922180D01*
X19435880Y42110900D02*
X19435880Y41125380D01*
D21*
X19298720Y42019460D02*
X18280180Y42199800D01*
X19296180Y41229520D02*
X18346220Y41011080D01*
D20*
X19286020Y41867060D02*
X18170960Y42113440D01*
D22*
X19286020Y42006760D02*
X19291100Y41219360D01*
D20*
X19143780Y41922940D02*
X19143780Y41272700D01*
D23*
X18828820Y41625760D02*
X17411500Y41686720D01*
D20*
X18673880Y39210220D02*
X18076980Y40073820D01*
X18651020Y44031140D02*
X17977920Y44744880D01*
X18630700Y43995580D02*
X18036340Y43142140D01*
D22*
X18508780Y39228000D02*
X17944900Y38689520D01*
D21*
X18493540Y39228000D02*
X17960140Y40061120D01*
D22*
X18488460Y44026060D02*
X17988080Y44559460D01*
D21*
X18478300Y44003200D02*
X17922040Y43152300D01*
D20*
X18369080Y42311560D02*
X18033800Y43144680D01*
D21*
X18318280Y40988220D02*
X17960140Y40104300D01*
X18249700Y42235360D02*
X17901720Y43101500D01*
D23*
X18031260Y41138080D02*
X17325140Y41265080D01*
D20*
X17995700Y44483260D02*
X17111780Y43761900D01*
X17965220Y44747420D02*
X16994940Y44031140D01*
X17944900Y38514260D02*
X18666260Y39207680D01*
D21*
X17939820Y44584860D02*
X17111780Y43932080D01*
D19*
X17932200Y38689520D02*
X17152420Y39220380D01*
D23*
X17843300Y43911760D02*
X16781580Y42804320D01*
X17792500Y39421040D02*
X16939060Y40442120D01*
X17782340Y40492920D02*
X17218460Y40972980D01*
D20*
X17756940Y43134520D02*
X18143020Y42136300D01*
X17751860Y43129440D02*
X18353840Y44038760D01*
D23*
X17706140Y42382680D02*
X17264180Y42222660D01*
X17530880Y42862740D02*
X17073680Y42573180D01*
D21*
X17142260Y39238160D02*
X16824760Y39032420D01*
D23*
X17116860Y39593760D02*
X16751100Y40355760D01*
D20*
X17111780Y39085760D02*
X17937280Y38521880D01*
X17106700Y43764440D02*
X16123720Y44257200D01*
X17099080Y39075600D02*
X16753640Y38854620D01*
D21*
X17050820Y43942240D02*
X16205000Y44348640D01*
D20*
X17030500Y44099720D02*
X16126260Y44478180D01*
X17020340Y41905160D02*
X16888260Y41082200D01*
X16883180Y41051720D02*
X16789200Y40881540D01*
X16883180Y41051720D02*
X16789200Y40881540D01*
D24*
X16796820Y39052740D02*
X16245640Y40475140D01*
D20*
X16776500Y40851060D02*
X16469160Y40584360D01*
X16715540Y38872400D02*
X16065300Y40541180D01*
X16659660Y40830740D02*
X16400580Y40492920D01*
X16596160Y42641760D02*
X17015260Y41910240D01*
D23*
X16532660Y43639980D02*
X16357400Y43281840D01*
D20*
X16291360Y40716440D02*
X16065300Y40541180D01*
D23*
X16098320Y43899060D02*
X15930680Y43289460D01*
D20*
X16042440Y45494180D02*
X16243100Y44468020D01*
X16032280Y45501800D02*
X15067080Y45501800D01*
D21*
X15953540Y45395120D02*
X15168680Y45395120D01*
X15945920Y45382420D02*
X16151660Y44368960D01*
D20*
X15724940Y43071020D02*
X16596160Y42641760D01*
D23*
X15582700Y44887120D02*
X15577620Y43373280D01*
D21*
X15186460Y45374800D02*
X14973100Y44356260D01*
D20*
X15067080Y45501800D02*
X14841020Y44330860D01*
D21*
X14973100Y44356260D02*
X14071400Y43906680D01*
D20*
X14927380Y40259240D02*
X15049300Y40543720D01*
X14909600Y42903380D02*
X15724940Y43063400D01*
X14851180Y44412140D02*
X14046000Y44074320D01*
D23*
X14833400Y43883820D02*
X15054380Y43198020D01*
D20*
X14790220Y40713900D02*
X15044220Y40548800D01*
X14767360Y40520860D02*
X14239040Y39139100D01*
X14724180Y40462440D02*
X14546380Y40584360D01*
X14546380Y40584360D02*
X14170460Y41295560D01*
D23*
X14406680Y40355760D02*
X13225580Y39342300D01*
X14406680Y40447200D02*
X14073940Y39715680D01*
D20*
X14399060Y42474120D02*
X14909600Y42903380D01*
X14376200Y38841920D02*
X14762280Y39822360D01*
D21*
X14338100Y39055280D02*
X14912140Y40495460D01*
D23*
X14292380Y40492920D02*
X13675160Y40165260D01*
X14246660Y43632360D02*
X14665760Y43045620D01*
D20*
X14170460Y41295560D02*
X14170460Y41813720D01*
X14165380Y41801020D02*
X14399060Y42474120D01*
X14165380Y44026060D02*
X13154460Y44699160D01*
D21*
X14058700Y43911760D02*
X13154460Y44546200D01*
D20*
X14028220Y39141640D02*
X13151920Y38521880D01*
D21*
X14000280Y39240700D02*
X14338100Y39055280D01*
D23*
X13972340Y40912020D02*
X13362740Y40805340D01*
D20*
X13847880Y39169580D02*
X14376200Y38841920D01*
D23*
X13377980Y42763680D02*
X14033300Y42397920D01*
X13317020Y43830480D02*
X14429540Y42763680D01*
D21*
X13217960Y43205640D02*
X12877600Y42268380D01*
X13215420Y40122080D02*
X12595660Y39235620D01*
X13164620Y38674280D02*
X14000280Y39240700D01*
D20*
X13164620Y38836840D02*
X13985040Y39365160D01*
D21*
X13154460Y44544220D02*
X12600740Y43998120D01*
X13149380Y38681900D02*
X12595660Y39228000D01*
D20*
X13149380Y44701700D02*
X12455960Y44010820D01*
X13141760Y38526960D02*
X12458500Y39217840D01*
D23*
X13136680Y42070260D02*
X13858040Y41922940D01*
D20*
X13065560Y43121820D02*
X12699800Y42253140D01*
D21*
X12877600Y42268380D02*
X11795560Y42039780D01*
D20*
X12816640Y40904400D02*
X11693960Y41115220D01*
D21*
X12809020Y41033940D02*
X13215420Y40122080D01*
D20*
X12745520Y39301660D02*
X13230660Y38770800D01*
X12712500Y40937420D02*
X13093500Y39956980D01*
D21*
X12600740Y43995580D02*
X13217960Y43205640D01*
D20*
X12450880Y44003200D02*
X13154460Y43012600D01*
D23*
X12326420Y41646080D02*
X13794540Y41559720D01*
D21*
X11795560Y41204120D02*
X12809020Y41033940D01*
X11795560Y42039780D02*
X11795560Y41204120D01*
D20*
X11762540Y41351440D02*
X12869980Y41127920D01*
X11678720Y42093120D02*
X11681260Y41135540D01*
D21*
X16395500Y40665640D02*
G75*
G03*
X16471700Y42519840I-889000J965200D01*
G01*
X14531140Y42362360D02*
G75*
G03*
X14901981Y40498001I1117598J-746760D01*
G01*
X16446300Y42545240D02*
G75*
G03*
X14520980Y42347120I-863600J-1061719D01*
G01*
D25*
X12885220Y31206680D02*
X15318540Y33627300D01*
D12*
X15848237Y32370000D02*
G75*
G03*
X15848237Y32370000I-1802237J0D01*
G01*
D20*
X6441500Y28737000D02*
X6441500Y29499000D01*
X6441500Y29499000D02*
X1869500Y29499000D01*
X6390700Y28838600D02*
X1971100Y28838600D01*
X6390700Y29143400D02*
X1920300Y29143400D01*
X6390700Y29295800D02*
X1971100Y29295800D01*
X6390700Y29346600D02*
X1920300Y29346600D01*
D12*
X6235500Y34275000D02*
X2044500Y30084000D01*
X6108500Y30211000D02*
X2044500Y34148000D01*
X5600500Y33767000D02*
X2679500Y33767000D01*
X5092500Y30211000D02*
X4584500Y30211000D01*
X5092500Y30592000D02*
X5346500Y33640000D01*
X5092500Y30592000D02*
X5092500Y30211000D01*
X5092500Y30592000D02*
X3695500Y30592000D01*
X5092500Y33894000D02*
X5092500Y34402000D01*
X5092500Y34402000D02*
X4965500Y34402000D01*
X4965500Y34402000D02*
X4965500Y33894000D01*
X4584500Y30211000D02*
X4584500Y30465000D01*
X4330500Y32878000D02*
X4330500Y33259000D01*
X4330500Y33259000D02*
X3441500Y33259000D01*
X4330500Y34529000D02*
X3949500Y34529000D01*
X4330500Y34656000D02*
X4330500Y34529000D01*
X4203500Y33132000D02*
X3568500Y33132000D01*
X3949500Y34529000D02*
X3949500Y34656000D01*
X3949500Y34656000D02*
X4330500Y34656000D01*
X3441500Y32878000D02*
X4330500Y32878000D01*
X3441500Y33259000D02*
X3441500Y32878000D01*
X3187500Y31100000D02*
X3060500Y33132000D01*
X3060500Y33259000D02*
X2679500Y33259000D01*
X3060500Y33767000D02*
X3060500Y33259000D01*
X2933500Y33259000D02*
X2933500Y33640000D01*
X2933500Y33640000D02*
X2933500Y33513000D01*
X2933500Y33640000D02*
X2933500Y33513000D01*
X2933500Y33640000D02*
X2806500Y33640000D01*
X2933500Y33767000D02*
X2806500Y33386000D01*
X2806500Y33640000D02*
X2806500Y33259000D01*
X2679500Y33259000D02*
X2679500Y33767000D01*
D20*
X1971100Y28940200D02*
X6339900Y28940200D01*
X1920300Y29041800D02*
X6339900Y29041800D01*
X1920300Y29194200D02*
X6339900Y29194200D01*
X1920300Y29448200D02*
X6339900Y29448200D01*
X1869500Y28737000D02*
X6441500Y28737000D01*
X1869500Y29499000D02*
X1869500Y28737000D01*
D12*
X5346500Y33894000D02*
G75*
G03*
X3060500Y33894000I-1143000J-1143000D01*
G01*
D26*
X3314500Y30592000D02*
G75*
G03*
X3314500Y30592000I-127000J0D01*
G01*
D12*
X3589109Y30592000D02*
G75*
G03*
X3589109Y30592000I-401609J0D01*
G01*
X21793000Y16241000D02*
X9982000Y16241000D01*
X14935000Y25258000D02*
X14073940Y24638240D01*
X14935000Y25258000D02*
X14068860Y23142180D01*
D27*
X14554000Y24750000D02*
X14046000Y23861000D01*
D12*
X14554000Y24750000D02*
X13540540Y24112460D01*
D27*
X14046000Y23861000D02*
X13919000Y23353000D01*
X13919000Y23353000D02*
X13540540Y22845000D01*
X13665000Y23861000D02*
X9093000Y23861000D01*
X13540540Y22845000D02*
X13540540Y23226000D01*
X13540540Y23226000D02*
X13919000Y24112460D01*
D12*
X13540540Y23607000D02*
X13258600Y23259020D01*
D27*
X13540540Y24112460D02*
X12395000Y24112460D01*
X13411000Y22718000D02*
X13030000Y22210000D01*
X13157000Y23734000D02*
X13665000Y23861000D01*
X13030000Y22210000D02*
X12776000Y21829000D01*
X13030000Y22591000D02*
X12268000Y21956000D01*
X12776000Y21829000D02*
X11887000Y20940000D01*
X12395000Y22591000D02*
X13157000Y22972000D01*
X12395000Y24112460D02*
X11379000Y24242000D01*
D12*
X12356900Y24300420D02*
X10208060Y24496000D01*
D27*
X12268000Y21956000D02*
X12141000Y22083000D01*
D12*
X12153700Y23192980D02*
X13540540Y23607000D01*
D27*
X12141000Y21575000D02*
X12014000Y21702000D01*
X12141000Y22083000D02*
X12014000Y22083000D01*
D12*
X12085120Y20754580D02*
X12049560Y20719020D01*
D27*
X12014000Y21448000D02*
X12141000Y21575000D01*
X12014000Y21702000D02*
X11506000Y21702000D01*
X12014000Y22083000D02*
X10871000Y21956000D01*
X11887000Y20940000D02*
X11379000Y20559000D01*
X11887000Y23353000D02*
X13157000Y23734000D01*
X11658400Y22337000D02*
X12395000Y22591000D01*
X11506000Y21702000D02*
X10490000Y21448000D01*
X11379000Y20559000D02*
X10490000Y20305000D01*
X11379000Y20940000D02*
X12014000Y21448000D01*
X11379000Y24242000D02*
X9728000Y24242000D01*
D12*
X11231680Y22507180D02*
X10921800Y22446220D01*
D27*
X11048800Y22337000D02*
X11658400Y22337000D01*
X10871000Y20813000D02*
X11379000Y20940000D01*
X10871000Y21956000D02*
X9855000Y21702000D01*
X10744000Y23226000D02*
X11887000Y23353000D01*
X10617000Y23226000D02*
X10744000Y23226000D01*
X10490000Y20305000D02*
X9601000Y20305000D01*
X10490000Y20686000D02*
X10871000Y20813000D01*
X10490000Y21448000D02*
X10236000Y21448000D01*
D12*
X10286800Y22903420D02*
X10804960Y22977080D01*
D27*
X10236000Y21067000D02*
X11506000Y21321000D01*
X10236000Y21448000D02*
X9728000Y21194000D01*
D12*
X10180120Y20051000D02*
X9664500Y20051000D01*
D27*
X10109000Y23226000D02*
X10617000Y23226000D01*
D12*
X9982000Y19289000D02*
X21793000Y19289000D01*
D27*
X9855000Y20686000D02*
X10490000Y20686000D01*
X9855000Y20940000D02*
X10236000Y21067000D01*
X9855000Y21702000D02*
X9220000Y21194000D01*
X9728000Y21067000D02*
X9855000Y20940000D01*
X9728000Y21194000D02*
X9728000Y21067000D01*
X9728000Y24242000D02*
X9093000Y23861000D01*
X9651800Y21854400D02*
X11048800Y22337000D01*
X9601000Y20305000D02*
X8839000Y20813000D01*
X9474000Y20813000D02*
X9855000Y20686000D01*
X9474000Y22845000D02*
X10109000Y23226000D01*
X9347000Y22845000D02*
X9093000Y23353000D01*
X9220000Y20813000D02*
X9474000Y20813000D01*
X9220000Y21194000D02*
X9093000Y21067000D01*
D12*
X9126020Y20271980D02*
X9072680Y20325320D01*
D27*
X9093000Y21067000D02*
X9220000Y20813000D01*
X9093000Y23353000D02*
X9093000Y23607000D01*
X9093000Y23353000D02*
X8712000Y22845000D01*
X9093000Y23607000D02*
X14046000Y23683200D01*
X9093000Y23861000D02*
X9093000Y23607000D01*
X9093000Y23861000D02*
X8585000Y23353000D01*
D12*
X9011720Y22395420D02*
X9019340Y22400500D01*
D27*
X8966000Y21448000D02*
X9651800Y21854400D01*
X8966000Y23226000D02*
X10617000Y23226000D01*
D12*
X8839000Y18781000D02*
X8348780Y19271220D01*
D27*
X8839000Y20813000D02*
X8458000Y20686000D01*
D12*
X8712000Y18654000D02*
X8204000Y19416000D01*
X8712000Y18781000D02*
X8526580Y18966420D01*
D27*
X8712000Y22464000D02*
X9347000Y22845000D01*
X8585000Y23353000D02*
X8331000Y22845000D01*
X8458000Y20686000D02*
X8204000Y20432000D01*
X8458000Y20940000D02*
X8966000Y21448000D01*
D12*
X8366560Y21176220D02*
X8196380Y20988260D01*
X8353860Y20325320D02*
X8077000Y20051000D01*
D27*
X8331000Y22845000D02*
X8204000Y21829000D01*
X8204000Y20432000D02*
X8458000Y20940000D01*
X8204000Y21829000D02*
X8712000Y22464000D01*
D12*
X8158280Y22979620D02*
X8010960Y22380180D01*
X8077000Y19543000D02*
X7972860Y19436320D01*
X8077000Y19878280D02*
X8077000Y19924000D01*
X8054140Y20096720D02*
X8077000Y20051000D01*
X7952540Y21321000D02*
X7955080Y21323540D01*
X7952540Y21702000D02*
X7952540Y21321000D01*
X7442000Y20178000D02*
X6680000Y20178000D01*
X7442000Y20282140D02*
X7442000Y20305000D01*
X7442000Y20305000D02*
X7442000Y20559000D01*
X7442000Y20305000D02*
X6680000Y20305000D01*
X7442000Y20559000D02*
X7315000Y20559000D01*
X7368340Y21163520D02*
X7315000Y21257500D01*
X7322620Y19408380D02*
X7188000Y19543000D01*
X7315000Y19924000D02*
X7315000Y19797000D01*
X7315000Y19924000D02*
X6807000Y19924000D01*
X7315000Y20051000D02*
X7315000Y19924000D01*
X7315000Y20051000D02*
X6680000Y20051000D01*
X7315000Y20432000D02*
X7315000Y20051000D01*
X7315000Y20432000D02*
X6680000Y20432000D01*
X7315000Y20559000D02*
X7315000Y20432000D01*
X7315000Y20559000D02*
X7188000Y20559000D01*
X7188000Y19543000D02*
X7485180Y19962100D01*
X7188000Y20559000D02*
X7188000Y19924000D01*
X7188000Y20559000D02*
X6807000Y20559000D01*
X7175300Y19543000D02*
X7188000Y19543000D01*
X6885740Y19667460D02*
X6913680Y19639520D01*
X6807000Y20559000D02*
X6807000Y20051000D01*
X6807000Y20559000D02*
X6553000Y20559000D01*
X6593640Y21902660D02*
X6172000Y22083000D01*
X6553000Y20559000D02*
X7061000Y19670000D01*
X6553000Y20686000D02*
X7442000Y20686000D01*
X6553000Y20813000D02*
X7442000Y20813000D01*
X6553000Y20940000D02*
X7315000Y20940000D01*
X6553000Y21067000D02*
X7315000Y21067000D01*
X6502200Y20736800D02*
X6502200Y20744420D01*
X6426000Y19670000D02*
X5918000Y19670000D01*
X6426000Y21194000D02*
X7315000Y21194000D01*
X6426000Y21321000D02*
X7188000Y21321000D01*
X6299000Y19797000D02*
X5664000Y19797000D01*
X6299000Y21448000D02*
X7061000Y21448000D01*
X6299000Y21575000D02*
X6934000Y21575000D01*
X6273600Y19543000D02*
X6629200Y19543000D01*
X6172000Y19924000D02*
X5537000Y19924000D01*
X6172000Y20051000D02*
X5410000Y20051000D01*
X6172000Y21702000D02*
X6680000Y21702000D01*
X6172000Y21956000D02*
X5410000Y21956000D01*
X6172000Y22083000D02*
X5156000Y22464000D01*
X6121200Y20178000D02*
X5283000Y20178000D01*
X6095800Y20734260D02*
X6121200Y20343100D01*
X6045000Y20305000D02*
X5283000Y20305000D01*
X6045000Y20432000D02*
X5283000Y20432000D01*
X6045000Y20559000D02*
X5283000Y20559000D01*
X6045000Y20686000D02*
X5283000Y20686000D01*
X6045000Y20813000D02*
X5283000Y20813000D01*
X6045000Y20940000D02*
X5283000Y20940000D01*
X6045000Y21067000D02*
X5410000Y21067000D01*
X5918000Y21194000D02*
X5410000Y21194000D01*
X5918000Y21321000D02*
X5410000Y21321000D01*
X5918000Y22083000D02*
X5283000Y22083000D01*
X5791000Y22210000D02*
X5283000Y22210000D01*
X5664000Y21829000D02*
X6553000Y21829000D01*
X5664000Y21829000D02*
X5664000Y21321000D01*
X5537000Y21829000D02*
X5664000Y21829000D01*
X5537000Y21829000D02*
X5537000Y21321000D01*
X5470960Y19863040D02*
X5493820Y19840180D01*
X5410000Y21829000D02*
X5537000Y21829000D01*
X5156000Y22464000D02*
X5290620Y21925520D01*
X21793000Y16241000D02*
G75*
G03*
X23317000Y17765000I1J1523999D01*
G01*
X23317000Y17765000D02*
G75*
G03*
X21793000Y19289000I-1524000J0D01*
G01*
X12356901Y24300424D02*
G75*
G03*
X14071952Y24640479I447039J2240296D01*
G01*
X12085119Y20754581D02*
G75*
G03*
X14066464Y23136553I-6362019J7307019D01*
G01*
X11231680Y22507181D02*
G75*
G03*
X13258541Y23257222I-604580J4747419D01*
G01*
X10804960Y22977074D02*
G75*
G03*
X12147379Y23192814I-470260J7210526D01*
G01*
X10180120Y20051001D02*
G75*
G03*
X12045932Y20716988I127040J2590689D01*
G01*
X8458000Y17765000D02*
G75*
G03*
X9982000Y16241000I1524000J0D01*
G01*
X9126032Y20271992D02*
G75*
G03*
X9664500Y20048934I538468J538408D01*
G01*
X10286800Y22903420D02*
G75*
G03*
X9023130Y22403066I871300J-4046420D01*
G01*
X8077022Y19878280D02*
G75*
G03*
X8582978Y18653720I1734678J-80D01*
G01*
X8077025Y20051000D02*
G75*
G03*
X8524549Y18965441I1534075J-2600D01*
G01*
X9982000Y19289000D02*
G75*
G03*
X8458000Y17765000I0J-1524000D01*
G01*
X10921802Y22446208D02*
G75*
G03*
X8367473Y21176844I1099098J-5416408D01*
G01*
X9072680Y20325320D02*
G75*
G03*
X8353860Y20327860I-360680J-358120D01*
G01*
X8076979Y19924000D02*
G75*
G03*
X8345258Y19271290I921821J-2600D01*
G01*
X10208060Y24496000D02*
G75*
G03*
X8157736Y22983415I93980J-2273300D01*
G01*
X8196380Y20988260D02*
G75*
G03*
X8076154Y20050931I642620J-558800D01*
G01*
X7614720Y19288998D02*
G75*
G03*
X7972134Y19437046I-20J505502D01*
G01*
X9011725Y22395413D02*
G75*
G03*
X7956641Y21325235I2775875J-3791913D01*
G01*
X8010958Y22380180D02*
G75*
G03*
X7950760Y21702757I2989942J-607080D01*
G01*
X7322626Y19408386D02*
G75*
G03*
X7614720Y19287388I292074J292014D01*
G01*
X7485180Y19962100D02*
G75*
G03*
X7570874Y20406099I-1109980J444500D01*
G01*
X7187991Y19670009D02*
G75*
G03*
X7441555Y20280629I-611991J612091D01*
G01*
X7568999Y20406600D02*
G75*
G03*
X7368793Y21161679I-1523999J0D01*
G01*
X6885724Y19667444D02*
G75*
G03*
X7189788Y19541208I304676J304556D01*
G01*
X6502222Y20736799D02*
G75*
G03*
X6912341Y19639955I1528978J-53399D01*
G01*
X6121195Y20343099D02*
G75*
G03*
X6623340Y19547387I1211605J208301D01*
G01*
X7315013Y21257507D02*
G75*
G03*
X6593000Y21901488I-1323213J-756807D01*
G01*
X6075479Y19565856D02*
G75*
G03*
X6274927Y19541697I198121J800244D01*
G01*
X5493821Y19840181D02*
G75*
G03*
X6073497Y19566547I785079J912319D01*
G01*
X6502199Y20744420D02*
G75*
G03*
X5995020Y21775819I-1498599J-96520D01*
G01*
X6095805Y20691080D02*
G75*
G03*
X5741795Y21681934I-1762905J-71180D01*
G01*
X5156019Y20619960D02*
G75*
G03*
X5469946Y19862026I1071781J-60D01*
G01*
X5227118Y20988261D02*
G75*
G03*
X5291148Y21922864I-1415018J566439D01*
G01*
X5227136Y20988254D02*
G75*
G03*
X5156283Y20619513I921564J-368254D01*
G01*
X27540000Y47121600D02*
X27540000Y49621600D01*
X27540000Y49621600D02*
X22460000Y49621600D01*
D28*
X26270000Y49875600D02*
X26270000Y55769600D01*
D12*
X25000000Y49621600D02*
X25000000Y47121600D01*
D28*
X23730000Y49875600D02*
X23730000Y55769600D01*
D12*
X22460000Y47121600D02*
X27540000Y47121600D01*
X22460000Y49621600D02*
X22460000Y47121600D01*
M02*
